SplineFontDB: 3.0
FontName: Neuton-Bold
FullName: Neuton Bold
FamilyName: Neuton
Weight: Bold
Copyright: Copyright (c) 2010, 2011 Brian M Zick (http://21326.info/), \nwith Reserved Font Name "Neuton".\n\nThis Font Software is licensed under the SIL Open Font License, Version 1.1.This license is available with a FAQ at: http://scripts.sil.org/OFL\n   WITHOUT WARRANTIES OR CONDITIONS OF ANY KIND, either express or implied.\n   See the License for the specific language governing permissions and\n   limitations under the License.
UComments: "2011-6-14: Created." 
Version: 1.42
ItalicAngle: 0
UnderlinePosition: -361
UnderlineWidth: 0
Ascent: 1638
Descent: 410
LayerCount: 2
Layer: 0 1 "Back"  1
Layer: 1 1 "Fore"  0
NeedsXUIDChange: 1
XUID: [1021 467 2011608612 10656044]
FSType: 0
OS2Version: 1
OS2_WeightWidthSlopeOnly: 0
OS2_UseTypoMetrics: 0
CreationTime: 1308101163
ModificationTime: 1316061340
PfmFamily: 17
TTFWeight: 700
TTFWidth: 5
LineGap: 0
VLineGap: 0
Panose: 2 0 8 3 0 0 0 0 0 0
OS2TypoAscent: 2106
OS2TypoAOffset: 0
OS2TypoDescent: -485
OS2TypoDOffset: 0
OS2TypoLinegap: 0
OS2WinAscent: 2106
OS2WinAOffset: 0
OS2WinDescent: 485
OS2WinDOffset: 0
HheadAscent: 2106
HheadAOffset: 0
HheadDescent: -485
HheadDOffset: 0
OS2SubXSize: 1095
OS2SubYSize: 1179
OS2SubXOff: 0
OS2SubYOff: 235
OS2SupXSize: 1095
OS2SupYSize: 1179
OS2SupXOff: 0
OS2SupYOff: 809
OS2StrikeYSize: 84
OS2StrikeYPos: 4436
OS2Vendor: 'PfEd'
Lookup: 1 0 0 "'sups' Superscript lookup 0"  {"'sups' Superscript lookup 0 subtable" ("superior" ) } ['sups' ('DFLT' <'dflt' > ) ]
MarkAttachClasses: 1
DEI: 91125
TtTable: prep
PUSHW_1
 511
SCANCTRL
PUSHB_1
 4
SCANTYPE
EndTTInstrs

StartChar: A
Encoding: 65 65 0
Width: 1343
VWidth: 0
Flags: HMW
LayerCount: 2
Fore
SplineSet
472 548 m 1,0,-1
 773 548 l 1,1,-1
 627 984 l 1,2,-1
 472 548 l 1,0,-1
-18 0 m 1,3,-1
 -4 106 l 1,4,-1
 150 185 l 1,5,-1
 564 1221 l 1,6,-1
 812 1269 l 1,7,-1
 1202 181 l 1,8,-1
 1345 112 l 1,9,-1
 1334 -1 l 1,10,-1
 714 -1 l 1,11,-1
 728 105 l 1,12,-1
 897 184 l 1,13,-1
 823 392 l 1,14,-1
 418 392 l 1,15,-1
 344 182 l 1,16,-1
 531 114 l 1,17,-1
 518 0 l 1,18,-1
 -18 0 l 1,3,-1
EndSplineSet
EndChar

StartChar: AE
Encoding: 198 198 1
Width: 1758
VWidth: 0
Flags: HMW
LayerCount: 2
Fore
SplineSet
583 592 m 1,0,-1
 880 592 l 1,1,-1
 874 1033 l 1,2,-1
 583 592 l 1,0,-1
-20 -0 m 1,3,-1
 -6 119 l 1,4,-1
 130 184 l 1,5,-1
 726 1073 l 1,6,-1
 530 1131 l 1,7,-1
 545 1244 l 1,8,-1
 1702 1244 l 1,9,-1
 1670 876 l 1,10,-1
 1542 896 l 1,11,-1
 1480 1112 l 1,12,-1
 1136 1112 l 1,13,-1
 1145 694 l 1,14,-1
 1340 702 l 1,15,-1
 1376 765 l 1,16,-1
 1512 780 l 1,17,-1
 1479 466 l 1,18,-1
 1354 466 l 1,19,-1
 1324 556 l 1,20,-1
 1148 561 l 1,21,-1
 1156 147 l 1,22,-1
 1522 138 l 1,23,-1
 1645 378 l 1,24,-1
 1768 362 l 1,25,-1
 1738 0 l 1,26,-1
 716 0 l 1,27,-1
 727 106 l 1,28,-1
 892 169 l 1,29,-1
 886 458 l 1,30,-1
 505 458 l 1,31,-1
 330 184 l 1,32,-1
 514 116 l 1,33,-1
 500 -0 l 1,34,-1
 -20 -0 l 1,3,-1
EndSplineSet
EndChar

StartChar: Aacute
Encoding: 193 193 2
Width: 1343
VWidth: 0
Flags: HMW
LayerCount: 2
Fore
SplineSet
620 1420 m 1,0,-1
 734 1734 l 1,1,-1
 956 1706 l 1,2,-1
 774 1393 l 1,3,-1
 620 1420 l 1,0,-1
472 548 m 1,4,-1
 773 548 l 1,5,-1
 627 984 l 1,6,-1
 472 548 l 1,4,-1
-18 0 m 1,7,-1
 -4 106 l 1,8,-1
 150 185 l 1,9,-1
 564 1221 l 1,10,-1
 812 1269 l 1,11,-1
 1202 181 l 1,12,-1
 1345 112 l 1,13,-1
 1334 -1 l 1,14,-1
 714 -1 l 1,15,-1
 728 105 l 1,16,-1
 897 184 l 1,17,-1
 823 392 l 1,18,-1
 418 392 l 1,19,-1
 344 182 l 1,20,-1
 531 114 l 1,21,-1
 518 0 l 1,22,-1
 -18 0 l 1,7,-1
EndSplineSet
EndChar

StartChar: Abreve
Encoding: 258 258 3
Width: 1343
VWidth: 0
Flags: HMW
LayerCount: 2
Fore
SplineSet
702 1556 m 0,0,1
 800 1556 800 1556 845 1632 c 1,2,-1
 907 1585 l 1,3,4
 880 1506 880 1506 828 1449 c 0,5,6
 776 1392 776 1392 716 1392 c 0,7,8
 610 1392 610 1392 563 1452 c 128,-1,9
 516 1512 516 1512 498 1585 c 1,10,-1
 571 1632 l 1,11,12
 593 1595 593 1595 622 1575.5 c 128,-1,13
 651 1556 651 1556 702 1556 c 0,0,1
472 548 m 1,14,-1
 773 548 l 1,15,-1
 627 984 l 1,16,-1
 472 548 l 1,14,-1
-18 0 m 1,17,-1
 -4 106 l 1,18,-1
 150 185 l 1,19,-1
 564 1221 l 1,20,-1
 812 1269 l 1,21,-1
 1202 181 l 1,22,-1
 1345 112 l 1,23,-1
 1334 -1 l 1,24,-1
 714 -1 l 1,25,-1
 728 105 l 1,26,-1
 897 184 l 1,27,-1
 823 392 l 1,28,-1
 418 392 l 1,29,-1
 344 182 l 1,30,-1
 531 114 l 1,31,-1
 518 0 l 1,32,-1
 -18 0 l 1,17,-1
EndSplineSet
EndChar

StartChar: Acaron
Encoding: 461 461 4
Width: 1343
VWidth: 0
Flags: HMW
LayerCount: 2
Fore
SplineSet
406 1543 m 1,0,-1
 611 1578 l 1,1,-1
 700 1493 l 1,2,-1
 710 1493 l 1,3,-1
 794 1574 l 1,4,-1
 937 1560 l 1,5,-1
 747 1344 l 1,6,-1
 600 1323 l 1,7,-1
 406 1543 l 1,0,-1
472 548 m 1,8,-1
 773 548 l 1,9,-1
 627 984 l 1,10,-1
 472 548 l 1,8,-1
-18 0 m 1,11,-1
 -4 106 l 1,12,-1
 150 185 l 1,13,-1
 564 1221 l 1,14,-1
 812 1269 l 1,15,-1
 1202 181 l 1,16,-1
 1345 112 l 1,17,-1
 1334 -1 l 1,18,-1
 714 -1 l 1,19,-1
 728 105 l 1,20,-1
 897 184 l 1,21,-1
 823 392 l 1,22,-1
 418 392 l 1,23,-1
 344 182 l 1,24,-1
 531 114 l 1,25,-1
 518 0 l 1,26,-1
 -18 0 l 1,11,-1
EndSplineSet
EndChar

StartChar: Acircumflex
Encoding: 194 194 5
Width: 1343
VWidth: 0
Flags: HMW
LayerCount: 2
Fore
SplineSet
1017 1380 m 1,0,-1
 848 1345 l 1,1,-1
 744 1430 l 1,2,-1
 734 1430 l 1,3,-1
 647 1339 l 1,4,-1
 486 1363 l 1,5,-1
 650 1579 l 1,6,-1
 837 1600 l 1,7,-1
 1017 1380 l 1,0,-1
472 548 m 1,8,-1
 773 548 l 1,9,-1
 627 984 l 1,10,-1
 472 548 l 1,8,-1
-18 0 m 1,11,-1
 -4 106 l 1,12,-1
 150 185 l 1,13,-1
 564 1221 l 1,14,-1
 812 1269 l 1,15,-1
 1202 181 l 1,16,-1
 1345 112 l 1,17,-1
 1334 -1 l 1,18,-1
 714 -1 l 1,19,-1
 728 105 l 1,20,-1
 897 184 l 1,21,-1
 823 392 l 1,22,-1
 418 392 l 1,23,-1
 344 182 l 1,24,-1
 531 114 l 1,25,-1
 518 0 l 1,26,-1
 -18 0 l 1,11,-1
EndSplineSet
EndChar

StartChar: Adieresis
Encoding: 196 196 6
Width: 1343
VWidth: 0
Flags: HMW
LayerCount: 2
Fore
SplineSet
737 1487 m 128,-1,1
 737 1526 737 1526 764.5 1553.5 c 128,-1,2
 792 1581 792 1581 846 1581 c 128,-1,3
 900 1581 900 1581 928.5 1554 c 128,-1,4
 957 1527 957 1527 957 1487 c 128,-1,5
 957 1447 957 1447 928.5 1419.5 c 128,-1,6
 900 1392 900 1392 845 1392 c 128,-1,7
 790 1392 790 1392 763.5 1420 c 128,-1,0
 737 1448 737 1448 737 1487 c 128,-1,1
428 1487 m 128,-1,9
 428 1526 428 1526 455.5 1553.5 c 128,-1,10
 483 1581 483 1581 537 1581 c 128,-1,11
 591 1581 591 1581 619.5 1554 c 128,-1,12
 648 1527 648 1527 648 1487 c 128,-1,13
 648 1447 648 1447 619.5 1419.5 c 128,-1,14
 591 1392 591 1392 536 1392 c 128,-1,15
 481 1392 481 1392 454.5 1420 c 128,-1,8
 428 1448 428 1448 428 1487 c 128,-1,9
472 548 m 1,16,-1
 773 548 l 1,17,-1
 627 984 l 1,18,-1
 472 548 l 1,16,-1
-18 0 m 1,19,-1
 -4 106 l 1,20,-1
 150 185 l 1,21,-1
 564 1221 l 1,22,-1
 812 1269 l 1,23,-1
 1202 181 l 1,24,-1
 1345 112 l 1,25,-1
 1334 -1 l 1,26,-1
 714 -1 l 1,27,-1
 728 105 l 1,28,-1
 897 184 l 1,29,-1
 823 392 l 1,30,-1
 418 392 l 1,31,-1
 344 182 l 1,32,-1
 531 114 l 1,33,-1
 518 0 l 1,34,-1
 -18 0 l 1,19,-1
EndSplineSet
EndChar

StartChar: Agrave
Encoding: 192 192 7
Width: 1343
VWidth: 0
Flags: HMW
LayerCount: 2
Fore
SplineSet
447 1728 m 1,0,-1
 664 1766 l 1,1,-1
 804 1426 l 1,2,-1
 647 1393 l 1,3,-1
 447 1728 l 1,0,-1
472 548 m 1,4,-1
 773 548 l 1,5,-1
 627 984 l 1,6,-1
 472 548 l 1,4,-1
-18 0 m 1,7,-1
 -4 106 l 1,8,-1
 150 185 l 1,9,-1
 564 1221 l 1,10,-1
 812 1269 l 1,11,-1
 1202 181 l 1,12,-1
 1345 112 l 1,13,-1
 1334 -1 l 1,14,-1
 714 -1 l 1,15,-1
 728 105 l 1,16,-1
 897 184 l 1,17,-1
 823 392 l 1,18,-1
 418 392 l 1,19,-1
 344 182 l 1,20,-1
 531 114 l 1,21,-1
 518 0 l 1,22,-1
 -18 0 l 1,7,-1
EndSplineSet
EndChar

StartChar: Amacron
Encoding: 256 256 8
Width: 1343
VWidth: 0
Flags: HMW
LayerCount: 2
Fore
SplineSet
480 1393 m 1,0,-1
 497 1540 l 1,1,-1
 944 1540 l 1,2,-1
 927 1393 l 1,3,-1
 480 1393 l 1,0,-1
472 548 m 1,4,-1
 773 548 l 1,5,-1
 627 984 l 1,6,-1
 472 548 l 1,4,-1
-18 0 m 1,7,-1
 -4 106 l 1,8,-1
 150 185 l 1,9,-1
 564 1221 l 1,10,-1
 812 1269 l 1,11,-1
 1202 181 l 1,12,-1
 1345 112 l 1,13,-1
 1334 -1 l 1,14,-1
 714 -1 l 1,15,-1
 728 105 l 1,16,-1
 897 184 l 1,17,-1
 823 392 l 1,18,-1
 418 392 l 1,19,-1
 344 182 l 1,20,-1
 531 114 l 1,21,-1
 518 0 l 1,22,-1
 -18 0 l 1,7,-1
EndSplineSet
EndChar

StartChar: Aogonek
Encoding: 260 260 9
Width: 1343
VWidth: 0
Flags: HMW
LayerCount: 2
Fore
SplineSet
472 548 m 1,0,-1
 773 548 l 1,1,-1
 627 984 l 1,2,-1
 472 548 l 1,0,-1
986 -198 m 0,3,4
 986 -146 986 -146 1014 -102.5 c 128,-1,5
 1042 -59 1042 -59 1117 -1 c 1,6,-1
 714 -1 l 1,7,-1
 728 105 l 1,8,-1
 897 184 l 1,9,-1
 823 392 l 1,10,-1
 418 392 l 1,11,-1
 344 182 l 1,12,-1
 531 114 l 1,13,-1
 518 0 l 1,14,-1
 -18 0 l 1,15,-1
 -4 106 l 1,16,-1
 150 185 l 1,17,-1
 564 1221 l 1,18,-1
 812 1269 l 1,19,-1
 1202 181 l 1,20,-1
 1345 112 l 1,21,-1
 1334 -1 l 1,22,-1
 1222 -1 l 1,23,24
 1178 -100 1178 -100 1193 -173.5 c 128,-1,25
 1208 -247 1208 -247 1293 -309 c 1,26,-1
 1264 -381 l 1,27,28
 1146 -372 1146 -372 1066 -322 c 128,-1,29
 986 -272 986 -272 986 -198 c 0,3,4
EndSplineSet
EndChar

StartChar: Aring
Encoding: 197 197 10
Width: 1343
VWidth: 0
Flags: HMW
LayerCount: 2
Fore
SplineSet
658.5 1457 m 128,-1,1
 675 1450 675 1450 692 1450 c 1,2,3
 740 1453 740 1453 742 1502 c 1,4,5
 742 1551 742 1551 686 1551 c 0,6,7
 665 1551 665 1551 653.5 1536 c 128,-1,8
 642 1521 642 1521 642 1492.5 c 128,-1,0
 642 1464 642 1464 658.5 1457 c 128,-1,1
697 1659 m 0,9,10
 912 1659 912 1659 912 1504 c 0,11,12
 912 1433 912 1433 854 1387.5 c 128,-1,13
 796 1342 796 1342 684 1342 c 0,14,15
 476 1342 476 1342 476 1495 c 0,16,17
 476 1567 476 1567 534 1613 c 128,-1,18
 592 1659 592 1659 697 1659 c 0,9,10
472 548 m 1,19,-1
 773 548 l 1,20,-1
 627 984 l 1,21,-1
 472 548 l 1,19,-1
-18 0 m 1,22,-1
 -4 106 l 1,23,-1
 150 185 l 1,24,-1
 564 1221 l 1,25,-1
 812 1269 l 1,26,-1
 1202 181 l 1,27,-1
 1345 112 l 1,28,-1
 1334 -1 l 1,29,-1
 714 -1 l 1,30,-1
 728 105 l 1,31,-1
 897 184 l 1,32,-1
 823 392 l 1,33,-1
 418 392 l 1,34,-1
 344 182 l 1,35,-1
 531 114 l 1,36,-1
 518 0 l 1,37,-1
 -18 0 l 1,22,-1
EndSplineSet
EndChar

StartChar: Atilde
Encoding: 195 195 11
Width: 1343
VWidth: 0
Flags: HMW
LayerCount: 2
Fore
SplineSet
414 1396 m 1,0,1
 407 1440 407 1440 430.5 1489 c 128,-1,2
 454 1538 454 1538 477 1564 c 0,3,4
 530 1624 530 1624 617 1604 c 2,5,-1
 823 1555 l 2,6,7
 854 1548 854 1548 878 1588 c 2,8,-1
 886 1601 l 1,9,-1
 968 1595 l 1,10,11
 968 1526 968 1526 912 1450 c 0,12,13
 886 1414 886 1414 840.5 1397 c 128,-1,14
 795 1380 795 1380 742 1393 c 2,15,-1
 555 1439 l 1,16,17
 518 1447 518 1447 496 1383 c 1,18,-1
 414 1396 l 1,0,1
472 548 m 1,19,-1
 773 548 l 1,20,-1
 627 984 l 1,21,-1
 472 548 l 1,19,-1
-18 0 m 1,22,-1
 -4 106 l 1,23,-1
 150 185 l 1,24,-1
 564 1221 l 1,25,-1
 812 1269 l 1,26,-1
 1202 181 l 1,27,-1
 1345 112 l 1,28,-1
 1334 -1 l 1,29,-1
 714 -1 l 1,30,-1
 728 105 l 1,31,-1
 897 184 l 1,32,-1
 823 392 l 1,33,-1
 418 392 l 1,34,-1
 344 182 l 1,35,-1
 531 114 l 1,36,-1
 518 0 l 1,37,-1
 -18 0 l 1,22,-1
EndSplineSet
EndChar

StartChar: B
Encoding: 66 66 12
Width: 1187
VWidth: 0
Flags: HMW
LayerCount: 2
Fore
SplineSet
486 708 m 1,0,-1
 702 708 l 1,1,2
 798 771 798 771 798 903 c 0,3,4
 798 1001 798 1001 739.5 1063.5 c 128,-1,5
 681 1126 681 1126 552 1126 c 0,6,7
 520 1126 520 1126 486 1120 c 1,8,-1
 486 708 l 1,0,-1
486 141 m 1,9,-1
 652 141 l 2,10,11
 754 141 754 141 816 199.5 c 128,-1,12
 878 258 878 258 878 352 c 128,-1,13
 878 446 878 446 813 514.5 c 128,-1,14
 748 583 748 583 637 583 c 2,15,-1
 486 583 l 1,16,-1
 486 141 l 1,9,-1
544 1257 m 0,17,18
 842 1257 842 1257 956.5 1168.5 c 128,-1,19
 1071 1080 1071 1080 1071 959 c 0,20,21
 1071 874 1071 874 1016 794.5 c 128,-1,22
 961 715 961 715 866 682 c 1,23,-1
 866 673 l 1,24,25
 1009 665 1009 665 1086.5 577 c 128,-1,26
 1164 489 1164 489 1164 380 c 0,27,28
 1164 210 1164 210 1024 105 c 128,-1,29
 884 0 884 0 606 0 c 2,30,-1
 25 0 l 1,31,-1
 38 106 l 1,32,-1
 204 169 l 1,33,-1
 204 1056 l 1,34,-1
 34 1093 l 1,35,-1
 44 1211 l 1,36,37
 375 1257 375 1257 544 1257 c 0,17,18
EndSplineSet
EndChar

StartChar: C
Encoding: 67 67 13
Width: 1197
VWidth: 0
Flags: HMW
LayerCount: 2
Fore
SplineSet
30 586 m 0,0,1
 30 786 30 786 130 954 c 0,2,3
 247 1151 247 1151 470 1227 c 0,4,5
 595 1270 595 1270 725 1270 c 128,-1,6
 855 1270 855 1270 966 1243.5 c 128,-1,7
 1077 1217 1077 1217 1138 1170 c 1,8,-1
 1108 792 l 1,9,-1
 978 810 l 1,10,-1
 926 1036 l 1,11,12
 891 1080 891 1080 826.5 1106 c 128,-1,13
 762 1132 762 1132 688 1132 c 0,14,15
 525 1132 525 1132 429.5 1014.5 c 128,-1,16
 334 897 334 897 334 665.5 c 128,-1,17
 334 434 334 434 456.5 296 c 128,-1,18
 579 158 579 158 771 158 c 128,-1,19
 963 158 963 158 1130 281 c 1,20,-1
 1178 176 l 1,21,22
 1111 97 1111 97 974.5 35.5 c 128,-1,23
 838 -26 838 -26 678 -26 c 0,24,25
 384 -26 384 -26 207 136 c 128,-1,26
 30 298 30 298 30 586 c 0,0,1
EndSplineSet
EndChar

StartChar: Cacute
Encoding: 262 262 14
Width: 1197
VWidth: 0
Flags: HMW
LayerCount: 2
Fore
SplineSet
656 1420 m 1,0,-1
 770 1734 l 1,1,-1
 992 1706 l 1,2,-1
 810 1393 l 1,3,-1
 656 1420 l 1,0,-1
30 586 m 0,4,5
 30 786 30 786 130 954 c 0,6,7
 247 1151 247 1151 470 1227 c 0,8,9
 595 1270 595 1270 725 1270 c 128,-1,10
 855 1270 855 1270 966 1243.5 c 128,-1,11
 1077 1217 1077 1217 1138 1170 c 1,12,-1
 1108 792 l 1,13,-1
 978 810 l 1,14,-1
 926 1036 l 1,15,16
 891 1080 891 1080 826.5 1106 c 128,-1,17
 762 1132 762 1132 688 1132 c 0,18,19
 525 1132 525 1132 429.5 1014.5 c 128,-1,20
 334 897 334 897 334 665.5 c 128,-1,21
 334 434 334 434 456.5 296 c 128,-1,22
 579 158 579 158 771 158 c 128,-1,23
 963 158 963 158 1130 281 c 1,24,-1
 1178 176 l 1,25,26
 1111 97 1111 97 974.5 35.5 c 128,-1,27
 838 -26 838 -26 678 -26 c 0,28,29
 384 -26 384 -26 207 136 c 128,-1,30
 30 298 30 298 30 586 c 0,4,5
EndSplineSet
EndChar

StartChar: Ccaron
Encoding: 268 268 15
Width: 1197
VWidth: 0
Flags: HMW
LayerCount: 2
Fore
SplineSet
482 1543 m 1,0,-1
 687 1578 l 1,1,-1
 776 1493 l 1,2,-1
 786 1493 l 1,3,-1
 870 1574 l 1,4,-1
 1013 1560 l 1,5,-1
 823 1344 l 1,6,-1
 676 1323 l 1,7,-1
 482 1543 l 1,0,-1
30 586 m 0,8,9
 30 786 30 786 130 954 c 0,10,11
 247 1151 247 1151 470 1227 c 0,12,13
 595 1270 595 1270 725 1270 c 128,-1,14
 855 1270 855 1270 966 1243.5 c 128,-1,15
 1077 1217 1077 1217 1138 1170 c 1,16,-1
 1108 792 l 1,17,-1
 978 810 l 1,18,-1
 926 1036 l 1,19,20
 891 1080 891 1080 826.5 1106 c 128,-1,21
 762 1132 762 1132 688 1132 c 0,22,23
 525 1132 525 1132 429.5 1014.5 c 128,-1,24
 334 897 334 897 334 665.5 c 128,-1,25
 334 434 334 434 456.5 296 c 128,-1,26
 579 158 579 158 771 158 c 128,-1,27
 963 158 963 158 1130 281 c 1,28,-1
 1178 176 l 1,29,30
 1111 97 1111 97 974.5 35.5 c 128,-1,31
 838 -26 838 -26 678 -26 c 0,32,33
 384 -26 384 -26 207 136 c 128,-1,34
 30 298 30 298 30 586 c 0,8,9
EndSplineSet
EndChar

StartChar: Ccedilla
Encoding: 199 199 16
Width: 1197
VWidth: 0
Flags: HMW
LayerCount: 2
Fore
SplineSet
634 -258 m 0,0,1
 634 -221 634 -221 509 -157 c 1,2,-1
 675 -26 l 1,3,4
 384 -25 384 -25 207 135 c 0,5,6
 30 296 30 296 30 586 c 0,7,8
 30 786 30 786 130 954 c 0,9,10
 247 1151 247 1151 470 1227 c 0,11,12
 595 1270 595 1270 725 1270 c 128,-1,13
 855 1270 855 1270 966 1243.5 c 128,-1,14
 1077 1217 1077 1217 1138 1170 c 1,15,-1
 1108 792 l 1,16,-1
 978 810 l 1,17,-1
 926 1036 l 1,18,19
 891 1080 891 1080 826.5 1106 c 128,-1,20
 762 1132 762 1132 688 1132 c 0,21,22
 525 1132 525 1132 429.5 1014.5 c 128,-1,23
 334 897 334 897 334 665.5 c 128,-1,24
 334 434 334 434 456.5 296 c 128,-1,25
 579 158 579 158 771 158 c 128,-1,26
 963 158 963 158 1130 281 c 1,27,-1
 1178 176 l 1,28,29
 1126 115 1126 115 1026 60.5 c 128,-1,30
 926 6 926 6 804 -15 c 1,31,-1
 720 -96 l 1,32,33
 803 -143 803 -143 822 -184 c 0,34,35
 832 -206 832 -206 832 -232 c 0,36,37
 832 -307 832 -307 754 -346.5 c 128,-1,38
 676 -386 676 -386 540 -404 c 1,39,-1
 512 -320 l 1,40,41
 560 -313 560 -313 597 -296 c 128,-1,42
 634 -279 634 -279 634 -258 c 0,0,1
EndSplineSet
EndChar

StartChar: Cdotaccent
Encoding: 266 266 17
Width: 1197
VWidth: 0
Flags: HMW
LayerCount: 2
Fore
SplineSet
581 1528 m 128,-1,1
 581 1584 581 1584 624 1624.5 c 128,-1,2
 667 1665 667 1665 748 1665 c 128,-1,3
 829 1665 829 1665 872 1625.5 c 128,-1,4
 915 1586 915 1586 915 1528.5 c 128,-1,5
 915 1471 915 1471 872 1432 c 128,-1,6
 829 1393 829 1393 745 1393 c 128,-1,7
 661 1393 661 1393 621 1432.5 c 128,-1,0
 581 1472 581 1472 581 1528 c 128,-1,1
30 586 m 0,8,9
 30 786 30 786 130 954 c 0,10,11
 247 1151 247 1151 470 1227 c 0,12,13
 595 1270 595 1270 725 1270 c 128,-1,14
 855 1270 855 1270 966 1243.5 c 128,-1,15
 1077 1217 1077 1217 1138 1170 c 1,16,-1
 1108 792 l 1,17,-1
 978 810 l 1,18,-1
 926 1036 l 1,19,20
 891 1080 891 1080 826.5 1106 c 128,-1,21
 762 1132 762 1132 688 1132 c 0,22,23
 525 1132 525 1132 429.5 1014.5 c 128,-1,24
 334 897 334 897 334 665.5 c 128,-1,25
 334 434 334 434 456.5 296 c 128,-1,26
 579 158 579 158 771 158 c 128,-1,27
 963 158 963 158 1130 281 c 1,28,-1
 1178 176 l 1,29,30
 1111 97 1111 97 974.5 35.5 c 128,-1,31
 838 -26 838 -26 678 -26 c 0,32,33
 384 -26 384 -26 207 136 c 128,-1,34
 30 298 30 298 30 586 c 0,8,9
EndSplineSet
EndChar

StartChar: D
Encoding: 68 68 18
Width: 1407
VWidth: 0
Flags: HMW
LayerCount: 2
Fore
SplineSet
498 153 m 1,0,-1
 608 153 l 2,1,2
 896 153 896 153 1010 354 c 0,3,4
 1070 461 1070 461 1070 578 c 128,-1,5
 1070 695 1070 695 1039.5 783.5 c 128,-1,6
 1009 872 1009 872 950 945.5 c 128,-1,7
 891 1019 891 1019 792.5 1062.5 c 128,-1,8
 694 1106 694 1106 568 1106 c 1,9,-1
 498 1101 l 1,10,-1
 498 153 l 1,0,-1
552.5 1258 m 128,-1,12
 735 1258 735 1258 842.5 1240.5 c 128,-1,13
 950 1223 950 1223 1028.5 1192 c 128,-1,14
 1107 1161 1107 1161 1168 1116 c 0,15,16
 1281 1033 1281 1033 1329.5 914.5 c 128,-1,17
 1378 796 1378 796 1378 672.5 c 128,-1,18
 1378 549 1378 549 1344 453 c 0,19,20
 1276 257 1276 257 1078 128.5 c 128,-1,21
 880 0 880 0 580 0 c 2,22,-1
 24 0 l 1,23,-1
 42 106 l 1,24,-1
 218 185 l 1,25,-1
 218 1053 l 1,26,-1
 46 1091 l 1,27,-1
 54 1208 l 1,28,11
 370 1258 370 1258 552.5 1258 c 128,-1,12
EndSplineSet
EndChar

StartChar: Dcaron
Encoding: 270 270 19
Width: 1407
VWidth: 0
Flags: HMW
LayerCount: 2
Fore
SplineSet
434 1543 m 1,0,-1
 639 1578 l 1,1,-1
 728 1493 l 1,2,-1
 738 1493 l 1,3,-1
 822 1574 l 1,4,-1
 965 1560 l 1,5,-1
 775 1344 l 1,6,-1
 628 1323 l 1,7,-1
 434 1543 l 1,0,-1
498 153 m 1,8,-1
 608 153 l 2,9,10
 896 153 896 153 1010 354 c 0,11,12
 1070 461 1070 461 1070 578 c 128,-1,13
 1070 695 1070 695 1039.5 783.5 c 128,-1,14
 1009 872 1009 872 950 945.5 c 128,-1,15
 891 1019 891 1019 792.5 1062.5 c 128,-1,16
 694 1106 694 1106 568 1106 c 1,17,-1
 498 1101 l 1,18,-1
 498 153 l 1,8,-1
552.5 1258 m 128,-1,20
 735 1258 735 1258 842.5 1240.5 c 128,-1,21
 950 1223 950 1223 1028.5 1192 c 128,-1,22
 1107 1161 1107 1161 1168 1116 c 0,23,24
 1281 1033 1281 1033 1329.5 914.5 c 128,-1,25
 1378 796 1378 796 1378 672.5 c 128,-1,26
 1378 549 1378 549 1344 453 c 0,27,28
 1276 257 1276 257 1078 128.5 c 128,-1,29
 880 0 880 0 580 0 c 2,30,-1
 24 0 l 1,31,-1
 42 106 l 1,32,-1
 218 185 l 1,33,-1
 218 1053 l 1,34,-1
 46 1091 l 1,35,-1
 54 1208 l 1,36,19
 370 1258 370 1258 552.5 1258 c 128,-1,20
EndSplineSet
EndChar

StartChar: Dcroat
Encoding: 272 272 20
Width: 1417
VWidth: 0
Flags: HMW
LayerCount: 2
Fore
SplineSet
503 153 m 1,0,-1
 646 153 l 2,1,2
 922 153 922 153 1026 356 c 0,3,4
 1080 461 1080 461 1080 568 c 0,5,6
 1078 676 1078 676 1060 748 c 0,7,8
 1021 900 1021 900 898.5 1003.5 c 128,-1,9
 776 1107 776 1107 573 1107 c 1,10,-1
 503 1101 l 1,11,-1
 503 692 l 1,12,-1
 731 715 l 1,13,-1
 716 575 l 1,14,-1
 503 558 l 1,15,-1
 503 153 l 1,0,-1
585 1259 m 128,-1,17
 790 1259 790 1259 928 1225 c 0,18,19
 1388 1112 1388 1112 1388 655 c 0,20,21
 1388 446 1388 446 1247.5 274.5 c 128,-1,22
 1107 103 1107 103 868 36 c 0,23,24
 740 0 740 0 593 0 c 2,25,-1
 28 0 l 1,26,-1
 46 106 l 1,27,-1
 222 185 l 1,28,-1
 222 534 l 1,29,-1
 42 519 l 1,30,-1
 56 656 l 1,31,-1
 222 670 l 1,32,-1
 222 1054 l 1,33,-1
 50 1092 l 1,34,-1
 58 1208 l 1,35,16
 380 1259 380 1259 585 1259 c 128,-1,17
EndSplineSet
EndChar

StartChar: E
Encoding: 69 69 21
Width: 1189
VWidth: 0
Flags: HMW
LayerCount: 2
Back
SplineSet
110 1168 m 5,0,-1
 121 1244 l 1,1,-1
 1116 1244 l 1,2,-1
 1085 924 l 1,3,-1
 998 937 l 1,4,-1
 957 1152 l 1,5,-1
 486 1152 l 1,6,-1
 486 676 l 1,7,-1
 776 676 l 1,8,-1
 818 796 l 1,9,-1
 913 810 l 1,10,-1
 879 421 l 1,11,-1
 794 408 l 1,12,-1
 760 583 l 1,13,-1
 486 583 l 1,14,-1
 486 96 l 1,15,-1
 981 96 l 1,16,-1
 1079 326 l 1,17,-1
 1162 313 l 1,18,-1
 1132 0 l 1,19,-1
 117 0 l 1,20,-1
 125 74 l 1,21,-1
 292 121 l 1,22,-1
 292 1126 l 1,23,-1
 110 1168 l 5,0,-1
EndSplineSet
Fore
SplineSet
495 1112 m 1,0,-1
 495 684 l 1,1,-1
 730 684 l 1,2,-1
 774 813 l 1,3,-1
 918 840 l 1,4,-1
 884 416 l 1,5,-1
 745 393 l 1,6,-1
 712 562 l 1,7,-1
 495 562 l 1,8,-1
 495 151 l 1,9,-1
 924 151 l 1,10,-1
 1046 377 l 1,11,-1
 1170 362 l 1,12,-1
 1140 0 l 1,13,-1
 36 0 l 1,14,-1
 46 106 l 1,15,-1
 211 169 l 1,16,-1
 211 1078 l 1,17,-1
 25 1134 l 1,18,-1
 40 1244 l 1,19,-1
 1124 1244 l 1,20,-1
 1093 875 l 1,21,-1
 964 894 l 1,22,-1
 902 1112 l 1,23,-1
 495 1112 l 1,0,-1
EndSplineSet
EndChar

StartChar: Eacute
Encoding: 201 201 22
Width: 1189
VWidth: 0
Flags: HMW
LayerCount: 2
Fore
SplineSet
490 1420 m 1,0,-1
 604 1734 l 1,1,-1
 826 1706 l 1,2,-1
 644 1393 l 1,3,-1
 490 1420 l 1,0,-1
495 1112 m 1,4,-1
 495 684 l 1,5,-1
 730 684 l 1,6,-1
 774 813 l 1,7,-1
 918 840 l 1,8,-1
 884 416 l 1,9,-1
 745 393 l 1,10,-1
 712 562 l 1,11,-1
 495 562 l 1,12,-1
 495 151 l 1,13,-1
 924 151 l 1,14,-1
 1046 377 l 1,15,-1
 1170 362 l 1,16,-1
 1140 0 l 1,17,-1
 36 0 l 1,18,-1
 46 106 l 1,19,-1
 211 169 l 1,20,-1
 211 1078 l 1,21,-1
 25 1134 l 1,22,-1
 40 1244 l 1,23,-1
 1124 1244 l 1,24,-1
 1093 875 l 1,25,-1
 964 894 l 1,26,-1
 902 1112 l 1,27,-1
 495 1112 l 1,4,-1
EndSplineSet
EndChar

StartChar: Ecaron
Encoding: 282 282 23
Width: 1189
VWidth: 0
Flags: HMW
LayerCount: 2
Fore
SplineSet
394 1543 m 1,0,-1
 599 1578 l 1,1,-1
 688 1493 l 1,2,-1
 698 1493 l 1,3,-1
 782 1574 l 1,4,-1
 925 1560 l 1,5,-1
 735 1344 l 1,6,-1
 588 1323 l 1,7,-1
 394 1543 l 1,0,-1
495 1112 m 1,8,-1
 495 684 l 1,9,-1
 730 684 l 1,10,-1
 774 813 l 1,11,-1
 918 840 l 1,12,-1
 884 416 l 1,13,-1
 745 393 l 1,14,-1
 712 562 l 1,15,-1
 495 562 l 1,16,-1
 495 151 l 1,17,-1
 924 151 l 1,18,-1
 1046 377 l 1,19,-1
 1170 362 l 1,20,-1
 1140 0 l 1,21,-1
 36 0 l 1,22,-1
 46 106 l 1,23,-1
 211 169 l 1,24,-1
 211 1078 l 1,25,-1
 25 1134 l 1,26,-1
 40 1244 l 1,27,-1
 1124 1244 l 1,28,-1
 1093 875 l 1,29,-1
 964 894 l 1,30,-1
 902 1112 l 1,31,-1
 495 1112 l 1,8,-1
EndSplineSet
EndChar

StartChar: Ecircumflex
Encoding: 202 202 24
Width: 1189
VWidth: 0
Flags: HMW
LayerCount: 2
Fore
SplineSet
886 1380 m 1,0,-1
 717 1345 l 1,1,-1
 613 1430 l 1,2,-1
 603 1430 l 1,3,-1
 516 1339 l 1,4,-1
 355 1363 l 1,5,-1
 519 1579 l 1,6,-1
 706 1600 l 1,7,-1
 886 1380 l 1,0,-1
495 1112 m 1,8,-1
 495 684 l 1,9,-1
 730 684 l 1,10,-1
 774 813 l 1,11,-1
 918 840 l 1,12,-1
 884 416 l 1,13,-1
 745 393 l 1,14,-1
 712 562 l 1,15,-1
 495 562 l 1,16,-1
 495 151 l 1,17,-1
 924 151 l 1,18,-1
 1046 377 l 1,19,-1
 1170 362 l 1,20,-1
 1140 0 l 1,21,-1
 36 0 l 1,22,-1
 46 106 l 1,23,-1
 211 169 l 1,24,-1
 211 1078 l 1,25,-1
 25 1134 l 1,26,-1
 40 1244 l 1,27,-1
 1124 1244 l 1,28,-1
 1093 875 l 1,29,-1
 964 894 l 1,30,-1
 902 1112 l 1,31,-1
 495 1112 l 1,8,-1
EndSplineSet
EndChar

StartChar: Edieresis
Encoding: 203 203 25
Width: 1189
VWidth: 0
Flags: HMW
LayerCount: 2
Fore
SplineSet
626 1487 m 128,-1,1
 626 1526 626 1526 653.5 1553.5 c 128,-1,2
 681 1581 681 1581 735 1581 c 128,-1,3
 789 1581 789 1581 817.5 1554 c 128,-1,4
 846 1527 846 1527 846 1487 c 128,-1,5
 846 1447 846 1447 817.5 1419.5 c 128,-1,6
 789 1392 789 1392 734 1392 c 128,-1,7
 679 1392 679 1392 652.5 1420 c 128,-1,0
 626 1448 626 1448 626 1487 c 128,-1,1
317 1487 m 128,-1,9
 317 1526 317 1526 344.5 1553.5 c 128,-1,10
 372 1581 372 1581 426 1581 c 128,-1,11
 480 1581 480 1581 508.5 1554 c 128,-1,12
 537 1527 537 1527 537 1487 c 128,-1,13
 537 1447 537 1447 508.5 1419.5 c 128,-1,14
 480 1392 480 1392 425 1392 c 128,-1,15
 370 1392 370 1392 343.5 1420 c 128,-1,8
 317 1448 317 1448 317 1487 c 128,-1,9
495 1112 m 1,16,-1
 495 684 l 1,17,-1
 730 684 l 1,18,-1
 774 813 l 1,19,-1
 918 840 l 1,20,-1
 884 416 l 1,21,-1
 745 393 l 1,22,-1
 712 562 l 1,23,-1
 495 562 l 1,24,-1
 495 151 l 1,25,-1
 924 151 l 1,26,-1
 1046 377 l 1,27,-1
 1170 362 l 1,28,-1
 1140 0 l 1,29,-1
 36 0 l 1,30,-1
 46 106 l 1,31,-1
 211 169 l 1,32,-1
 211 1078 l 1,33,-1
 25 1134 l 1,34,-1
 40 1244 l 1,35,-1
 1124 1244 l 1,36,-1
 1093 875 l 1,37,-1
 964 894 l 1,38,-1
 902 1112 l 1,39,-1
 495 1112 l 1,16,-1
EndSplineSet
EndChar

StartChar: Edotaccent
Encoding: 278 278 26
Width: 1189
VWidth: 0
Flags: HMW
LayerCount: 2
Fore
SplineSet
415 1528 m 128,-1,1
 415 1584 415 1584 458 1624.5 c 128,-1,2
 501 1665 501 1665 582 1665 c 128,-1,3
 663 1665 663 1665 706 1625.5 c 128,-1,4
 749 1586 749 1586 749 1528.5 c 128,-1,5
 749 1471 749 1471 706 1432 c 128,-1,6
 663 1393 663 1393 579 1393 c 128,-1,7
 495 1393 495 1393 455 1432.5 c 128,-1,0
 415 1472 415 1472 415 1528 c 128,-1,1
495 1112 m 1,8,-1
 495 684 l 1,9,-1
 730 684 l 1,10,-1
 774 813 l 1,11,-1
 918 840 l 1,12,-1
 884 416 l 1,13,-1
 745 393 l 1,14,-1
 712 562 l 1,15,-1
 495 562 l 1,16,-1
 495 151 l 1,17,-1
 924 151 l 1,18,-1
 1046 377 l 1,19,-1
 1170 362 l 1,20,-1
 1140 0 l 1,21,-1
 36 0 l 1,22,-1
 46 106 l 1,23,-1
 211 169 l 1,24,-1
 211 1078 l 1,25,-1
 25 1134 l 1,26,-1
 40 1244 l 1,27,-1
 1124 1244 l 1,28,-1
 1093 875 l 1,29,-1
 964 894 l 1,30,-1
 902 1112 l 1,31,-1
 495 1112 l 1,8,-1
EndSplineSet
EndChar

StartChar: Egrave
Encoding: 200 200 27
Width: 1189
VWidth: 0
Flags: HMW
LayerCount: 2
Fore
SplineSet
342 1728 m 1,0,-1
 559 1766 l 1,1,-1
 699 1426 l 1,2,-1
 542 1393 l 1,3,-1
 342 1728 l 1,0,-1
495 1112 m 1,4,-1
 495 684 l 1,5,-1
 730 684 l 1,6,-1
 774 813 l 1,7,-1
 918 840 l 1,8,-1
 884 416 l 1,9,-1
 745 393 l 1,10,-1
 712 562 l 1,11,-1
 495 562 l 1,12,-1
 495 151 l 1,13,-1
 924 151 l 1,14,-1
 1046 377 l 1,15,-1
 1170 362 l 1,16,-1
 1140 0 l 1,17,-1
 36 0 l 1,18,-1
 46 106 l 1,19,-1
 211 169 l 1,20,-1
 211 1078 l 1,21,-1
 25 1134 l 1,22,-1
 40 1244 l 1,23,-1
 1124 1244 l 1,24,-1
 1093 875 l 1,25,-1
 964 894 l 1,26,-1
 902 1112 l 1,27,-1
 495 1112 l 1,4,-1
EndSplineSet
EndChar

StartChar: Emacron
Encoding: 274 274 28
Width: 1189
VWidth: 0
Flags: HMW
LayerCount: 2
Fore
SplineSet
400 1393 m 1,0,-1
 417 1540 l 1,1,-1
 864 1540 l 1,2,-1
 847 1393 l 1,3,-1
 400 1393 l 1,0,-1
495 1112 m 1,4,-1
 495 684 l 1,5,-1
 730 684 l 1,6,-1
 774 813 l 1,7,-1
 918 840 l 1,8,-1
 884 416 l 1,9,-1
 745 393 l 1,10,-1
 712 562 l 1,11,-1
 495 562 l 1,12,-1
 495 151 l 1,13,-1
 924 151 l 1,14,-1
 1046 377 l 1,15,-1
 1170 362 l 1,16,-1
 1140 0 l 1,17,-1
 36 0 l 1,18,-1
 46 106 l 1,19,-1
 211 169 l 1,20,-1
 211 1078 l 1,21,-1
 25 1134 l 1,22,-1
 40 1244 l 1,23,-1
 1124 1244 l 1,24,-1
 1093 875 l 1,25,-1
 964 894 l 1,26,-1
 902 1112 l 1,27,-1
 495 1112 l 1,4,-1
EndSplineSet
EndChar

StartChar: Eng
Encoding: 330 330 29
Width: 1396
VWidth: 0
Flags: HMW
LayerCount: 2
Fore
SplineSet
1193 292 m 2,0,1
 1193 46 1193 46 1106 -90 c 0,2,3
 1060 -162 1060 -162 999 -215.5 c 128,-1,4
 938 -269 938 -269 846 -325 c 1,5,-1
 796 -354 l 1,6,-1
 712 -223 l 1,7,8
 861 -110 861 -110 904 64 c 1,9,-1
 387 790 l 1,10,-1
 387 162 l 1,11,-1
 568 114 l 1,12,-1
 556 0 l 1,13,-1
 28 0 l 1,14,-1
 38 106 l 1,15,-1
 206 169 l 1,16,-1
 206 1060 l 1,17,-1
 27 1128 l 1,18,-1
 40 1244 l 1,19,-1
 435 1244 l 1,20,-1
 1022 402 l 1,21,-1
 1022 1073 l 1,22,-1
 836 1131 l 1,23,-1
 854 1244 l 1,24,-1
 1380 1244 l 1,25,-1
 1360 1131 l 1,26,-1
 1193 1078 l 1,27,-1
 1193 292 l 2,0,1
EndSplineSet
EndChar

StartChar: Eogonek
Encoding: 280 280 30
Width: 1189
VWidth: 0
Flags: HMW
LayerCount: 2
Fore
SplineSet
495 1112 m 1,0,-1
 495 684 l 1,1,-1
 730 684 l 1,2,-1
 774 813 l 1,3,-1
 918 840 l 1,4,-1
 884 416 l 1,5,-1
 745 393 l 1,6,-1
 712 562 l 1,7,-1
 495 562 l 1,8,-1
 495 151 l 1,9,-1
 924 151 l 1,10,-1
 1046 377 l 1,11,-1
 1170 362 l 1,12,-1
 1140 0 l 1,13,-1
 1124 0 l 1,14,15
 1084 -94 1084 -94 1100 -165 c 128,-1,16
 1116 -236 1116 -236 1199 -296 c 1,17,-1
 1170 -368 l 1,18,19
 1052 -359 1052 -359 972 -309 c 128,-1,20
 892 -259 892 -259 892 -185 c 0,21,22
 892 -135 892 -135 917 -94 c 128,-1,23
 942 -53 942 -53 1008 0 c 1,24,-1
 36 0 l 1,25,-1
 46 106 l 1,26,-1
 211 169 l 1,27,-1
 211 1078 l 1,28,-1
 25 1134 l 1,29,-1
 40 1244 l 1,30,-1
 1124 1244 l 1,31,-1
 1093 875 l 1,32,-1
 964 894 l 1,33,-1
 902 1112 l 1,34,-1
 495 1112 l 1,0,-1
EndSplineSet
EndChar

StartChar: Eth
Encoding: 208 208 31
Width: 1412
VWidth: 0
Flags: HMW
LayerCount: 2
Fore
SplineSet
498 153 m 1,0,-1
 642 153 l 2,1,2
 916 153 916 153 1020 356 c 0,3,4
 1074 461 1074 461 1074 568 c 0,5,6
 1074 676 1074 676 1056 748 c 0,7,8
 1017 900 1017 900 894 1003.5 c 128,-1,9
 771 1107 771 1107 568 1107 c 1,10,-1
 498 1101 l 1,11,-1
 498 692 l 1,12,-1
 726 715 l 1,13,-1
 711 575 l 1,14,-1
 498 558 l 1,15,-1
 498 153 l 1,0,-1
580.5 1259 m 128,-1,17
 785 1259 785 1259 923 1225 c 0,18,19
 1384 1111 1384 1111 1384 655 c 0,20,21
 1384 446 1384 446 1243.5 274.5 c 128,-1,22
 1103 103 1103 103 864 36 c 0,23,24
 736 0 736 0 589 0 c 2,25,-1
 24 0 l 1,26,-1
 42 106 l 1,27,-1
 218 185 l 1,28,-1
 218 534 l 1,29,-1
 38 519 l 1,30,-1
 51 656 l 1,31,-1
 218 670 l 1,32,-1
 218 1054 l 1,33,-1
 46 1092 l 1,34,-1
 54 1208 l 1,35,16
 376 1259 376 1259 580.5 1259 c 128,-1,17
EndSplineSet
EndChar

StartChar: Euro
Encoding: 8364 8364 32
Width: 1201
VWidth: 0
Flags: HMW
LayerCount: 2
Fore
SplineSet
710 1135 m 128,-1,1
 580 1135 580 1135 507.5 1040 c 128,-1,2
 435 945 435 945 425 770 c 1,3,-1
 920 770 l 1,4,-1
 896 653 l 1,5,-1
 426 653 l 1,6,7
 429 615 429 615 435 578 c 1,8,-1
 873 578 l 1,9,-1
 849 462 l 1,10,-1
 461 462 l 1,11,12
 503 319 503 319 588 221.5 c 128,-1,13
 673 124 673 124 788 124 c 128,-1,14
 903 124 903 124 943 181 c 1,15,-1
 1002 404 l 1,16,-1
 1134 425 l 1,17,-1
 1164 119 l 1,18,19
 1067 37 1067 37 974 6.5 c 128,-1,20
 881 -24 881 -24 753 -24 c 0,21,22
 495 -24 495 -24 340 111 c 128,-1,23
 185 246 185 246 146 462 c 1,24,-1
 -7 462 l 1,25,-1
 6 578 l 1,26,-1
 134 578 l 1,27,28
 133 618 133 618 136 653 c 1,29,-1
 6 653 l 1,30,-1
 19 770 l 1,31,-1
 156 770 l 1,32,33
 222 1026 222 1026 436 1167 c 0,34,35
 589 1268 589 1268 802.5 1268 c 128,-1,36
 1016 1268 1016 1268 1146 1168 c 1,37,-1
 1116 826 l 1,38,-1
 985 844 l 1,39,-1
 931 1048 l 1,40,0
 840 1135 840 1135 710 1135 c 128,-1,1
EndSplineSet
EndChar

StartChar: Euro.osf
Encoding: 65536 -1 33
Width: 1091
VWidth: 0
Flags: HMW
LayerCount: 2
Fore
SplineSet
125 490 m 128,-1,1
 125 501 125 501 125 507 c 1,2,-1
 6 507 l 1,3,-1
 22 624 l 1,4,-1
 139 624 l 1,5,6
 179 798 179 798 311 908 c 128,-1,7
 443 1018 443 1018 630 1018 c 0,8,9
 742 1018 742 1018 828.5 987 c 128,-1,10
 915 956 915 956 956 907 c 1,11,-1
 930 616 l 1,12,-1
 814 635 l 1,13,-1
 764 834 l 1,14,15
 738 860 738 860 720 874 c 0,16,17
 674 910 674 910 588 909 c 0,18,19
 416 909 416 909 395 624 c 1,20,-1
 717 624 l 1,21,-1
 693 507 l 1,22,-1
 392 507 l 1,23,24
 392 485 392 485 393 464 c 1,25,-1
 686 464 l 1,26,-1
 662 348 l 1,27,-1
 407 348 l 1,28,29
 432 219 432 219 494 158 c 128,-1,30
 556 97 556 97 643 97 c 0,31,32
 680 97 680 97 715 113.5 c 128,-1,33
 750 130 750 130 770 152 c 1,34,-1
 824 390 l 1,35,-1
 939 380 l 1,36,-1
 964 98 l 1,37,38
 799 -33 799 -33 570 -33 c 0,39,40
 395 -33 395 -33 282 64.5 c 128,-1,41
 169 162 169 162 137 348 c 1,42,-1
 8 348 l 1,43,-1
 20 464 l 1,44,-1
 125 464 l 1,45,0
 125 479 125 479 125 490 c 128,-1,1
EndSplineSet
EndChar

StartChar: F
Encoding: 70 70 34
Width: 1125
VWidth: 0
Flags: HMW
LayerCount: 2
Back
SplineSet
25 1134 m 1,0,-1
 40 1244 l 1,1,-1
 1124 1244 l 1,2,-1
 1093 875 l 1,3,-1
 964 894 l 1,4,-1
 902 1112 l 1,5,-1
 495 1112 l 1,6,-1
 495 684 l 1,7,-1
 730 684 l 1,8,-1
 774 813 l 1,9,-1
 918 840 l 1,10,-1
 884 416 l 1,11,-1
 745 393 l 1,12,-1
 712 562 l 1,13,-1
 495 562 l 1,14,-1
 495 151 l 1,15,-1
 924 151 l 1,16,-1
 1046 377 l 1,17,-1
 1170 362 l 1,18,-1
 1140 0 l 1,19,-1
 36 0 l 1,20,-1
 46 106 l 1,21,-1
 211 169 l 1,22,-1
 211 1078 l 1,23,-1
 25 1134 l 1,0,-1
EndSplineSet
Fore
SplineSet
496 1112 m 1,0,-1
 496 638 l 1,1,-1
 729 638 l 1,2,-1
 775 770 l 1,3,-1
 922 800 l 1,4,-1
 882 354 l 1,5,-1
 747 326 l 1,6,-1
 715 506 l 1,7,-1
 496 506 l 1,8,-1
 496 174 l 1,9,-1
 726 113 l 1,10,-1
 711 0 l 1,11,-1
 36 0 l 1,12,-1
 48 106 l 1,13,-1
 212 169 l 1,14,-1
 212 1078 l 1,15,-1
 25 1134 l 1,16,-1
 40 1244 l 1,17,-1
 1120 1244 l 1,18,-1
 1070 878 l 1,19,-1
 943 898 l 1,20,-1
 896 1112 l 1,21,-1
 496 1112 l 1,0,-1
EndSplineSet
EndChar

StartChar: G
Encoding: 71 71 35
Width: 1345
VWidth: 0
Flags: HMW
LayerCount: 2
Fore
SplineSet
30 579 m 0,0,1
 30 950 30 950 337 1150 c 0,2,3
 516 1266 516 1266 739 1266 c 0,4,5
 889 1266 889 1266 991.5 1241.5 c 128,-1,6
 1094 1217 1094 1217 1190 1174 c 1,7,-1
 1158 794 l 1,8,-1
 1020 808 l 1,9,-1
 982 1013 l 1,10,11
 871 1124 871 1124 705 1124 c 0,12,13
 539 1124 539 1124 440 1017 c 0,14,15
 342 910 342 910 342 672 c 0,16,17
 342 520 342 520 389.5 397.5 c 128,-1,18
 437 275 437 275 530.5 201.5 c 128,-1,19
 624 128 624 128 740 128 c 128,-1,20
 856 128 856 128 926 177 c 1,21,-1
 926 394 l 1,22,-1
 698 446 l 1,23,-1
 715 573 l 1,24,-1
 1323 573 l 1,25,-1
 1306 458 l 1,26,-1
 1192 401 l 1,27,-1
 1192 86 l 1,28,29
 1111 36 1111 36 972 4 c 128,-1,30
 833 -28 833 -28 699 -28 c 0,31,32
 371 -28 371 -28 200.5 134 c 128,-1,33
 30 296 30 296 30 579 c 0,0,1
EndSplineSet
EndChar

StartChar: Gbreve
Encoding: 286 286 36
Width: 1345
VWidth: 0
Flags: HMW
LayerCount: 2
Fore
SplineSet
739 1556 m 0,0,1
 837 1556 837 1556 882 1632 c 1,2,-1
 944 1585 l 1,3,4
 917 1506 917 1506 865.5 1449 c 128,-1,5
 814 1392 814 1392 754 1392 c 0,6,7
 648 1392 648 1392 600.5 1452 c 128,-1,8
 553 1512 553 1512 535 1585 c 1,9,-1
 608 1632 l 1,10,11
 630 1595 630 1595 659 1575.5 c 128,-1,12
 688 1556 688 1556 739 1556 c 0,0,1
30 579 m 0,13,14
 30 950 30 950 337 1150 c 0,15,16
 516 1266 516 1266 739 1266 c 0,17,18
 889 1266 889 1266 991.5 1241.5 c 128,-1,19
 1094 1217 1094 1217 1190 1174 c 1,20,-1
 1158 794 l 1,21,-1
 1020 808 l 1,22,-1
 982 1013 l 1,23,24
 871 1124 871 1124 705 1124 c 128,-1,25
 539 1124 539 1124 440.5 1016.5 c 128,-1,26
 342 909 342 909 342 672 c 0,27,28
 342 520 342 520 389.5 397.5 c 128,-1,29
 437 275 437 275 530.5 201.5 c 128,-1,30
 624 128 624 128 740 128 c 128,-1,31
 856 128 856 128 926 177 c 1,32,-1
 926 394 l 1,33,-1
 698 446 l 1,34,-1
 715 573 l 1,35,-1
 1323 573 l 1,36,-1
 1306 458 l 1,37,-1
 1192 401 l 1,38,-1
 1192 86 l 1,39,40
 1111 36 1111 36 972 4 c 128,-1,41
 833 -28 833 -28 699 -28 c 0,42,43
 371 -28 371 -28 200.5 134 c 128,-1,44
 30 296 30 296 30 579 c 0,13,14
EndSplineSet
EndChar

StartChar: Gcommaaccent
Encoding: 290 290 37
Width: 1345
VWidth: 0
Flags: HMW
LayerCount: 2
Fore
SplineSet
733 -137 m 0,0,1
 810 -137 810 -137 854.5 -175 c 128,-1,2
 899 -213 899 -213 901 -282 c 0,3,4
 904 -387 904 -387 819.5 -437 c 128,-1,5
 735 -487 735 -487 608 -478 c 1,6,-1
 589 -399 l 1,7,8
 638 -404 638 -404 670 -386.5 c 128,-1,9
 702 -369 702 -369 702 -340.5 c 128,-1,10
 702 -312 702 -312 668 -295 c 128,-1,11
 634 -278 634 -278 589 -278 c 1,12,13
 591 -137 591 -137 733 -137 c 0,0,1
30 579 m 0,14,15
 30 950 30 950 337 1150 c 0,16,17
 516 1266 516 1266 739 1266 c 0,18,19
 889 1266 889 1266 991.5 1241.5 c 128,-1,20
 1094 1217 1094 1217 1190 1174 c 1,21,-1
 1158 794 l 1,22,-1
 1020 808 l 1,23,-1
 982 1013 l 1,24,25
 871 1124 871 1124 705 1124 c 0,26,27
 539 1124 539 1124 440 1017 c 0,28,29
 342 910 342 910 342 672 c 0,30,31
 342 520 342 520 389.5 397.5 c 128,-1,32
 437 275 437 275 530.5 201.5 c 128,-1,33
 624 128 624 128 740 128 c 128,-1,34
 856 128 856 128 926 177 c 1,35,-1
 926 394 l 1,36,-1
 698 446 l 1,37,-1
 715 573 l 1,38,-1
 1323 573 l 1,39,-1
 1306 458 l 1,40,-1
 1192 401 l 1,41,-1
 1192 86 l 1,42,43
 1111 36 1111 36 972 4 c 128,-1,44
 833 -28 833 -28 699 -28 c 0,45,46
 371 -28 371 -28 200.5 134 c 128,-1,47
 30 296 30 296 30 579 c 0,14,15
EndSplineSet
EndChar

StartChar: Gdotaccent
Encoding: 288 288 38
Width: 1345
VWidth: 0
Flags: HMW
LayerCount: 2
Fore
SplineSet
572 1528 m 128,-1,1
 572 1584 572 1584 615 1624.5 c 128,-1,2
 658 1665 658 1665 739 1665 c 128,-1,3
 820 1665 820 1665 863 1625.5 c 128,-1,4
 906 1586 906 1586 906 1528.5 c 128,-1,5
 906 1471 906 1471 863 1432 c 128,-1,6
 820 1393 820 1393 736 1393 c 128,-1,7
 652 1393 652 1393 612 1432.5 c 128,-1,0
 572 1472 572 1472 572 1528 c 128,-1,1
30 579 m 0,8,9
 30 950 30 950 337 1150 c 0,10,11
 516 1266 516 1266 739 1266 c 0,12,13
 889 1266 889 1266 991.5 1241.5 c 128,-1,14
 1094 1217 1094 1217 1190 1174 c 1,15,-1
 1158 794 l 1,16,-1
 1020 808 l 1,17,-1
 982 1013 l 1,18,19
 871 1124 871 1124 705 1124 c 128,-1,20
 539 1124 539 1124 440.5 1016.5 c 128,-1,21
 342 909 342 909 342 672 c 0,22,23
 342 520 342 520 389.5 397.5 c 128,-1,24
 437 275 437 275 530.5 201.5 c 128,-1,25
 624 128 624 128 740 128 c 128,-1,26
 856 128 856 128 926 177 c 1,27,-1
 926 394 l 1,28,-1
 698 446 l 1,29,-1
 715 573 l 1,30,-1
 1323 573 l 1,31,-1
 1306 458 l 1,32,-1
 1192 401 l 1,33,-1
 1192 86 l 1,34,35
 1111 36 1111 36 972 4 c 128,-1,36
 833 -28 833 -28 699 -28 c 0,37,38
 371 -28 371 -28 200.5 134 c 128,-1,39
 30 296 30 296 30 579 c 0,8,9
EndSplineSet
EndChar

StartChar: H
Encoding: 72 72 39
Width: 1524
VWidth: 0
Flags: HMW
LayerCount: 2
Fore
SplineSet
493 718 m 1,0,-1
 1030 718 l 1,1,-1
 1030 1073 l 1,2,-1
 848 1131 l 1,3,-1
 862 1244 l 1,4,-1
 1499 1244 l 1,5,-1
 1484 1131 l 1,6,-1
 1316 1078 l 1,7,-1
 1316 162 l 1,8,-1
 1496 114 l 1,9,-1
 1484 0 l 1,10,-1
 852 0 l 1,11,-1
 864 106 l 1,12,-1
 1030 169 l 1,13,-1
 1030 541 l 1,14,-1
 493 541 l 1,15,-1
 493 162 l 1,16,-1
 676 114 l 1,17,-1
 660 0 l 1,18,-1
 31 0 l 1,19,-1
 41 106 l 1,20,-1
 209 169 l 1,21,-1
 209 1073 l 1,22,-1
 25 1131 l 1,23,-1
 43 1244 l 1,24,-1
 675 1244 l 1,25,-1
 660 1131 l 1,26,-1
 493 1078 l 1,27,-1
 493 718 l 1,0,-1
EndSplineSet
EndChar

StartChar: Hbar
Encoding: 294 294 40
Width: 1528
VWidth: 0
Flags: HMW
LayerCount: 2
Fore
SplineSet
223 968 m 1,0,-1
 223 1073 l 1,1,-1
 39 1131 l 1,2,-1
 57 1244 l 1,3,-1
 689 1244 l 1,4,-1
 674 1131 l 1,5,-1
 507 1078 l 1,6,-1
 507 941 l 1,7,-1
 1044 941 l 1,8,-1
 1044 1073 l 1,9,-1
 862 1131 l 1,10,-1
 876 1244 l 1,11,-1
 1513 1244 l 1,12,-1
 1498 1131 l 1,13,-1
 1330 1078 l 1,14,-1
 1330 968 l 1,15,-1
 1458 968 l 1,16,-1
 1450 808 l 1,17,-1
 1330 808 l 1,18,-1
 1330 162 l 1,19,-1
 1510 114 l 1,20,-1
 1498 0 l 1,21,-1
 866 0 l 1,22,-1
 878 106 l 1,23,-1
 1044 169 l 1,24,-1
 1044 541 l 1,25,-1
 507 541 l 1,26,-1
 507 162 l 1,27,-1
 690 114 l 1,28,-1
 674 0 l 1,29,-1
 45 0 l 1,30,-1
 55 106 l 1,31,-1
 223 169 l 1,32,-1
 223 808 l 1,33,-1
 69 808 l 1,34,-1
 80 968 l 1,35,-1
 223 968 l 1,0,-1
1044 848 m 1,36,-1
 507 848 l 1,37,-1
 507 718 l 1,38,-1
 1044 718 l 1,39,-1
 1044 848 l 1,36,-1
EndSplineSet
EndChar

StartChar: I
Encoding: 73 73 41
Width: 706
VWidth: 0
Flags: HMW
LayerCount: 2
Fore
SplineSet
25 1131 m 1,0,-1
 40 1244 l 1,1,-1
 676 1244 l 1,2,-1
 663 1126 l 1,3,-1
 489 1074 l 1,4,-1
 489 168 l 1,5,-1
 670 120 l 1,6,-1
 658 0 l 1,7,-1
 30 0 l 1,8,-1
 38 108 l 1,9,-1
 210 171 l 1,10,-1
 210 1073 l 1,11,-1
 25 1131 l 1,0,-1
EndSplineSet
EndChar

StartChar: Iacute
Encoding: 205 205 42
Width: 706
VWidth: 0
Flags: HMW
LayerCount: 2
Fore
SplineSet
266 1420 m 1,0,-1
 380 1734 l 1,1,-1
 602 1706 l 1,2,-1
 420 1393 l 1,3,-1
 266 1420 l 1,0,-1
25 1131 m 1,4,-1
 40 1244 l 1,5,-1
 676 1244 l 1,6,-1
 663 1126 l 1,7,-1
 489 1074 l 1,8,-1
 489 168 l 1,9,-1
 670 120 l 1,10,-1
 658 0 l 1,11,-1
 30 0 l 1,12,-1
 38 108 l 1,13,-1
 210 171 l 1,14,-1
 210 1073 l 1,15,-1
 25 1131 l 1,4,-1
EndSplineSet
EndChar

StartChar: Icaron
Encoding: 463 463 43
Width: 706
VWidth: 0
Flags: HMW
LayerCount: 2
Fore
SplineSet
92 1543 m 1,0,-1
 297 1578 l 1,1,-1
 386 1493 l 1,2,-1
 396 1493 l 1,3,-1
 480 1574 l 1,4,-1
 623 1560 l 1,5,-1
 433 1344 l 1,6,-1
 286 1323 l 1,7,-1
 92 1543 l 1,0,-1
25 1131 m 1,8,-1
 40 1244 l 1,9,-1
 676 1244 l 1,10,-1
 663 1126 l 1,11,-1
 489 1074 l 1,12,-1
 489 168 l 1,13,-1
 670 120 l 1,14,-1
 658 0 l 1,15,-1
 30 0 l 1,16,-1
 38 108 l 1,17,-1
 210 171 l 1,18,-1
 210 1073 l 1,19,-1
 25 1131 l 1,8,-1
EndSplineSet
EndChar

StartChar: Icircumflex
Encoding: 206 206 44
Width: 706
VWidth: 0
Flags: HMW
LayerCount: 2
Fore
SplineSet
663 1380 m 1,0,-1
 494 1345 l 1,1,-1
 390 1430 l 1,2,-1
 380 1430 l 1,3,-1
 293 1339 l 1,4,-1
 132 1363 l 1,5,-1
 296 1579 l 1,6,-1
 483 1600 l 1,7,-1
 663 1380 l 1,0,-1
25 1131 m 1,8,-1
 40 1244 l 1,9,-1
 676 1244 l 1,10,-1
 663 1126 l 1,11,-1
 489 1074 l 1,12,-1
 489 168 l 1,13,-1
 670 120 l 1,14,-1
 658 0 l 1,15,-1
 30 0 l 1,16,-1
 38 108 l 1,17,-1
 210 171 l 1,18,-1
 210 1073 l 1,19,-1
 25 1131 l 1,8,-1
EndSplineSet
EndChar

StartChar: Idieresis
Encoding: 207 207 45
Width: 706
VWidth: 0
Flags: HMW
LayerCount: 2
Fore
SplineSet
403 1487 m 128,-1,1
 403 1526 403 1526 430.5 1553.5 c 128,-1,2
 458 1581 458 1581 512 1581 c 128,-1,3
 566 1581 566 1581 594.5 1554 c 128,-1,4
 623 1527 623 1527 623 1487 c 128,-1,5
 623 1447 623 1447 594.5 1419.5 c 128,-1,6
 566 1392 566 1392 511 1392 c 128,-1,7
 456 1392 456 1392 429.5 1420 c 128,-1,0
 403 1448 403 1448 403 1487 c 128,-1,1
94 1487 m 128,-1,9
 94 1526 94 1526 121.5 1553.5 c 128,-1,10
 149 1581 149 1581 203 1581 c 128,-1,11
 257 1581 257 1581 285.5 1554 c 128,-1,12
 314 1527 314 1527 314 1487 c 128,-1,13
 314 1447 314 1447 285.5 1419.5 c 128,-1,14
 257 1392 257 1392 202 1392 c 128,-1,15
 147 1392 147 1392 120.5 1420 c 128,-1,8
 94 1448 94 1448 94 1487 c 128,-1,9
25 1131 m 1,16,-1
 40 1244 l 1,17,-1
 676 1244 l 1,18,-1
 663 1126 l 1,19,-1
 489 1074 l 1,20,-1
 489 168 l 1,21,-1
 670 120 l 1,22,-1
 658 0 l 1,23,-1
 30 0 l 1,24,-1
 38 108 l 1,25,-1
 210 171 l 1,26,-1
 210 1073 l 1,27,-1
 25 1131 l 1,16,-1
EndSplineSet
EndChar

StartChar: Idotaccent
Encoding: 304 304 46
Width: 706
VWidth: 0
Flags: HMW
LayerCount: 2
Fore
SplineSet
191 1528 m 128,-1,1
 191 1584 191 1584 234 1624.5 c 128,-1,2
 277 1665 277 1665 358 1665 c 128,-1,3
 439 1665 439 1665 482 1625.5 c 128,-1,4
 525 1586 525 1586 525 1528.5 c 128,-1,5
 525 1471 525 1471 482 1432 c 128,-1,6
 439 1393 439 1393 355 1393 c 128,-1,7
 271 1393 271 1393 231 1432.5 c 128,-1,0
 191 1472 191 1472 191 1528 c 128,-1,1
25 1131 m 1,8,-1
 40 1244 l 1,9,-1
 676 1244 l 1,10,-1
 663 1126 l 1,11,-1
 489 1074 l 1,12,-1
 489 168 l 1,13,-1
 670 120 l 1,14,-1
 658 0 l 1,15,-1
 30 0 l 1,16,-1
 38 108 l 1,17,-1
 210 171 l 1,18,-1
 210 1073 l 1,19,-1
 25 1131 l 1,8,-1
EndSplineSet
EndChar

StartChar: Igrave
Encoding: 204 204 47
Width: 706
VWidth: 0
Flags: HMW
LayerCount: 2
Fore
SplineSet
118 1728 m 1,0,-1
 335 1766 l 1,1,-1
 475 1426 l 1,2,-1
 318 1393 l 1,3,-1
 118 1728 l 1,0,-1
25 1131 m 1,4,-1
 40 1244 l 1,5,-1
 676 1244 l 1,6,-1
 663 1126 l 1,7,-1
 489 1074 l 1,8,-1
 489 168 l 1,9,-1
 670 120 l 1,10,-1
 658 0 l 1,11,-1
 30 0 l 1,12,-1
 38 108 l 1,13,-1
 210 171 l 1,14,-1
 210 1073 l 1,15,-1
 25 1131 l 1,4,-1
EndSplineSet
EndChar

StartChar: Imacron
Encoding: 298 298 48
Width: 706
VWidth: 0
Flags: HMW
LayerCount: 2
Fore
SplineSet
126 1393 m 1,0,-1
 143 1540 l 1,1,-1
 590 1540 l 1,2,-1
 573 1393 l 1,3,-1
 126 1393 l 1,0,-1
25 1131 m 1,4,-1
 40 1244 l 1,5,-1
 676 1244 l 1,6,-1
 663 1126 l 1,7,-1
 489 1074 l 1,8,-1
 489 168 l 1,9,-1
 670 120 l 1,10,-1
 658 0 l 1,11,-1
 30 0 l 1,12,-1
 38 108 l 1,13,-1
 210 171 l 1,14,-1
 210 1073 l 1,15,-1
 25 1131 l 1,4,-1
EndSplineSet
EndChar

StartChar: Iogonek
Encoding: 302 302 49
Width: 706
VWidth: 0
Flags: HMW
LayerCount: 2
Fore
SplineSet
188 -197 m 0,0,1
 188 -145 188 -145 216 -101.5 c 128,-1,2
 244 -58 244 -58 319 0 c 1,3,-1
 30 0 l 1,4,-1
 38 108 l 1,5,-1
 210 171 l 1,6,-1
 210 1073 l 1,7,-1
 25 1131 l 1,8,-1
 40 1244 l 1,9,-1
 676 1244 l 1,10,-1
 663 1126 l 1,11,-1
 489 1074 l 1,12,-1
 489 168 l 1,13,-1
 670 120 l 1,14,-1
 658 0 l 1,15,-1
 424 0 l 1,16,17
 380 -99 380 -99 395 -172.5 c 128,-1,18
 410 -246 410 -246 495 -308 c 1,19,-1
 466 -380 l 1,20,21
 348 -371 348 -371 268 -321 c 128,-1,22
 188 -271 188 -271 188 -197 c 0,0,1
EndSplineSet
EndChar

StartChar: J
Encoding: 74 74 50
Width: 699
VWidth: 0
Flags: HMW
LayerCount: 2
Fore
SplineSet
218 241 m 2,0,-1
 218 1073 l 1,1,-1
 38 1131 l 1,2,-1
 53 1244 l 1,3,-1
 684 1244 l 1,4,-1
 669 1131 l 1,5,-1
 499 1078 l 1,6,-1
 498 410 l 2,7,8
 498 172 498 172 449 39 c 0,9,10
 400 -94 400 -94 252 -210 c 0,11,12
 187 -262 187 -262 84 -326 c 1,13,-1
 -2 -194 l 1,14,15
 218 -1 218 -1 218 241 c 2,0,-1
EndSplineSet
EndChar

StartChar: K
Encoding: 75 75 51
Width: 1372
VWidth: 0
Flags: HMW
LayerCount: 2
Fore
SplineSet
1358 2 m 1,0,1
 1289 -24 1289 -24 1199 -24 c 0,2,3
 1038 -24 1038 -24 935 63 c 128,-1,4
 832 150 832 150 734 304 c 1,5,-1
 540 594 l 1,6,-1
 542 640 l 1,7,8
 613 717 613 717 650 769 c 2,9,-1
 859 1062 l 1,10,-1
 788 1125 l 1,11,-1
 806 1244 l 1,12,-1
 1312 1244 l 1,13,-1
 1292 1131 l 1,14,-1
 1091 1060 l 1,15,-1
 788 669 l 1,16,-1
 981 428 l 1,17,18
 1148 217 1148 217 1212 173 c 128,-1,19
 1276 129 1276 129 1348 111 c 1,20,-1
 1378 102 l 1,21,-1
 1358 2 l 1,0,1
24 1131 m 1,22,-1
 46 1244 l 1,23,-1
 676 1244 l 1,24,-1
 661 1131 l 1,25,-1
 507 1060 l 1,26,-1
 507 182 l 1,27,-1
 699 114 l 1,28,-1
 688 0 l 1,29,-1
 28 0 l 1,30,-1
 42 106 l 1,31,-1
 228 185 l 1,32,-1
 228 1055 l 1,33,-1
 24 1131 l 1,22,-1
EndSplineSet
EndChar

StartChar: Kcommaaccent
Encoding: 310 310 52
Width: 1372
VWidth: 0
Flags: HMW
LayerCount: 2
Fore
SplineSet
750 -68 m 0,0,1
 827 -68 827 -68 871.5 -106 c 128,-1,2
 916 -144 916 -144 918 -213 c 0,3,4
 921 -318 921 -318 836.5 -368 c 128,-1,5
 752 -418 752 -418 625 -409 c 1,6,-1
 606 -330 l 1,7,8
 655 -335 655 -335 687 -317.5 c 128,-1,9
 719 -300 719 -300 719 -271.5 c 128,-1,10
 719 -243 719 -243 685 -226 c 128,-1,11
 651 -209 651 -209 606 -209 c 1,12,13
 608 -68 608 -68 750 -68 c 0,0,1
1358 2 m 1,14,15
 1289 -24 1289 -24 1199 -24 c 0,16,17
 1038 -24 1038 -24 935 63 c 128,-1,18
 832 150 832 150 734 304 c 1,19,-1
 540 594 l 1,20,-1
 542 640 l 1,21,22
 613 717 613 717 650 769 c 2,23,-1
 859 1062 l 1,24,-1
 788 1125 l 1,25,-1
 806 1244 l 1,26,-1
 1312 1244 l 1,27,-1
 1292 1131 l 1,28,-1
 1091 1060 l 1,29,-1
 788 669 l 1,30,-1
 981 428 l 1,31,32
 1148 217 1148 217 1212 173 c 128,-1,33
 1276 129 1276 129 1348 111 c 1,34,-1
 1378 102 l 1,35,-1
 1358 2 l 1,14,15
24 1131 m 1,36,-1
 46 1244 l 1,37,-1
 676 1244 l 1,38,-1
 661 1131 l 1,39,-1
 507 1060 l 1,40,-1
 507 182 l 1,41,-1
 699 114 l 1,42,-1
 688 0 l 1,43,-1
 28 0 l 1,44,-1
 42 106 l 1,45,-1
 228 185 l 1,46,-1
 228 1055 l 1,47,-1
 24 1131 l 1,36,-1
EndSplineSet
EndChar

StartChar: L
Encoding: 76 76 53
Width: 1149
VWidth: 0
Flags: HMW
LayerCount: 2
Fore
SplineSet
29 0 m 1,0,-1
 42 106 l 1,1,-1
 204 169 l 1,2,-1
 204 1058 l 1,3,-1
 24 1133 l 1,4,-1
 40 1244 l 1,5,-1
 687 1244 l 1,6,-1
 672 1133 l 1,7,-1
 488 1060 l 1,8,-1
 488 148 l 1,9,-1
 844 137 l 1,10,-1
 996 398 l 1,11,-1
 1122 380 l 1,12,-1
 1080 0 l 1,13,-1
 29 0 l 1,0,-1
EndSplineSet
EndChar

StartChar: Lacute
Encoding: 313 313 54
Width: 1149
VWidth: 0
Flags: HMW
LayerCount: 2
Fore
SplineSet
254 1420 m 1,0,-1
 368 1734 l 1,1,-1
 590 1706 l 1,2,-1
 408 1393 l 1,3,-1
 254 1420 l 1,0,-1
29 0 m 1,4,-1
 42 106 l 1,5,-1
 204 169 l 1,6,-1
 204 1058 l 1,7,-1
 24 1133 l 1,8,-1
 40 1244 l 1,9,-1
 687 1244 l 1,10,-1
 672 1133 l 1,11,-1
 488 1060 l 1,12,-1
 488 148 l 1,13,-1
 844 137 l 1,14,-1
 996 398 l 1,15,-1
 1122 380 l 1,16,-1
 1080 0 l 1,17,-1
 29 0 l 1,4,-1
EndSplineSet
EndChar

StartChar: Lcaron
Encoding: 317 317 55
Width: 1149
VWidth: 0
Flags: HMW
LayerCount: 2
Fore
SplineSet
929 920.5 m 128,-1,1
 929 968 929 968 900.5 996 c 128,-1,2
 872 1024 872 1024 839 1024 c 128,-1,3
 806 1024 806 1024 786 1017 c 1,4,5
 763 1063 763 1063 763 1097 c 0,6,7
 763 1168 763 1168 810.5 1208.5 c 128,-1,8
 858 1249 858 1249 939 1249 c 128,-1,9
 1020 1249 1020 1249 1077 1186.5 c 128,-1,10
 1134 1124 1134 1124 1134 1014.5 c 128,-1,11
 1134 905 1134 905 1057.5 799.5 c 128,-1,12
 981 694 981 694 789 656 c 1,13,-1
 756 749 l 1,14,15
 843 774 843 774 886 823.5 c 128,-1,0
 929 873 929 873 929 920.5 c 128,-1,1
29 0 m 1,16,-1
 42 106 l 1,17,-1
 204 169 l 1,18,-1
 204 1058 l 1,19,-1
 24 1133 l 1,20,-1
 40 1244 l 1,21,-1
 687 1244 l 1,22,-1
 672 1133 l 1,23,-1
 488 1060 l 1,24,-1
 488 148 l 1,25,-1
 844 137 l 1,26,-1
 996 398 l 1,27,-1
 1122 380 l 1,28,-1
 1080 0 l 1,29,-1
 29 0 l 1,16,-1
EndSplineSet
EndChar

StartChar: Lcommaaccent
Encoding: 315 315 56
Width: 1149
VWidth: 0
Flags: HMW
LayerCount: 2
Fore
SplineSet
589 -69 m 0,0,1
 666 -69 666 -69 710.5 -107 c 128,-1,2
 755 -145 755 -145 757 -214 c 0,3,4
 760 -319 760 -319 675.5 -369 c 128,-1,5
 591 -419 591 -419 464 -410 c 1,6,-1
 445 -331 l 1,7,8
 494 -336 494 -336 526 -318.5 c 128,-1,9
 558 -301 558 -301 558 -272.5 c 128,-1,10
 558 -244 558 -244 524 -227 c 128,-1,11
 490 -210 490 -210 445 -210 c 1,12,13
 447 -69 447 -69 589 -69 c 0,0,1
29 0 m 1,14,-1
 42 106 l 1,15,-1
 204 169 l 1,16,-1
 204 1058 l 1,17,-1
 24 1133 l 1,18,-1
 40 1244 l 1,19,-1
 687 1244 l 1,20,-1
 672 1133 l 1,21,-1
 488 1060 l 1,22,-1
 488 148 l 1,23,-1
 844 137 l 1,24,-1
 996 398 l 1,25,-1
 1122 380 l 1,26,-1
 1080 0 l 1,27,-1
 29 0 l 1,14,-1
EndSplineSet
EndChar

StartChar: Lslash
Encoding: 321 321 57
Width: 1149
VWidth: 0
Flags: HMW
LayerCount: 2
Fore
SplineSet
58 480 m 1,0,-1
 59 624 l 1,1,-1
 204 684 l 1,2,-1
 204 1058 l 1,3,-1
 24 1133 l 1,4,-1
 40 1244 l 1,5,-1
 687 1244 l 1,6,-1
 672 1133 l 1,7,-1
 488 1060 l 1,8,-1
 488 802 l 1,9,-1
 672 878 l 1,10,-1
 668 737 l 1,11,-1
 488 661 l 1,12,-1
 488 148 l 1,13,-1
 844 137 l 1,14,-1
 996 398 l 1,15,-1
 1122 380 l 1,16,-1
 1080 0 l 1,17,-1
 29 0 l 1,18,-1
 42 106 l 1,19,-1
 204 169 l 1,20,-1
 204 542 l 1,21,-1
 58 480 l 1,0,-1
EndSplineSet
EndChar

StartChar: M
Encoding: 77 77 58
Width: 1752
VWidth: 0
Flags: HMW
LayerCount: 2
Fore
SplineSet
12 0 m 1,0,-1
 28 114 l 1,1,-1
 196 177 l 1,2,-1
 261 1078 l 1,3,-1
 78 1128 l 1,4,-1
 90 1244 l 1,5,-1
 595 1244 l 1,6,-1
 670 1044 l 1,7,-1
 878 426 l 1,8,-1
 1180 1244 l 1,9,-1
 1678 1244 l 1,10,-1
 1664 1128 l 1,11,-1
 1499 1082 l 1,12,-1
 1560 172 l 1,13,-1
 1739 120 l 1,14,-1
 1727 0 l 1,15,-1
 1138 0 l 1,16,-1
 1156 114 l 1,17,-1
 1294 177 l 1,18,-1
 1240 890 l 1,19,-1
 937 40 l 1,20,-1
 732 12 l 1,21,-1
 440 877 l 1,22,-1
 392 172 l 1,23,-1
 548 120 l 1,24,-1
 530 0 l 1,25,-1
 12 0 l 1,0,-1
EndSplineSet
EndChar

StartChar: N
Encoding: 78 78 59
Width: 1396
VWidth: 0
Flags: HMW
LayerCount: 2
Fore
SplineSet
27 1128 m 1,0,-1
 40 1244 l 1,1,-1
 435 1244 l 1,2,-1
 1022 402 l 1,3,-1
 1022 1073 l 1,4,-1
 836 1131 l 1,5,-1
 854 1244 l 1,6,-1
 1380 1244 l 1,7,-1
 1360 1131 l 1,8,-1
 1193 1078 l 1,9,-1
 1193 8 l 1,10,-1
 975 -30 l 1,11,-1
 387 790 l 1,12,-1
 387 162 l 1,13,-1
 568 114 l 1,14,-1
 556 0 l 1,15,-1
 28 0 l 1,16,-1
 38 106 l 1,17,-1
 206 169 l 1,18,-1
 206 1060 l 1,19,-1
 27 1128 l 1,0,-1
EndSplineSet
EndChar

StartChar: Nacute
Encoding: 323 323 60
Width: 1396
VWidth: 0
Flags: HMW
LayerCount: 2
Fore
SplineSet
578 1420 m 1,0,-1
 692 1734 l 1,1,-1
 914 1706 l 1,2,-1
 732 1393 l 1,3,-1
 578 1420 l 1,0,-1
27 1128 m 1,4,-1
 40 1244 l 1,5,-1
 435 1244 l 1,6,-1
 1022 402 l 1,7,-1
 1022 1073 l 1,8,-1
 836 1131 l 1,9,-1
 854 1244 l 1,10,-1
 1380 1244 l 1,11,-1
 1360 1131 l 1,12,-1
 1193 1078 l 1,13,-1
 1193 8 l 1,14,-1
 975 -30 l 1,15,-1
 387 790 l 1,16,-1
 387 162 l 1,17,-1
 568 114 l 1,18,-1
 556 0 l 1,19,-1
 28 0 l 1,20,-1
 38 106 l 1,21,-1
 206 169 l 1,22,-1
 206 1060 l 1,23,-1
 27 1128 l 1,4,-1
EndSplineSet
EndChar

StartChar: Ncaron
Encoding: 327 327 61
Width: 1396
VWidth: 0
Flags: HMW
LayerCount: 2
Fore
SplineSet
444 1543 m 1,0,-1
 649 1578 l 1,1,-1
 738 1493 l 1,2,-1
 748 1493 l 1,3,-1
 832 1574 l 1,4,-1
 975 1560 l 1,5,-1
 785 1344 l 1,6,-1
 638 1323 l 1,7,-1
 444 1543 l 1,0,-1
27 1128 m 1,8,-1
 40 1244 l 1,9,-1
 435 1244 l 1,10,-1
 1022 402 l 1,11,-1
 1022 1073 l 1,12,-1
 836 1131 l 1,13,-1
 854 1244 l 1,14,-1
 1380 1244 l 1,15,-1
 1360 1131 l 1,16,-1
 1193 1078 l 1,17,-1
 1193 8 l 1,18,-1
 975 -30 l 1,19,-1
 387 790 l 1,20,-1
 387 162 l 1,21,-1
 568 114 l 1,22,-1
 556 0 l 1,23,-1
 28 0 l 1,24,-1
 38 106 l 1,25,-1
 206 169 l 1,26,-1
 206 1060 l 1,27,-1
 27 1128 l 1,8,-1
EndSplineSet
EndChar

StartChar: Ncommaaccent
Encoding: 325 325 62
Width: 1396
VWidth: 0
Flags: HMW
LayerCount: 2
Fore
SplineSet
654 -68 m 0,0,1
 731 -68 731 -68 775.5 -106 c 128,-1,2
 820 -144 820 -144 822 -213 c 0,3,4
 825 -318 825 -318 740.5 -368 c 128,-1,5
 656 -418 656 -418 529 -409 c 1,6,-1
 510 -330 l 1,7,8
 559 -335 559 -335 591 -317.5 c 128,-1,9
 623 -300 623 -300 623 -271.5 c 128,-1,10
 623 -243 623 -243 589 -226 c 128,-1,11
 555 -209 555 -209 510 -209 c 1,12,13
 512 -68 512 -68 654 -68 c 0,0,1
27 1128 m 1,14,-1
 40 1244 l 1,15,-1
 435 1244 l 1,16,-1
 1022 402 l 1,17,-1
 1022 1073 l 1,18,-1
 836 1131 l 1,19,-1
 854 1244 l 1,20,-1
 1380 1244 l 1,21,-1
 1360 1131 l 1,22,-1
 1193 1078 l 1,23,-1
 1193 8 l 1,24,-1
 975 -30 l 1,25,-1
 387 790 l 1,26,-1
 387 162 l 1,27,-1
 568 114 l 1,28,-1
 556 0 l 1,29,-1
 28 0 l 1,30,-1
 38 106 l 1,31,-1
 206 169 l 1,32,-1
 206 1060 l 1,33,-1
 27 1128 l 1,14,-1
EndSplineSet
EndChar

StartChar: Ntilde
Encoding: 209 209 63
Width: 1396
VWidth: 0
Flags: HMW
LayerCount: 2
Fore
SplineSet
431 1396 m 1,0,1
 424 1440 424 1440 447.5 1489 c 128,-1,2
 471 1538 471 1538 494 1564 c 0,3,4
 547 1624 547 1624 634 1604 c 2,5,-1
 840 1555 l 2,6,7
 873 1547 873 1547 903 1601 c 1,8,-1
 985 1595 l 1,9,10
 984 1526 984 1526 928 1450 c 0,11,12
 902 1414 902 1414 857 1397 c 128,-1,13
 812 1380 812 1380 759 1393 c 2,14,-1
 572 1439 l 1,15,16
 535 1447 535 1447 513 1383 c 1,17,-1
 431 1396 l 1,0,1
27 1128 m 1,18,-1
 40 1244 l 1,19,-1
 435 1244 l 1,20,-1
 1022 402 l 1,21,-1
 1022 1073 l 1,22,-1
 836 1131 l 1,23,-1
 854 1244 l 1,24,-1
 1380 1244 l 1,25,-1
 1360 1131 l 1,26,-1
 1193 1078 l 1,27,-1
 1193 8 l 1,28,-1
 975 -30 l 1,29,-1
 387 790 l 1,30,-1
 387 162 l 1,31,-1
 568 114 l 1,32,-1
 556 0 l 1,33,-1
 28 0 l 1,34,-1
 38 106 l 1,35,-1
 206 169 l 1,36,-1
 206 1060 l 1,37,-1
 27 1128 l 1,18,-1
EndSplineSet
EndChar

StartChar: O
Encoding: 79 79 64
Width: 1402
VWidth: 0
Flags: HMW
LayerCount: 2
Fore
SplineSet
366 697 m 0,0,1
 366 380 366 380 504 216 c 0,2,3
 584 121 584 121 711 121 c 0,4,5
 1030 121 1030 121 1030 573 c 0,6,7
 1030 684 1030 684 1008 782 c 0,8,9
 972 939 972 939 892.5 1037 c 128,-1,10
 813 1135 813 1135 682 1135 c 0,11,12
 504 1135 504 1135 435 1007.5 c 128,-1,13
 366 880 366 880 366 697 c 0,0,1
716 1270 m 128,-1,15
 1022 1270 1022 1270 1187.5 1098 c 128,-1,16
 1353 926 1353 926 1353 627 c 128,-1,17
 1353 328 1353 328 1164.5 150.5 c 128,-1,18
 976 -27 976 -27 667.5 -27 c 128,-1,19
 359 -27 359 -27 204.5 153.5 c 128,-1,20
 50 334 50 334 50 623.5 c 128,-1,21
 50 913 50 913 230 1091.5 c 128,-1,14
 410 1270 410 1270 716 1270 c 128,-1,15
EndSplineSet
EndChar

StartChar: OE
Encoding: 338 338 65
Width: 1770
VWidth: 0
Flags: HMW
LayerCount: 2
Fore
SplineSet
641 137 m 128,-1,1
 709 137 709 137 784 181 c 1,2,-1
 784 1092 l 1,3,4
 688 1140 688 1140 608 1140 c 0,5,6
 486 1140 486 1140 426 1030 c 128,-1,7
 366 920 366 920 366 673.5 c 128,-1,8
 366 427 366 427 446 270 c 0,9,10
 475 213 475 213 524 175 c 128,-1,0
 573 137 573 137 641 137 c 128,-1,1
32 596 m 0,11,12
 32 922 32 922 176 1096 c 128,-1,13
 320 1270 320 1270 634 1270 c 0,14,15
 745 1270 745 1270 826 1242 c 1,16,-1
 1684 1244 l 1,17,-1
 1654 875 l 1,18,-1
 1525 894 l 1,19,-1
 1464 1112 l 1,20,-1
 1064 1112 l 1,21,-1
 1064 694 l 1,22,-1
 1304 702 l 1,23,-1
 1334 763 l 1,24,-1
 1494 780 l 1,25,-1
 1461 462 l 1,26,-1
 1310 465 l 1,27,-1
 1284 554 l 1,28,-1
 1064 562 l 1,29,-1
 1064 137 l 1,30,-1
 1504 138 l 1,31,-1
 1626 377 l 1,32,-1
 1750 362 l 1,33,-1
 1720 0 l 1,34,-1
 780 0 l 1,35,36
 677 -27 677 -27 563 -27 c 0,37,38
 387 -27 387 -27 266.5 54 c 128,-1,39
 146 135 146 135 89 278.5 c 128,-1,40
 32 422 32 422 32 596 c 0,11,12
EndSplineSet
EndChar

StartChar: Oacute
Encoding: 211 211 66
Width: 1402
VWidth: 0
Flags: HMW
LayerCount: 2
Fore
SplineSet
638 1420 m 1,0,-1
 752 1734 l 1,1,-1
 974 1706 l 1,2,-1
 792 1393 l 1,3,-1
 638 1420 l 1,0,-1
366 697 m 0,4,5
 366 380 366 380 504 216 c 0,6,7
 584 121 584 121 711 121 c 0,8,9
 1030 121 1030 121 1030 573 c 0,10,11
 1030 684 1030 684 1008 782 c 0,12,13
 972 939 972 939 892.5 1037 c 128,-1,14
 813 1135 813 1135 682 1135 c 0,15,16
 504 1135 504 1135 435 1007.5 c 128,-1,17
 366 880 366 880 366 697 c 0,4,5
716 1270 m 128,-1,19
 1022 1270 1022 1270 1187.5 1098 c 128,-1,20
 1353 926 1353 926 1353 627 c 128,-1,21
 1353 328 1353 328 1164.5 150.5 c 128,-1,22
 976 -27 976 -27 667.5 -27 c 128,-1,23
 359 -27 359 -27 204.5 153.5 c 128,-1,24
 50 334 50 334 50 623.5 c 128,-1,25
 50 913 50 913 230 1091.5 c 128,-1,18
 410 1270 410 1270 716 1270 c 128,-1,19
EndSplineSet
EndChar

StartChar: Ocaron
Encoding: 465 465 67
Width: 1402
VWidth: 0
Flags: HMW
LayerCount: 2
Fore
SplineSet
464 1543 m 1,0,-1
 669 1578 l 1,1,-1
 758 1493 l 1,2,-1
 768 1493 l 1,3,-1
 852 1574 l 1,4,-1
 995 1560 l 1,5,-1
 805 1344 l 1,6,-1
 658 1323 l 1,7,-1
 464 1543 l 1,0,-1
366 697 m 0,8,9
 366 380 366 380 504 216 c 0,10,11
 584 121 584 121 711 121 c 0,12,13
 1030 121 1030 121 1030 573 c 0,14,15
 1030 684 1030 684 1008 782 c 0,16,17
 972 939 972 939 892.5 1037 c 128,-1,18
 813 1135 813 1135 682 1135 c 0,19,20
 504 1135 504 1135 435 1007.5 c 128,-1,21
 366 880 366 880 366 697 c 0,8,9
716 1270 m 128,-1,23
 1022 1270 1022 1270 1187.5 1098 c 128,-1,24
 1353 926 1353 926 1353 627 c 128,-1,25
 1353 328 1353 328 1164.5 150.5 c 128,-1,26
 976 -27 976 -27 667.5 -27 c 128,-1,27
 359 -27 359 -27 204.5 153.5 c 128,-1,28
 50 334 50 334 50 623.5 c 128,-1,29
 50 913 50 913 230 1091.5 c 128,-1,22
 410 1270 410 1270 716 1270 c 128,-1,23
EndSplineSet
EndChar

StartChar: Ocircumflex
Encoding: 212 212 68
Width: 1402
VWidth: 0
Flags: HMW
LayerCount: 2
Fore
SplineSet
974 1380 m 1,0,-1
 805 1345 l 1,1,-1
 701 1430 l 1,2,-1
 691 1430 l 1,3,-1
 604 1339 l 1,4,-1
 443 1363 l 1,5,-1
 607 1579 l 1,6,-1
 794 1600 l 1,7,-1
 974 1380 l 1,0,-1
366 697 m 0,8,9
 366 380 366 380 504 216 c 0,10,11
 584 121 584 121 711 121 c 0,12,13
 1030 121 1030 121 1030 573 c 0,14,15
 1030 684 1030 684 1008 782 c 0,16,17
 972 939 972 939 892.5 1037 c 128,-1,18
 813 1135 813 1135 682 1135 c 0,19,20
 504 1135 504 1135 435 1007.5 c 128,-1,21
 366 880 366 880 366 697 c 0,8,9
716 1270 m 128,-1,23
 1022 1270 1022 1270 1187.5 1098 c 128,-1,24
 1353 926 1353 926 1353 627 c 128,-1,25
 1353 328 1353 328 1164.5 150.5 c 128,-1,26
 976 -27 976 -27 667.5 -27 c 128,-1,27
 359 -27 359 -27 204.5 153.5 c 128,-1,28
 50 334 50 334 50 623.5 c 128,-1,29
 50 913 50 913 230 1091.5 c 128,-1,22
 410 1270 410 1270 716 1270 c 128,-1,23
EndSplineSet
EndChar

StartChar: Odieresis
Encoding: 214 214 69
Width: 1402
VWidth: 0
Flags: HMW
LayerCount: 2
Fore
SplineSet
774 1487 m 128,-1,1
 774 1526 774 1526 801.5 1553.5 c 128,-1,2
 829 1581 829 1581 883 1581 c 128,-1,3
 937 1581 937 1581 965.5 1554 c 128,-1,4
 994 1527 994 1527 994 1487 c 128,-1,5
 994 1447 994 1447 965.5 1419.5 c 128,-1,6
 937 1392 937 1392 882 1392 c 128,-1,7
 827 1392 827 1392 800.5 1420 c 128,-1,0
 774 1448 774 1448 774 1487 c 128,-1,1
465 1487 m 128,-1,9
 465 1526 465 1526 492.5 1553.5 c 128,-1,10
 520 1581 520 1581 574 1581 c 128,-1,11
 628 1581 628 1581 656.5 1554 c 128,-1,12
 685 1527 685 1527 685 1487 c 128,-1,13
 685 1447 685 1447 656.5 1419.5 c 128,-1,14
 628 1392 628 1392 573 1392 c 128,-1,15
 518 1392 518 1392 491.5 1420 c 128,-1,8
 465 1448 465 1448 465 1487 c 128,-1,9
366 697 m 0,16,17
 366 380 366 380 504 216 c 0,18,19
 584 121 584 121 711 121 c 0,20,21
 1030 121 1030 121 1030 573 c 0,22,23
 1030 684 1030 684 1008 782 c 0,24,25
 972 939 972 939 892.5 1037 c 128,-1,26
 813 1135 813 1135 682 1135 c 0,27,28
 504 1135 504 1135 435 1007.5 c 128,-1,29
 366 880 366 880 366 697 c 0,16,17
716 1270 m 128,-1,31
 1022 1270 1022 1270 1187.5 1098 c 128,-1,32
 1353 926 1353 926 1353 627 c 128,-1,33
 1353 328 1353 328 1164.5 150.5 c 128,-1,34
 976 -27 976 -27 667.5 -27 c 128,-1,35
 359 -27 359 -27 204.5 153.5 c 128,-1,36
 50 334 50 334 50 623.5 c 128,-1,37
 50 913 50 913 230 1091.5 c 128,-1,30
 410 1270 410 1270 716 1270 c 128,-1,31
EndSplineSet
EndChar

StartChar: Ograve
Encoding: 210 210 70
Width: 1402
VWidth: 0
Flags: HMW
LayerCount: 2
Fore
SplineSet
489 1728 m 1,0,-1
 706 1766 l 1,1,-1
 846 1426 l 1,2,-1
 689 1393 l 1,3,-1
 489 1728 l 1,0,-1
366 697 m 0,4,5
 366 380 366 380 504 216 c 0,6,7
 584 121 584 121 711 121 c 0,8,9
 1030 121 1030 121 1030 573 c 0,10,11
 1030 684 1030 684 1008 782 c 0,12,13
 972 939 972 939 892.5 1037 c 128,-1,14
 813 1135 813 1135 682 1135 c 0,15,16
 504 1135 504 1135 435 1007.5 c 128,-1,17
 366 880 366 880 366 697 c 0,4,5
716 1270 m 128,-1,19
 1022 1270 1022 1270 1187.5 1098 c 128,-1,20
 1353 926 1353 926 1353 627 c 128,-1,21
 1353 328 1353 328 1164.5 150.5 c 128,-1,22
 976 -27 976 -27 667.5 -27 c 128,-1,23
 359 -27 359 -27 204.5 153.5 c 128,-1,24
 50 334 50 334 50 623.5 c 128,-1,25
 50 913 50 913 230 1091.5 c 128,-1,18
 410 1270 410 1270 716 1270 c 128,-1,19
EndSplineSet
EndChar

StartChar: Ohungarumlaut
Encoding: 336 336 71
Width: 1402
VWidth: 0
Flags: HMW
LayerCount: 2
Fore
SplineSet
669 1428 m 1,0,-1
 921 1654 l 1,1,-1
 1112 1618 l 1,2,-1
 810 1403 l 1,3,-1
 669 1428 l 1,0,-1
404 1428 m 1,4,-1
 671 1659 l 1,5,-1
 860 1624 l 1,6,-1
 548 1403 l 1,7,-1
 404 1428 l 1,4,-1
366 697 m 0,8,9
 366 380 366 380 504 216 c 0,10,11
 584 121 584 121 711 121 c 0,12,13
 1030 121 1030 121 1030 573 c 0,14,15
 1030 684 1030 684 1008 782 c 0,16,17
 972 939 972 939 892.5 1037 c 128,-1,18
 813 1135 813 1135 682 1135 c 0,19,20
 504 1135 504 1135 435 1007.5 c 128,-1,21
 366 880 366 880 366 697 c 0,8,9
716 1270 m 128,-1,23
 1022 1270 1022 1270 1187.5 1098 c 128,-1,24
 1353 926 1353 926 1353 627 c 128,-1,25
 1353 328 1353 328 1164.5 150.5 c 128,-1,26
 976 -27 976 -27 667.5 -27 c 128,-1,27
 359 -27 359 -27 204.5 153.5 c 128,-1,28
 50 334 50 334 50 623.5 c 128,-1,29
 50 913 50 913 230 1091.5 c 128,-1,22
 410 1270 410 1270 716 1270 c 128,-1,23
EndSplineSet
EndChar

StartChar: Omacron
Encoding: 332 332 72
Width: 1402
VWidth: 0
Flags: HMW
LayerCount: 2
Fore
SplineSet
497 1393 m 1,0,-1
 514 1540 l 1,1,-1
 961 1540 l 1,2,-1
 944 1393 l 1,3,-1
 497 1393 l 1,0,-1
366 697 m 0,4,5
 366 380 366 380 504 216 c 0,6,7
 584 121 584 121 711 121 c 0,8,9
 1030 121 1030 121 1030 573 c 0,10,11
 1030 684 1030 684 1008 782 c 0,12,13
 972 939 972 939 892.5 1037 c 128,-1,14
 813 1135 813 1135 682 1135 c 0,15,16
 504 1135 504 1135 435 1007.5 c 128,-1,17
 366 880 366 880 366 697 c 0,4,5
716 1270 m 128,-1,19
 1022 1270 1022 1270 1187.5 1098 c 128,-1,20
 1353 926 1353 926 1353 627 c 128,-1,21
 1353 328 1353 328 1164.5 150.5 c 128,-1,22
 976 -27 976 -27 667.5 -27 c 128,-1,23
 359 -27 359 -27 204.5 153.5 c 128,-1,24
 50 334 50 334 50 623.5 c 128,-1,25
 50 913 50 913 230 1091.5 c 128,-1,18
 410 1270 410 1270 716 1270 c 128,-1,19
EndSplineSet
EndChar

StartChar: Oslash
Encoding: 216 216 73
Width: 1402
VWidth: 0
Flags: HMW
LayerCount: 2
Fore
SplineSet
736 1270 m 0,0,1
 891 1270 891 1270 1016 1220 c 1,2,-1
 1074 1293 l 1,3,-1
 1271 1272 l 1,4,-1
 1162 1135 l 1,5,6
 1379 960 1379 960 1379 616 c 0,7,8
 1379 330 1379 330 1181.5 151.5 c 128,-1,9
 984 -27 984 -27 666 -27 c 0,10,11
 508 -27 508 -27 382 28 c 1,12,-1
 320 -60 l 1,13,-1
 124 -34 l 1,14,-1
 234 121 l 1,15,16
 35 298 35 298 35.5 604.5 c 128,-1,17
 36 911 36 911 225 1090.5 c 128,-1,18
 414 1270 414 1270 736 1270 c 0,0,1
717 121 m 0,19,20
 1036 121 1036 121 1036 573 c 0,21,22
 1036 782 1036 782 962 938 c 1,23,-1
 499 229 l 1,24,25
 586 121 586 121 717 121 c 0,19,20
688 1135 m 0,26,27
 510 1135 510 1135 441 1007.5 c 128,-1,28
 372 880 372 880 372 671 c 128,-1,29
 372 462 372 462 449 308 c 1,30,-1
 915 1016 l 1,31,32
 826 1135 826 1135 688 1135 c 0,26,27
EndSplineSet
EndChar

StartChar: Otilde
Encoding: 213 213 74
Width: 1402
VWidth: 0
Flags: HMW
LayerCount: 2
Fore
SplineSet
451 1396 m 1,0,1
 444 1440 444 1440 467.5 1489 c 128,-1,2
 491 1538 491 1538 514 1564 c 0,3,4
 567 1624 567 1624 654 1604 c 2,5,-1
 860 1555 l 2,6,7
 893 1547 893 1547 923 1601 c 1,8,-1
 1005 1595 l 1,9,10
 1004 1526 1004 1526 948 1450 c 0,11,12
 922 1414 922 1414 877 1397 c 128,-1,13
 832 1380 832 1380 779 1393 c 2,14,-1
 592 1439 l 1,15,16
 555 1447 555 1447 533 1383 c 1,17,-1
 451 1396 l 1,0,1
366 697 m 0,18,19
 366 380 366 380 504 216 c 0,20,21
 584 121 584 121 711 121 c 0,22,23
 1030 121 1030 121 1030 573 c 0,24,25
 1030 684 1030 684 1008 782 c 0,26,27
 972 939 972 939 892.5 1037 c 128,-1,28
 813 1135 813 1135 682 1135 c 0,29,30
 504 1135 504 1135 435 1007.5 c 128,-1,31
 366 880 366 880 366 697 c 0,18,19
716 1270 m 128,-1,33
 1022 1270 1022 1270 1187.5 1098 c 128,-1,34
 1353 926 1353 926 1353 627 c 128,-1,35
 1353 328 1353 328 1164.5 150.5 c 128,-1,36
 976 -27 976 -27 667.5 -27 c 128,-1,37
 359 -27 359 -27 204.5 153.5 c 128,-1,38
 50 334 50 334 50 623.5 c 128,-1,39
 50 913 50 913 230 1091.5 c 128,-1,32
 410 1270 410 1270 716 1270 c 128,-1,33
EndSplineSet
EndChar

StartChar: P
Encoding: 80 80 75
Width: 1136
VWidth: 0
Flags: HMW
LayerCount: 2
Fore
SplineSet
612 1261 m 0,0,1
 904 1261 904 1261 1025 1148 c 0,2,3
 1120 1059 1120 1059 1120 885.5 c 128,-1,4
 1120 712 1120 712 982 591 c 128,-1,5
 844 470 844 470 641 470 c 0,6,7
 610 470 610 470 550 474 c 1,8,-1
 526 602 l 1,9,-1
 562 603 l 1,10,11
 696 605 696 605 764 669 c 128,-1,12
 832 733 832 733 832 849 c 128,-1,13
 832 965 832 965 768 1039 c 128,-1,14
 704 1113 704 1113 576 1113 c 0,15,16
 534 1113 534 1113 492 1106 c 1,17,-1
 492 178 l 1,18,-1
 730 120 l 1,19,-1
 712 0 l 1,20,-1
 25 0 l 1,21,-1
 42 106 l 1,22,-1
 218 169 l 1,23,-1
 218 1056 l 1,24,-1
 38 1093 l 1,25,-1
 50 1211 l 1,26,27
 381 1261 381 1261 612 1261 c 0,0,1
EndSplineSet
EndChar

StartChar: Q
Encoding: 81 81 76
Width: 1404
VWidth: 0
Flags: HMW
LayerCount: 2
Fore
SplineSet
680 1131 m 0,0,1
 359 1131 359 1131 359 675 c 0,2,3
 358 418 358 418 494 252 c 0,4,5
 540 195 540 195 614.5 155.5 c 128,-1,6
 689 116 689 116 780 108 c 1,7,8
 935 162 935 162 985.5 281 c 128,-1,9
 1036 400 1036 400 1036 568 c 0,10,11
 1036 830 1036 830 917 1002 c 0,12,13
 877 1060 877 1060 815.5 1095.5 c 128,-1,14
 754 1131 754 1131 680 1131 c 0,0,1
50 586.5 m 128,-1,16
 50 752 50 752 98.5 874 c 128,-1,17
 147 996 147 996 235 1083.5 c 128,-1,18
 323 1171 323 1171 452.5 1220.5 c 128,-1,19
 582 1270 582 1270 738 1270 c 0,20,21
 1028 1270 1028 1270 1191.5 1099.5 c 128,-1,22
 1355 929 1355 929 1355 626 c 0,23,24
 1355 399 1355 399 1232.5 229 c 128,-1,25
 1110 59 1110 59 906 5 c 1,26,27
 952 -91 952 -91 1056 -148.5 c 128,-1,28
 1160 -206 1160 -206 1339 -238 c 1,29,30
 1339 -247 1339 -247 1332.5 -291.5 c 128,-1,31
 1326 -336 1326 -336 1324 -343 c 1,32,33
 1220 -384 1220 -384 1104.5 -384 c 128,-1,34
 989 -384 989 -384 903 -345.5 c 128,-1,35
 817 -307 817 -307 763.5 -223.5 c 128,-1,36
 710 -140 710 -140 714 -24 c 1,37,38
 693 -27 693 -27 662 -27 c 0,39,40
 469 -27 469 -27 329.5 55 c 128,-1,41
 190 137 190 137 120 279 c 128,-1,15
 50 421 50 421 50 586.5 c 128,-1,16
EndSplineSet
EndChar

StartChar: R
Encoding: 82 82 77
Width: 1332
VWidth: 0
Flags: HMW
LayerCount: 2
Fore
SplineSet
500 648 m 1,0,-1
 675 648 l 1,1,2
 834 717 834 717 834 874 c 0,3,4
 834 981 834 981 764 1051.5 c 128,-1,5
 694 1122 694 1122 576 1122 c 1,6,-1
 500 1119 l 1,7,-1
 500 648 l 1,0,-1
1138 926 m 0,8,9
 1138 813 1138 813 1055.5 717 c 128,-1,10
 973 621 973 621 857 580 c 1,11,-1
 1008 374 l 2,12,13
 1142 191 1142 191 1225 145 c 0,14,15
 1265 123 1265 123 1314 110 c 2,16,-1
 1350 100 l 1,17,-1
 1327 0 l 1,18,19
 1253 -24 1253 -24 1158 -24 c 0,20,21
 1016 -24 1016 -24 919 52 c 128,-1,22
 822 128 822 128 748 268 c 1,23,-1
 624 498 l 1,24,-1
 500 498 l 1,25,-1
 500 178 l 1,26,-1
 665 119 l 1,27,-1
 654 0 l 1,28,-1
 25 0 l 1,29,-1
 40 106 l 1,30,-1
 218 169 l 1,31,-1
 218 1048 l 1,32,-1
 37 1086 l 1,33,-1
 48 1205 l 1,34,35
 355 1254 355 1254 608.5 1254 c 128,-1,36
 862 1254 862 1254 1000 1178.5 c 128,-1,37
 1138 1103 1138 1103 1138 926 c 0,8,9
EndSplineSet
EndChar

StartChar: Racute
Encoding: 340 340 78
Width: 1332
VWidth: 0
Flags: HMW
LayerCount: 2
Fore
SplineSet
502 1420 m 1,0,-1
 616 1734 l 1,1,-1
 838 1706 l 1,2,-1
 656 1393 l 1,3,-1
 502 1420 l 1,0,-1
500 648 m 1,4,-1
 675 648 l 1,5,6
 834 717 834 717 834 874 c 0,7,8
 834 981 834 981 764 1051.5 c 128,-1,9
 694 1122 694 1122 576 1122 c 1,10,-1
 500 1119 l 1,11,-1
 500 648 l 1,4,-1
1138 926 m 0,12,13
 1138 813 1138 813 1055.5 717 c 128,-1,14
 973 621 973 621 857 580 c 1,15,-1
 1008 374 l 2,16,17
 1142 191 1142 191 1225 145 c 0,18,19
 1265 123 1265 123 1314 110 c 2,20,-1
 1350 100 l 1,21,-1
 1327 0 l 1,22,23
 1253 -24 1253 -24 1158 -24 c 0,24,25
 1016 -24 1016 -24 919 52 c 128,-1,26
 822 128 822 128 748 268 c 1,27,-1
 624 498 l 1,28,-1
 500 498 l 1,29,-1
 500 178 l 1,30,-1
 665 119 l 1,31,-1
 654 0 l 1,32,-1
 25 0 l 1,33,-1
 40 106 l 1,34,-1
 218 169 l 1,35,-1
 218 1048 l 1,36,-1
 37 1086 l 1,37,-1
 48 1205 l 1,38,39
 355 1254 355 1254 608.5 1254 c 128,-1,40
 862 1254 862 1254 1000 1178.5 c 128,-1,41
 1138 1103 1138 1103 1138 926 c 0,12,13
EndSplineSet
EndChar

StartChar: Rcaron
Encoding: 344 344 79
Width: 1332
VWidth: 0
Flags: HMW
LayerCount: 2
Fore
SplineSet
328 1543 m 1,0,-1
 533 1578 l 1,1,-1
 622 1493 l 1,2,-1
 632 1493 l 1,3,-1
 716 1574 l 1,4,-1
 859 1560 l 1,5,-1
 669 1344 l 1,6,-1
 522 1323 l 1,7,-1
 328 1543 l 1,0,-1
500 648 m 1,8,-1
 675 648 l 1,9,10
 834 717 834 717 834 874 c 0,11,12
 834 981 834 981 764 1051.5 c 128,-1,13
 694 1122 694 1122 576 1122 c 1,14,-1
 500 1119 l 1,15,-1
 500 648 l 1,8,-1
1138 926 m 0,16,17
 1138 813 1138 813 1055.5 717 c 128,-1,18
 973 621 973 621 857 580 c 1,19,-1
 1008 374 l 2,20,21
 1142 191 1142 191 1225 145 c 0,22,23
 1265 123 1265 123 1314 110 c 2,24,-1
 1350 100 l 1,25,-1
 1327 0 l 1,26,27
 1253 -24 1253 -24 1158 -24 c 0,28,29
 1016 -24 1016 -24 919 52 c 128,-1,30
 822 128 822 128 748 268 c 1,31,-1
 624 498 l 1,32,-1
 500 498 l 1,33,-1
 500 178 l 1,34,-1
 665 119 l 1,35,-1
 654 0 l 1,36,-1
 25 0 l 1,37,-1
 40 106 l 1,38,-1
 218 169 l 1,39,-1
 218 1048 l 1,40,-1
 37 1086 l 1,41,-1
 48 1205 l 1,42,43
 355 1254 355 1254 608.5 1254 c 128,-1,44
 862 1254 862 1254 1000 1178.5 c 128,-1,45
 1138 1103 1138 1103 1138 926 c 0,16,17
EndSplineSet
EndChar

StartChar: Rcommaaccent
Encoding: 342 342 80
Width: 1332
VWidth: 0
Flags: HMW
LayerCount: 2
Fore
SplineSet
738 -52 m 0,0,1
 815 -52 815 -52 859.5 -90 c 128,-1,2
 904 -128 904 -128 906 -197 c 0,3,4
 909 -302 909 -302 824.5 -352 c 128,-1,5
 740 -402 740 -402 613 -393 c 1,6,-1
 594 -314 l 1,7,8
 643 -319 643 -319 675 -301.5 c 128,-1,9
 707 -284 707 -284 707 -255.5 c 128,-1,10
 707 -227 707 -227 673 -210 c 128,-1,11
 639 -193 639 -193 594 -193 c 1,12,13
 596 -52 596 -52 738 -52 c 0,0,1
500 648 m 1,14,-1
 675 648 l 1,15,16
 834 717 834 717 834 874 c 0,17,18
 834 981 834 981 764 1051.5 c 128,-1,19
 694 1122 694 1122 576 1122 c 1,20,-1
 500 1119 l 1,21,-1
 500 648 l 1,14,-1
1138 926 m 0,22,23
 1138 813 1138 813 1055.5 717 c 128,-1,24
 973 621 973 621 857 580 c 1,25,-1
 1008 374 l 2,26,27
 1142 191 1142 191 1225 145 c 0,28,29
 1265 123 1265 123 1314 110 c 2,30,-1
 1350 100 l 1,31,-1
 1327 0 l 1,32,33
 1253 -24 1253 -24 1158 -24 c 0,34,35
 1016 -24 1016 -24 919 52 c 128,-1,36
 822 128 822 128 748 268 c 1,37,-1
 624 498 l 1,38,-1
 500 498 l 1,39,-1
 500 178 l 1,40,-1
 665 119 l 1,41,-1
 654 0 l 1,42,-1
 25 0 l 1,43,-1
 40 106 l 1,44,-1
 218 169 l 1,45,-1
 218 1048 l 1,46,-1
 37 1086 l 1,47,-1
 48 1205 l 1,48,49
 355 1254 355 1254 608.5 1254 c 128,-1,50
 862 1254 862 1254 1000 1178.5 c 128,-1,51
 1138 1103 1138 1103 1138 926 c 0,22,23
EndSplineSet
EndChar

StartChar: S
Encoding: 83 83 81
Width: 934
VWidth: 0
Flags: HMW
LayerCount: 2
Fore
SplineSet
456 129 m 128,-1,1
 526 129 526 129 580 171 c 128,-1,2
 634 213 634 213 634 271.5 c 128,-1,3
 634 330 634 330 601.5 368 c 128,-1,4
 569 406 569 406 517.5 434 c 128,-1,5
 466 462 466 462 404 490 c 0,6,7
 250 561 250 561 166 632 c 0,8,9
 50 729 50 729 49 886 c 0,10,11
 49 1102 49 1102 252 1207 c 0,12,13
 370 1268 370 1268 514 1268 c 0,14,15
 598 1268 598 1268 691.5 1241 c 128,-1,16
 785 1214 785 1214 832 1172 c 1,17,-1
 806 850 l 1,18,-1
 670 872 l 1,19,-1
 638 1038 l 1,20,21
 614 1077 614 1077 558.5 1106.5 c 128,-1,22
 503 1136 503 1136 442 1136 c 128,-1,23
 381 1136 381 1136 341.5 1098.5 c 128,-1,24
 302 1061 302 1061 302 1002 c 128,-1,25
 302 943 302 943 336 903 c 128,-1,26
 370 863 370 863 425 832.5 c 128,-1,27
 480 802 480 802 546 772 c 0,28,29
 709 698 709 698 800 625 c 0,30,31
 923 527 923 527 923 368 c 0,32,33
 924 148 924 148 692 36 c 0,34,35
 566 -24 566 -24 429 -24 c 128,-1,36
 292 -24 292 -24 185.5 18 c 128,-1,37
 79 60 79 60 33 124 c 1,38,-1
 56 438 l 1,39,-1
 196 417 l 1,40,-1
 236 230 l 1,41,42
 266 186 266 186 326 157.5 c 128,-1,0
 386 129 386 129 456 129 c 128,-1,1
EndSplineSet
EndChar

StartChar: Sacute
Encoding: 346 346 82
Width: 934
VWidth: 0
Flags: HMW
LayerCount: 2
Fore
SplineSet
422 1420 m 1,0,-1
 536 1734 l 1,1,-1
 758 1706 l 1,2,-1
 576 1393 l 1,3,-1
 422 1420 l 1,0,-1
456 129 m 128,-1,5
 526 129 526 129 580 171 c 128,-1,6
 634 213 634 213 634 271.5 c 128,-1,7
 634 330 634 330 601.5 368 c 128,-1,8
 569 406 569 406 517.5 434 c 128,-1,9
 466 462 466 462 404 490 c 0,10,11
 250 561 250 561 166 632 c 0,12,13
 50 729 50 729 49 886 c 0,14,15
 49 1102 49 1102 252 1207 c 0,16,17
 370 1268 370 1268 514 1268 c 0,18,19
 598 1268 598 1268 691.5 1241 c 128,-1,20
 785 1214 785 1214 832 1172 c 1,21,-1
 806 850 l 1,22,-1
 670 872 l 1,23,-1
 638 1038 l 1,24,25
 614 1077 614 1077 558.5 1106.5 c 128,-1,26
 503 1136 503 1136 442 1136 c 128,-1,27
 381 1136 381 1136 341.5 1098.5 c 128,-1,28
 302 1061 302 1061 302 1002 c 128,-1,29
 302 943 302 943 336 903 c 128,-1,30
 370 863 370 863 425 832.5 c 128,-1,31
 480 802 480 802 546 772 c 0,32,33
 709 698 709 698 800 625 c 0,34,35
 923 527 923 527 923 368 c 0,36,37
 924 148 924 148 692 36 c 0,38,39
 566 -24 566 -24 429 -24 c 128,-1,40
 292 -24 292 -24 185.5 18 c 128,-1,41
 79 60 79 60 33 124 c 1,42,-1
 56 438 l 1,43,-1
 196 417 l 1,44,-1
 236 230 l 1,45,46
 266 186 266 186 326 157.5 c 128,-1,4
 386 129 386 129 456 129 c 128,-1,5
EndSplineSet
EndChar

StartChar: Scaron
Encoding: 352 352 83
Width: 934
VWidth: 0
Flags: HMW
LayerCount: 2
Fore
SplineSet
248 1543 m 1,0,-1
 453 1578 l 1,1,-1
 542 1493 l 1,2,-1
 552 1493 l 1,3,-1
 636 1574 l 1,4,-1
 779 1560 l 1,5,-1
 589 1344 l 1,6,-1
 442 1323 l 1,7,-1
 248 1543 l 1,0,-1
456 129 m 128,-1,9
 526 129 526 129 580 171 c 128,-1,10
 634 213 634 213 634 271.5 c 128,-1,11
 634 330 634 330 601.5 368 c 128,-1,12
 569 406 569 406 517.5 434 c 128,-1,13
 466 462 466 462 404 490 c 0,14,15
 250 561 250 561 166 632 c 0,16,17
 50 729 50 729 49 886 c 0,18,19
 49 1102 49 1102 252 1207 c 0,20,21
 370 1268 370 1268 514 1268 c 0,22,23
 598 1268 598 1268 691.5 1241 c 128,-1,24
 785 1214 785 1214 832 1172 c 1,25,-1
 806 850 l 1,26,-1
 670 872 l 1,27,-1
 638 1038 l 1,28,29
 614 1077 614 1077 558.5 1106.5 c 128,-1,30
 503 1136 503 1136 442 1136 c 128,-1,31
 381 1136 381 1136 341.5 1098.5 c 128,-1,32
 302 1061 302 1061 302 1002 c 128,-1,33
 302 943 302 943 336 903 c 128,-1,34
 370 863 370 863 425 832.5 c 128,-1,35
 480 802 480 802 546 772 c 0,36,37
 709 698 709 698 800 625 c 0,38,39
 923 527 923 527 923 368 c 0,40,41
 924 148 924 148 692 36 c 0,42,43
 566 -24 566 -24 429 -24 c 128,-1,44
 292 -24 292 -24 185.5 18 c 128,-1,45
 79 60 79 60 33 124 c 1,46,-1
 56 438 l 1,47,-1
 196 417 l 1,48,-1
 236 230 l 1,49,50
 266 186 266 186 326 157.5 c 128,-1,8
 386 129 386 129 456 129 c 128,-1,9
EndSplineSet
EndChar

StartChar: Scedilla
Encoding: 350 350 84
Width: 934
VWidth: 0
Flags: HMW
LayerCount: 2
Fore
SplineSet
382 -255 m 0,0,1
 382 -218 382 -218 257 -154 c 1,2,-1
 422 -24 l 1,3,4
 288 -23 288 -23 183.5 18.5 c 128,-1,5
 79 60 79 60 33 124 c 1,6,-1
 56 438 l 1,7,-1
 196 417 l 1,8,-1
 236 230 l 1,9,10
 266 186 266 186 326 157.5 c 128,-1,11
 386 129 386 129 456 129 c 128,-1,12
 526 129 526 129 580 171 c 128,-1,13
 634 213 634 213 634 271.5 c 128,-1,14
 634 330 634 330 601.5 368 c 128,-1,15
 569 406 569 406 517.5 434 c 128,-1,16
 466 462 466 462 404 490 c 0,17,18
 250 561 250 561 166 632 c 0,19,20
 50 729 50 729 49 886 c 0,21,22
 49 1102 49 1102 252 1207 c 0,23,24
 370 1268 370 1268 514 1268 c 0,25,26
 598 1268 598 1268 691.5 1241 c 128,-1,27
 785 1214 785 1214 832 1172 c 1,28,-1
 806 850 l 1,29,-1
 670 872 l 1,30,-1
 638 1038 l 1,31,32
 614 1077 614 1077 558.5 1106.5 c 128,-1,33
 503 1136 503 1136 442 1136 c 128,-1,34
 381 1136 381 1136 341.5 1098.5 c 128,-1,35
 302 1061 302 1061 302 1002 c 128,-1,36
 302 943 302 943 336 903 c 128,-1,37
 370 863 370 863 425 832.5 c 128,-1,38
 480 802 480 802 546 772 c 0,39,40
 709 698 709 698 800 625 c 0,41,42
 923 527 923 527 923 357 c 128,-1,43
 923 187 923 187 762 76 c 0,44,45
 672 14 672 14 554 -10 c 1,46,-1
 468 -93 l 1,47,48
 551 -140 551 -140 570 -181 c 0,49,50
 580 -203 580 -203 580 -229 c 0,51,52
 580 -304 580 -304 502 -343.5 c 128,-1,53
 424 -383 424 -383 288 -401 c 1,54,-1
 260 -317 l 1,55,56
 308 -310 308 -310 345 -293 c 128,-1,57
 382 -276 382 -276 382 -255 c 0,0,1
EndSplineSet
EndChar

StartChar: Scommaaccent
Encoding: 536 536 85
Width: 934
VWidth: 0
Flags: HMW
LayerCount: 2
Fore
SplineSet
461 -133 m 0,0,1
 538 -133 538 -133 582.5 -171 c 128,-1,2
 627 -209 627 -209 629 -278 c 0,3,4
 632 -383 632 -383 547.5 -433 c 128,-1,5
 463 -483 463 -483 336 -474 c 1,6,-1
 317 -395 l 1,7,8
 366 -400 366 -400 398 -382.5 c 128,-1,9
 430 -365 430 -365 430 -336.5 c 128,-1,10
 430 -308 430 -308 396 -291 c 128,-1,11
 362 -274 362 -274 317 -274 c 1,12,13
 319 -133 319 -133 461 -133 c 0,0,1
456 129 m 128,-1,15
 526 129 526 129 580 171 c 128,-1,16
 634 213 634 213 634 271.5 c 128,-1,17
 634 330 634 330 601.5 368 c 128,-1,18
 569 406 569 406 517.5 434 c 128,-1,19
 466 462 466 462 404 490 c 0,20,21
 250 561 250 561 166 632 c 0,22,23
 50 729 50 729 49 886 c 0,24,25
 49 1102 49 1102 252 1207 c 0,26,27
 370 1268 370 1268 514 1268 c 0,28,29
 598 1268 598 1268 691.5 1241 c 128,-1,30
 785 1214 785 1214 832 1172 c 1,31,-1
 806 850 l 1,32,-1
 670 872 l 1,33,-1
 638 1038 l 1,34,35
 614 1077 614 1077 558.5 1106.5 c 128,-1,36
 503 1136 503 1136 442 1136 c 128,-1,37
 381 1136 381 1136 341.5 1098.5 c 128,-1,38
 302 1061 302 1061 302 1002 c 128,-1,39
 302 943 302 943 336 903 c 128,-1,40
 370 863 370 863 425 832.5 c 128,-1,41
 480 802 480 802 546 772 c 0,42,43
 709 698 709 698 800 625 c 0,44,45
 923 527 923 527 923 368 c 0,46,47
 924 148 924 148 692 36 c 0,48,49
 566 -24 566 -24 429 -24 c 128,-1,50
 292 -24 292 -24 185.5 18 c 128,-1,51
 79 60 79 60 33 124 c 1,52,-1
 56 438 l 1,53,-1
 196 417 l 1,54,-1
 236 230 l 1,55,56
 266 186 266 186 326 157.5 c 128,-1,14
 386 129 386 129 456 129 c 128,-1,15
EndSplineSet
EndChar

StartChar: T
Encoding: 84 84 86
Width: 1205
VWidth: 0
Flags: HMW
LayerCount: 2
Fore
SplineSet
732 1112 m 1,0,-1
 732 161 l 1,1,-1
 925 116 l 1,2,-1
 910 0 l 1,3,-1
 272 0 l 1,4,-1
 282 107 l 1,5,-1
 455 165 l 1,6,-1
 455 1112 l 1,7,-1
 218 1112 l 1,8,-1
 148 848 l 1,9,-1
 17 867 l 1,10,-1
 12 1244 l 1,11,-1
 1199 1244 l 1,12,-1
 1166 851 l 1,13,-1
 1027 874 l 1,14,-1
 976 1112 l 1,15,-1
 732 1112 l 1,0,-1
EndSplineSet
EndChar

StartChar: Tbar
Encoding: 358 358 87
Width: 1205
VWidth: 0
Flags: HMW
LayerCount: 2
Fore
SplineSet
844 1112 m 1,0,-1
 844 729 l 1,1,-1
 1113 729 l 1,2,-1
 1113 564 l 1,3,-1
 844 564 l 1,4,-1
 844 161 l 1,5,-1
 1037 116 l 1,6,-1
 1022 0 l 1,7,-1
 384 0 l 1,8,-1
 394 107 l 1,9,-1
 567 165 l 1,10,-1
 567 564 l 1,11,-1
 300 564 l 1,12,-1
 300 729 l 1,13,-1
 567 729 l 1,14,-1
 567 1112 l 1,15,-1
 330 1112 l 1,16,-1
 260 848 l 1,17,-1
 129 867 l 1,18,-1
 124 1244 l 1,19,-1
 1311 1244 l 1,20,-1
 1278 851 l 1,21,-1
 1139 874 l 1,22,-1
 1088 1112 l 1,23,-1
 844 1112 l 1,0,-1
EndSplineSet
EndChar

StartChar: Tcaron
Encoding: 356 356 88
Width: 1205
VWidth: 0
Flags: HMW
LayerCount: 2
Fore
SplineSet
339 1543 m 1,0,-1
 544 1578 l 1,1,-1
 633 1493 l 1,2,-1
 643 1493 l 1,3,-1
 727 1574 l 1,4,-1
 870 1560 l 1,5,-1
 680 1344 l 1,6,-1
 533 1323 l 1,7,-1
 339 1543 l 1,0,-1
732 1112 m 1,8,-1
 732 161 l 1,9,-1
 925 116 l 1,10,-1
 910 0 l 1,11,-1
 272 0 l 1,12,-1
 282 107 l 1,13,-1
 455 165 l 1,14,-1
 455 1112 l 1,15,-1
 218 1112 l 1,16,-1
 148 848 l 1,17,-1
 17 867 l 1,18,-1
 12 1244 l 1,19,-1
 1199 1244 l 1,20,-1
 1166 851 l 1,21,-1
 1027 874 l 1,22,-1
 976 1112 l 1,23,-1
 732 1112 l 1,8,-1
EndSplineSet
EndChar

StartChar: Tcedilla
Encoding: 354 354 89
Width: 1205
VWidth: 0
Flags: HMW
LayerCount: 2
Fore
SplineSet
536 -232 m 0,0,1
 536 -195 536 -195 411 -131 c 1,2,-1
 577 -0 l 1,3,-1
 272 0 l 1,4,-1
 282 107 l 1,5,-1
 455 165 l 1,6,-1
 455 1112 l 1,7,-1
 218 1112 l 1,8,-1
 148 848 l 1,9,-1
 17 867 l 1,10,-1
 12 1244 l 1,11,-1
 1199 1244 l 1,12,-1
 1166 851 l 1,13,-1
 1027 874 l 1,14,-1
 976 1112 l 1,15,-1
 732 1112 l 1,16,-1
 732 161 l 1,17,-1
 925 116 l 1,18,-1
 910 0 l 1,19,-1
 695 -0 l 1,20,-1
 622 -70 l 1,21,22
 705 -117 705 -117 724 -158 c 0,23,24
 734 -180 734 -180 734 -206 c 0,25,26
 734 -281 734 -281 656 -320.5 c 128,-1,27
 578 -360 578 -360 442 -378 c 1,28,-1
 414 -294 l 1,29,30
 462 -287 462 -287 499 -270 c 128,-1,31
 536 -253 536 -253 536 -232 c 0,0,1
EndSplineSet
EndChar

StartChar: Tcommaaccent
Encoding: 538 538 90
Width: 1205
VWidth: 0
Flags: HMW
LayerCount: 2
Fore
SplineSet
625 -109 m 0,0,1
 702 -109 702 -109 746.5 -147 c 128,-1,2
 791 -185 791 -185 793 -254 c 0,3,4
 796 -359 796 -359 711.5 -409 c 128,-1,5
 627 -459 627 -459 500 -450 c 1,6,-1
 481 -371 l 1,7,8
 530 -376 530 -376 562 -358.5 c 128,-1,9
 594 -341 594 -341 594 -312.5 c 128,-1,10
 594 -284 594 -284 560 -267 c 128,-1,11
 526 -250 526 -250 481 -250 c 1,12,13
 483 -109 483 -109 625 -109 c 0,0,1
732 1112 m 1,14,-1
 732 161 l 1,15,-1
 925 116 l 1,16,-1
 910 0 l 1,17,-1
 272 0 l 1,18,-1
 282 107 l 1,19,-1
 455 165 l 1,20,-1
 455 1112 l 1,21,-1
 218 1112 l 1,22,-1
 148 848 l 1,23,-1
 17 867 l 1,24,-1
 12 1244 l 1,25,-1
 1199 1244 l 1,26,-1
 1166 851 l 1,27,-1
 1027 874 l 1,28,-1
 976 1112 l 1,29,-1
 732 1112 l 1,14,-1
EndSplineSet
EndChar

StartChar: Thorn
Encoding: 222 222 91
Width: 1139
VWidth: 0
Flags: HMW
LayerCount: 2
Fore
SplineSet
523 386 m 1,0,1
 828 376 828 376 828 606 c 0,2,3
 828 724 828 724 765 791 c 128,-1,4
 702 858 702 858 575 858 c 0,5,6
 530 858 530 858 488 851 c 1,7,-1
 488 172 l 1,8,-1
 696 122 l 1,9,-1
 683 -0 l 1,10,-1
 28 -0 l 1,11,-1
 38 108 l 1,12,-1
 210 170 l 1,13,-1
 210 1073 l 1,14,-1
 25 1131 l 1,15,-1
 40 1244 l 1,16,-1
 676 1244 l 1,17,-1
 662 1126 l 1,18,-1
 488 1074 l 1,19,-1
 488 1001 l 1,20,21
 558 1008 558 1008 629.5 1008 c 128,-1,22
 701 1008 701 1008 773 1000 c 0,23,24
 938 980 938 980 1027.5 899 c 128,-1,25
 1117 818 1117 818 1117 646.5 c 128,-1,26
 1117 475 1117 475 984 363 c 128,-1,27
 851 251 851 251 646 251 c 0,28,29
 590 251 590 251 548 256 c 1,30,-1
 523 386 l 1,0,1
EndSplineSet
EndChar

StartChar: U
Encoding: 85 85 92
Width: 1472
VWidth: 0
Flags: HMW
LayerCount: 2
Fore
SplineSet
480 526 m 2,0,1
 480 344 480 344 566 256.5 c 128,-1,2
 652 169 652 169 796 169 c 128,-1,3
 940 169 940 169 1017 253 c 128,-1,4
 1094 337 1094 337 1094 510 c 2,5,-1
 1095 1073 l 1,6,-1
 916 1131 l 1,7,-1
 930 1244 l 1,8,-1
 1462 1244 l 1,9,-1
 1448 1131 l 1,10,-1
 1282 1078 l 1,11,-1
 1278 540 l 2,12,13
 1275 252 1275 252 1141 112.5 c 128,-1,14
 1007 -27 1007 -27 737 -27 c 0,15,16
 541 -26 541 -26 427 28 c 0,17,18
 198 137 198 137 198 476 c 2,19,-1
 198 1073 l 1,20,-1
 11 1131 l 1,21,-1
 32 1244 l 1,22,-1
 663 1244 l 1,23,-1
 648 1131 l 1,24,-1
 480 1078 l 1,25,-1
 480 526 l 2,0,1
EndSplineSet
EndChar

StartChar: Uacute
Encoding: 218 218 93
Width: 1472
VWidth: 0
Flags: HMW
LayerCount: 2
Fore
SplineSet
655 1420 m 1,0,-1
 769 1734 l 1,1,-1
 991 1706 l 1,2,-1
 809 1393 l 1,3,-1
 655 1420 l 1,0,-1
480 526 m 2,4,5
 480 344 480 344 566 256.5 c 128,-1,6
 652 169 652 169 796 169 c 128,-1,7
 940 169 940 169 1017 253 c 128,-1,8
 1094 337 1094 337 1094 510 c 2,9,-1
 1095 1073 l 1,10,-1
 916 1131 l 1,11,-1
 930 1244 l 1,12,-1
 1462 1244 l 1,13,-1
 1448 1131 l 1,14,-1
 1282 1078 l 1,15,-1
 1278 540 l 2,16,17
 1275 252 1275 252 1141 112.5 c 128,-1,18
 1007 -27 1007 -27 737 -27 c 0,19,20
 541 -26 541 -26 427 28 c 0,21,22
 198 137 198 137 198 476 c 2,23,-1
 198 1073 l 1,24,-1
 11 1131 l 1,25,-1
 32 1244 l 1,26,-1
 663 1244 l 1,27,-1
 648 1131 l 1,28,-1
 480 1078 l 1,29,-1
 480 526 l 2,4,5
EndSplineSet
EndChar

StartChar: Ucaron
Encoding: 467 467 94
Width: 1472
VWidth: 0
Flags: HMW
LayerCount: 2
Fore
SplineSet
481 1543 m 1,0,-1
 686 1578 l 1,1,-1
 775 1493 l 1,2,-1
 785 1493 l 1,3,-1
 869 1574 l 1,4,-1
 1012 1560 l 1,5,-1
 822 1344 l 1,6,-1
 675 1323 l 1,7,-1
 481 1543 l 1,0,-1
480 526 m 2,8,9
 480 344 480 344 566 256.5 c 128,-1,10
 652 169 652 169 796 169 c 128,-1,11
 940 169 940 169 1017 253 c 128,-1,12
 1094 337 1094 337 1094 510 c 2,13,-1
 1095 1073 l 1,14,-1
 916 1131 l 1,15,-1
 930 1244 l 1,16,-1
 1462 1244 l 1,17,-1
 1448 1131 l 1,18,-1
 1282 1078 l 1,19,-1
 1278 540 l 2,20,21
 1275 252 1275 252 1141 112.5 c 128,-1,22
 1007 -27 1007 -27 737 -27 c 0,23,24
 541 -26 541 -26 427 28 c 0,25,26
 198 137 198 137 198 476 c 2,27,-1
 198 1073 l 1,28,-1
 11 1131 l 1,29,-1
 32 1244 l 1,30,-1
 663 1244 l 1,31,-1
 648 1131 l 1,32,-1
 480 1078 l 1,33,-1
 480 526 l 2,8,9
EndSplineSet
EndChar

StartChar: Ucircumflex
Encoding: 219 219 95
Width: 1472
VWidth: 0
Flags: HMW
LayerCount: 2
Fore
SplineSet
1051 1380 m 1,0,-1
 882 1345 l 1,1,-1
 778 1430 l 1,2,-1
 768 1430 l 1,3,-1
 681 1339 l 1,4,-1
 520 1363 l 1,5,-1
 684 1579 l 1,6,-1
 871 1600 l 1,7,-1
 1051 1380 l 1,0,-1
480 526 m 2,8,9
 480 344 480 344 566 256.5 c 128,-1,10
 652 169 652 169 796 169 c 128,-1,11
 940 169 940 169 1017 253 c 128,-1,12
 1094 337 1094 337 1094 510 c 2,13,-1
 1095 1073 l 1,14,-1
 916 1131 l 1,15,-1
 930 1244 l 1,16,-1
 1462 1244 l 1,17,-1
 1448 1131 l 1,18,-1
 1282 1078 l 1,19,-1
 1278 540 l 2,20,21
 1275 252 1275 252 1141 112.5 c 128,-1,22
 1007 -27 1007 -27 737 -27 c 0,23,24
 541 -26 541 -26 427 28 c 0,25,26
 198 137 198 137 198 476 c 2,27,-1
 198 1073 l 1,28,-1
 11 1131 l 1,29,-1
 32 1244 l 1,30,-1
 663 1244 l 1,31,-1
 648 1131 l 1,32,-1
 480 1078 l 1,33,-1
 480 526 l 2,8,9
EndSplineSet
EndChar

StartChar: Udieresis
Encoding: 220 220 96
Width: 1472
VWidth: 0
Flags: HMW
LayerCount: 2
Fore
SplineSet
791 1487 m 128,-1,1
 791 1526 791 1526 818.5 1553.5 c 128,-1,2
 846 1581 846 1581 900 1581 c 128,-1,3
 954 1581 954 1581 982.5 1554 c 128,-1,4
 1011 1527 1011 1527 1011 1487 c 128,-1,5
 1011 1447 1011 1447 982.5 1419.5 c 128,-1,6
 954 1392 954 1392 899 1392 c 128,-1,7
 844 1392 844 1392 817.5 1420 c 128,-1,0
 791 1448 791 1448 791 1487 c 128,-1,1
482 1487 m 128,-1,9
 482 1526 482 1526 509.5 1553.5 c 128,-1,10
 537 1581 537 1581 591 1581 c 128,-1,11
 645 1581 645 1581 673.5 1554 c 128,-1,12
 702 1527 702 1527 702 1487 c 128,-1,13
 702 1447 702 1447 673.5 1419.5 c 128,-1,14
 645 1392 645 1392 590 1392 c 128,-1,15
 535 1392 535 1392 508.5 1420 c 128,-1,8
 482 1448 482 1448 482 1487 c 128,-1,9
480 526 m 2,16,17
 480 344 480 344 566 256.5 c 128,-1,18
 652 169 652 169 796 169 c 128,-1,19
 940 169 940 169 1017 253 c 128,-1,20
 1094 337 1094 337 1094 510 c 2,21,-1
 1095 1073 l 1,22,-1
 916 1131 l 1,23,-1
 930 1244 l 1,24,-1
 1462 1244 l 1,25,-1
 1448 1131 l 1,26,-1
 1282 1078 l 1,27,-1
 1278 540 l 2,28,29
 1275 252 1275 252 1141 112.5 c 128,-1,30
 1007 -27 1007 -27 737 -27 c 0,31,32
 541 -26 541 -26 427 28 c 0,33,34
 198 137 198 137 198 476 c 2,35,-1
 198 1073 l 1,36,-1
 11 1131 l 1,37,-1
 32 1244 l 1,38,-1
 663 1244 l 1,39,-1
 648 1131 l 1,40,-1
 480 1078 l 1,41,-1
 480 526 l 2,16,17
EndSplineSet
EndChar

StartChar: Udieresisacute
Encoding: 471 471 97
Width: 1472
VWidth: 0
Flags: HMW
LayerCount: 2
Fore
SplineSet
626 1623 m 1,0,-1
 740 1937 l 1,1,-1
 962 1909 l 1,2,-1
 780 1596 l 1,3,-1
 626 1623 l 1,0,-1
791 1487 m 128,-1,5
 791 1526 791 1526 818.5 1553.5 c 128,-1,6
 846 1581 846 1581 900 1581 c 128,-1,7
 954 1581 954 1581 982.5 1554 c 128,-1,8
 1011 1527 1011 1527 1011 1487 c 128,-1,9
 1011 1447 1011 1447 982.5 1419.5 c 128,-1,10
 954 1392 954 1392 899 1392 c 128,-1,11
 844 1392 844 1392 817.5 1420 c 128,-1,4
 791 1448 791 1448 791 1487 c 128,-1,5
482 1487 m 128,-1,13
 482 1526 482 1526 509.5 1553.5 c 128,-1,14
 537 1581 537 1581 591 1581 c 128,-1,15
 645 1581 645 1581 673.5 1554 c 128,-1,16
 702 1527 702 1527 702 1487 c 128,-1,17
 702 1447 702 1447 673.5 1419.5 c 128,-1,18
 645 1392 645 1392 590 1392 c 128,-1,19
 535 1392 535 1392 508.5 1420 c 128,-1,12
 482 1448 482 1448 482 1487 c 128,-1,13
480 526 m 2,20,21
 480 344 480 344 566 256.5 c 128,-1,22
 652 169 652 169 796 169 c 128,-1,23
 940 169 940 169 1017 253 c 128,-1,24
 1094 337 1094 337 1094 510 c 2,25,-1
 1095 1073 l 1,26,-1
 916 1131 l 1,27,-1
 930 1244 l 1,28,-1
 1462 1244 l 1,29,-1
 1448 1131 l 1,30,-1
 1282 1078 l 1,31,-1
 1278 540 l 2,32,33
 1275 252 1275 252 1141 112.5 c 128,-1,34
 1007 -27 1007 -27 737 -27 c 0,35,36
 541 -26 541 -26 427 28 c 0,37,38
 198 137 198 137 198 476 c 2,39,-1
 198 1073 l 1,40,-1
 11 1131 l 1,41,-1
 32 1244 l 1,42,-1
 663 1244 l 1,43,-1
 648 1131 l 1,44,-1
 480 1078 l 1,45,-1
 480 526 l 2,20,21
EndSplineSet
EndChar

StartChar: Udieresiscaron
Encoding: 473 473 98
Width: 1472
VWidth: 0
Flags: HMW
LayerCount: 2
Fore
SplineSet
479 1855 m 1,0,-1
 684 1890 l 1,1,-1
 773 1805 l 1,2,-1
 783 1805 l 1,3,-1
 867 1886 l 1,4,-1
 1010 1872 l 1,5,-1
 820 1656 l 1,6,-1
 673 1635 l 1,7,-1
 479 1855 l 1,0,-1
791 1487 m 128,-1,9
 791 1526 791 1526 818.5 1553.5 c 128,-1,10
 846 1581 846 1581 900 1581 c 128,-1,11
 954 1581 954 1581 982.5 1554 c 128,-1,12
 1011 1527 1011 1527 1011 1487 c 128,-1,13
 1011 1447 1011 1447 982.5 1419.5 c 128,-1,14
 954 1392 954 1392 899 1392 c 128,-1,15
 844 1392 844 1392 817.5 1420 c 128,-1,8
 791 1448 791 1448 791 1487 c 128,-1,9
482 1487 m 128,-1,17
 482 1526 482 1526 509.5 1553.5 c 128,-1,18
 537 1581 537 1581 591 1581 c 128,-1,19
 645 1581 645 1581 673.5 1554 c 128,-1,20
 702 1527 702 1527 702 1487 c 128,-1,21
 702 1447 702 1447 673.5 1419.5 c 128,-1,22
 645 1392 645 1392 590 1392 c 128,-1,23
 535 1392 535 1392 508.5 1420 c 128,-1,16
 482 1448 482 1448 482 1487 c 128,-1,17
480 526 m 2,24,25
 480 344 480 344 566 256.5 c 128,-1,26
 652 169 652 169 796 169 c 128,-1,27
 940 169 940 169 1017 253 c 128,-1,28
 1094 337 1094 337 1094 510 c 2,29,-1
 1095 1073 l 1,30,-1
 916 1131 l 1,31,-1
 930 1244 l 1,32,-1
 1462 1244 l 1,33,-1
 1448 1131 l 1,34,-1
 1282 1078 l 1,35,-1
 1278 540 l 2,36,37
 1275 252 1275 252 1141 112.5 c 128,-1,38
 1007 -27 1007 -27 737 -27 c 0,39,40
 541 -26 541 -26 427 28 c 0,41,42
 198 137 198 137 198 476 c 2,43,-1
 198 1073 l 1,44,-1
 11 1131 l 1,45,-1
 32 1244 l 1,46,-1
 663 1244 l 1,47,-1
 648 1131 l 1,48,-1
 480 1078 l 1,49,-1
 480 526 l 2,24,25
EndSplineSet
EndChar

StartChar: Udieresisgrave
Encoding: 475 475 99
Width: 1472
VWidth: 0
Flags: HMW
LayerCount: 2
Fore
SplineSet
501 1923 m 1,0,-1
 718 1961 l 1,1,-1
 858 1621 l 1,2,-1
 701 1588 l 1,3,-1
 501 1923 l 1,0,-1
791 1487 m 128,-1,5
 791 1526 791 1526 818.5 1553.5 c 128,-1,6
 846 1581 846 1581 900 1581 c 128,-1,7
 954 1581 954 1581 982.5 1554 c 128,-1,8
 1011 1527 1011 1527 1011 1487 c 128,-1,9
 1011 1447 1011 1447 982.5 1419.5 c 128,-1,10
 954 1392 954 1392 899 1392 c 128,-1,11
 844 1392 844 1392 817.5 1420 c 128,-1,4
 791 1448 791 1448 791 1487 c 128,-1,5
482 1487 m 128,-1,13
 482 1526 482 1526 509.5 1553.5 c 128,-1,14
 537 1581 537 1581 591 1581 c 128,-1,15
 645 1581 645 1581 673.5 1554 c 128,-1,16
 702 1527 702 1527 702 1487 c 128,-1,17
 702 1447 702 1447 673.5 1419.5 c 128,-1,18
 645 1392 645 1392 590 1392 c 128,-1,19
 535 1392 535 1392 508.5 1420 c 128,-1,12
 482 1448 482 1448 482 1487 c 128,-1,13
480 526 m 2,20,21
 480 344 480 344 566 256.5 c 128,-1,22
 652 169 652 169 796 169 c 128,-1,23
 940 169 940 169 1017 253 c 128,-1,24
 1094 337 1094 337 1094 510 c 2,25,-1
 1095 1073 l 1,26,-1
 916 1131 l 1,27,-1
 930 1244 l 1,28,-1
 1462 1244 l 1,29,-1
 1448 1131 l 1,30,-1
 1282 1078 l 1,31,-1
 1278 540 l 2,32,33
 1275 252 1275 252 1141 112.5 c 128,-1,34
 1007 -27 1007 -27 737 -27 c 0,35,36
 541 -26 541 -26 427 28 c 0,37,38
 198 137 198 137 198 476 c 2,39,-1
 198 1073 l 1,40,-1
 11 1131 l 1,41,-1
 32 1244 l 1,42,-1
 663 1244 l 1,43,-1
 648 1131 l 1,44,-1
 480 1078 l 1,45,-1
 480 526 l 2,20,21
EndSplineSet
EndChar

StartChar: Udieresismacron
Encoding: 469 469 100
Width: 1472
VWidth: 0
Flags: HMW
LayerCount: 2
Fore
SplineSet
513 1704 m 1,0,-1
 530 1851 l 1,1,-1
 977 1851 l 1,2,-1
 960 1704 l 1,3,-1
 513 1704 l 1,0,-1
791 1487 m 128,-1,5
 791 1526 791 1526 818.5 1553.5 c 128,-1,6
 846 1581 846 1581 900 1581 c 128,-1,7
 954 1581 954 1581 982.5 1554 c 128,-1,8
 1011 1527 1011 1527 1011 1487 c 128,-1,9
 1011 1447 1011 1447 982.5 1419.5 c 128,-1,10
 954 1392 954 1392 899 1392 c 128,-1,11
 844 1392 844 1392 817.5 1420 c 128,-1,4
 791 1448 791 1448 791 1487 c 128,-1,5
482 1487 m 128,-1,13
 482 1526 482 1526 509.5 1553.5 c 128,-1,14
 537 1581 537 1581 591 1581 c 128,-1,15
 645 1581 645 1581 673.5 1554 c 128,-1,16
 702 1527 702 1527 702 1487 c 128,-1,17
 702 1447 702 1447 673.5 1419.5 c 128,-1,18
 645 1392 645 1392 590 1392 c 128,-1,19
 535 1392 535 1392 508.5 1420 c 128,-1,12
 482 1448 482 1448 482 1487 c 128,-1,13
480 526 m 2,20,21
 480 344 480 344 566 256.5 c 128,-1,22
 652 169 652 169 796 169 c 128,-1,23
 940 169 940 169 1017 253 c 128,-1,24
 1094 337 1094 337 1094 510 c 2,25,-1
 1095 1073 l 1,26,-1
 916 1131 l 1,27,-1
 930 1244 l 1,28,-1
 1462 1244 l 1,29,-1
 1448 1131 l 1,30,-1
 1282 1078 l 1,31,-1
 1278 540 l 2,32,33
 1275 252 1275 252 1141 112.5 c 128,-1,34
 1007 -27 1007 -27 737 -27 c 0,35,36
 541 -26 541 -26 427 28 c 0,37,38
 198 137 198 137 198 476 c 2,39,-1
 198 1073 l 1,40,-1
 11 1131 l 1,41,-1
 32 1244 l 1,42,-1
 663 1244 l 1,43,-1
 648 1131 l 1,44,-1
 480 1078 l 1,45,-1
 480 526 l 2,20,21
EndSplineSet
EndChar

StartChar: Ugrave
Encoding: 217 217 101
Width: 1472
VWidth: 0
Flags: HMW
LayerCount: 2
Fore
SplineSet
507 1728 m 1,0,-1
 724 1766 l 1,1,-1
 864 1426 l 1,2,-1
 707 1393 l 1,3,-1
 507 1728 l 1,0,-1
480 526 m 2,4,5
 480 344 480 344 566 256.5 c 128,-1,6
 652 169 652 169 796 169 c 128,-1,7
 940 169 940 169 1017 253 c 128,-1,8
 1094 337 1094 337 1094 510 c 2,9,-1
 1095 1073 l 1,10,-1
 916 1131 l 1,11,-1
 930 1244 l 1,12,-1
 1462 1244 l 1,13,-1
 1448 1131 l 1,14,-1
 1282 1078 l 1,15,-1
 1278 540 l 2,16,17
 1275 252 1275 252 1141 112.5 c 128,-1,18
 1007 -27 1007 -27 737 -27 c 0,19,20
 541 -26 541 -26 427 28 c 0,21,22
 198 137 198 137 198 476 c 2,23,-1
 198 1073 l 1,24,-1
 11 1131 l 1,25,-1
 32 1244 l 1,26,-1
 663 1244 l 1,27,-1
 648 1131 l 1,28,-1
 480 1078 l 1,29,-1
 480 526 l 2,4,5
EndSplineSet
EndChar

StartChar: Uhungarumlaut
Encoding: 368 368 102
Width: 1472
VWidth: 0
Flags: HMW
LayerCount: 2
Fore
SplineSet
777 1428 m 1,0,-1
 1029 1654 l 1,1,-1
 1220 1618 l 1,2,-1
 918 1403 l 1,3,-1
 777 1428 l 1,0,-1
512 1428 m 1,4,-1
 779 1659 l 1,5,-1
 968 1624 l 1,6,-1
 656 1403 l 1,7,-1
 512 1428 l 1,4,-1
480 526 m 2,8,9
 480 344 480 344 566 256.5 c 128,-1,10
 652 169 652 169 796 169 c 128,-1,11
 940 169 940 169 1017 253 c 128,-1,12
 1094 337 1094 337 1094 510 c 2,13,-1
 1095 1073 l 1,14,-1
 916 1131 l 1,15,-1
 930 1244 l 1,16,-1
 1462 1244 l 1,17,-1
 1448 1131 l 1,18,-1
 1282 1078 l 1,19,-1
 1278 540 l 2,20,21
 1275 252 1275 252 1141 112.5 c 128,-1,22
 1007 -27 1007 -27 737 -27 c 0,23,24
 541 -26 541 -26 427 28 c 0,25,26
 198 137 198 137 198 476 c 2,27,-1
 198 1073 l 1,28,-1
 11 1131 l 1,29,-1
 32 1244 l 1,30,-1
 663 1244 l 1,31,-1
 648 1131 l 1,32,-1
 480 1078 l 1,33,-1
 480 526 l 2,8,9
EndSplineSet
EndChar

StartChar: Umacron
Encoding: 362 362 103
Width: 1472
VWidth: 0
Flags: HMW
LayerCount: 2
Fore
SplineSet
515 1393 m 1,0,-1
 532 1540 l 1,1,-1
 979 1540 l 1,2,-1
 962 1393 l 1,3,-1
 515 1393 l 1,0,-1
480 526 m 2,4,5
 480 344 480 344 566 256.5 c 128,-1,6
 652 169 652 169 796 169 c 128,-1,7
 940 169 940 169 1017 253 c 128,-1,8
 1094 337 1094 337 1094 510 c 2,9,-1
 1095 1073 l 1,10,-1
 916 1131 l 1,11,-1
 930 1244 l 1,12,-1
 1462 1244 l 1,13,-1
 1448 1131 l 1,14,-1
 1282 1078 l 1,15,-1
 1278 540 l 2,16,17
 1275 252 1275 252 1141 112.5 c 128,-1,18
 1007 -27 1007 -27 737 -27 c 0,19,20
 541 -26 541 -26 427 28 c 0,21,22
 198 137 198 137 198 476 c 2,23,-1
 198 1073 l 1,24,-1
 11 1131 l 1,25,-1
 32 1244 l 1,26,-1
 663 1244 l 1,27,-1
 648 1131 l 1,28,-1
 480 1078 l 1,29,-1
 480 526 l 2,4,5
EndSplineSet
EndChar

StartChar: Uogonek
Encoding: 370 370 104
Width: 1472
VWidth: 0
Flags: HMW
LayerCount: 2
Fore
SplineSet
480 526 m 2,0,1
 480 344 480 344 566 256.5 c 128,-1,2
 652 169 652 169 796 169 c 128,-1,3
 940 169 940 169 1017 253 c 128,-1,4
 1094 337 1094 337 1094 510 c 2,5,-1
 1095 1073 l 1,6,-1
 916 1131 l 1,7,-1
 930 1244 l 1,8,-1
 1462 1244 l 1,9,-1
 1448 1131 l 1,10,-1
 1282 1078 l 1,11,-1
 1278 540 l 2,12,13
 1275 263 1275 263 1151.5 123.5 c 128,-1,14
 1028 -16 1028 -16 779 -26 c 1,15,16
 734 -125 734 -125 748.5 -199 c 128,-1,17
 763 -273 763 -273 849 -335 c 1,18,-1
 820 -407 l 1,19,20
 702 -398 702 -398 622 -348 c 128,-1,21
 542 -298 542 -298 542 -235 c 128,-1,22
 542 -172 542 -172 570.5 -128.5 c 128,-1,23
 599 -85 599 -85 675 -26 c 1,24,25
 358 -11 358 -11 254 197 c 0,26,27
 198 307 198 307 198 476 c 2,28,-1
 198 1073 l 1,29,-1
 11 1131 l 1,30,-1
 32 1244 l 1,31,-1
 663 1244 l 1,32,-1
 648 1131 l 1,33,-1
 480 1078 l 1,34,-1
 480 526 l 2,0,1
EndSplineSet
EndChar

StartChar: Uring
Encoding: 366 366 105
Width: 1472
VWidth: 0
Flags: HMW
LayerCount: 2
Fore
SplineSet
722.5 1560 m 128,-1,1
 739 1553 739 1553 756 1553 c 1,2,3
 804 1556 804 1556 806 1605 c 1,4,5
 806 1654 806 1654 750 1654 c 0,6,7
 729 1654 729 1654 717.5 1639 c 128,-1,8
 706 1624 706 1624 706 1595.5 c 128,-1,0
 706 1567 706 1567 722.5 1560 c 128,-1,1
761 1762 m 0,9,10
 976 1762 976 1762 976 1607 c 0,11,12
 976 1536 976 1536 918 1490.5 c 128,-1,13
 860 1445 860 1445 748 1445 c 0,14,15
 540 1445 540 1445 540 1598 c 0,16,17
 540 1670 540 1670 598 1716 c 128,-1,18
 656 1762 656 1762 761 1762 c 0,9,10
480 526 m 2,19,20
 480 344 480 344 566 256.5 c 128,-1,21
 652 169 652 169 796 169 c 128,-1,22
 940 169 940 169 1017 253 c 128,-1,23
 1094 337 1094 337 1094 510 c 2,24,-1
 1095 1073 l 1,25,-1
 916 1131 l 1,26,-1
 930 1244 l 1,27,-1
 1462 1244 l 1,28,-1
 1448 1131 l 1,29,-1
 1282 1078 l 1,30,-1
 1278 540 l 2,31,32
 1275 252 1275 252 1141 112.5 c 128,-1,33
 1007 -27 1007 -27 737 -27 c 0,34,35
 541 -26 541 -26 427 28 c 0,36,37
 198 137 198 137 198 476 c 2,38,-1
 198 1073 l 1,39,-1
 11 1131 l 1,40,-1
 32 1244 l 1,41,-1
 663 1244 l 1,42,-1
 648 1131 l 1,43,-1
 480 1078 l 1,44,-1
 480 526 l 2,19,20
EndSplineSet
EndChar

StartChar: V
Encoding: 86 86 106
Width: 1352
VWidth: 0
Flags: HMW
LayerCount: 2
Fore
SplineSet
-10 1128 m 1,0,-1
 4 1244 l 1,1,-1
 652 1244 l 1,2,-1
 635 1128 l 1,3,-1
 469 1078 l 1,4,-1
 743 336 l 1,5,-1
 1012 1076 l 1,6,-1
 834 1128 l 1,7,-1
 845 1244 l 1,8,-1
 1365 1244 l 1,9,-1
 1354 1128 l 1,10,-1
 1221 1078 l 1,11,-1
 812 20 l 1,12,-1
 559 -24 l 1,13,-1
 136 1076 l 1,14,-1
 -10 1128 l 1,0,-1
EndSplineSet
EndChar

StartChar: W
Encoding: 87 87 107
Width: 1913
VWidth: 0
Flags: HMW
LayerCount: 2
Fore
SplineSet
-6 1128 m 1,0,-1
 4 1244 l 1,1,-1
 639 1244 l 1,2,-1
 614 1124 l 1,3,-1
 454 1078 l 1,4,-1
 652 378 l 1,5,-1
 880 1197 l 1,6,-1
 1137 1230 l 1,7,-1
 1364 394 l 1,8,-1
 1571 1078 l 1,9,-1
 1397 1126 l 1,10,-1
 1413 1244 l 1,11,-1
 1927 1244 l 1,12,-1
 1909 1128 l 1,13,-1
 1782 1082 l 1,14,-1
 1432 21 l 1,15,-1
 1188 -24 l 1,16,-1
 954 836 l 1,17,-1
 722 21 l 1,18,-1
 468 -24 l 1,19,-1
 152 1074 l 1,20,-1
 -6 1128 l 1,0,-1
EndSplineSet
EndChar

StartChar: Wacute
Encoding: 7810 7810 108
Width: 1913
VWidth: 0
Flags: HMW
LayerCount: 2
Fore
SplineSet
874 1420 m 1,0,-1
 988 1734 l 1,1,-1
 1210 1706 l 1,2,-1
 1028 1393 l 1,3,-1
 874 1420 l 1,0,-1
-6 1128 m 1,4,-1
 4 1244 l 1,5,-1
 639 1244 l 1,6,-1
 614 1124 l 1,7,-1
 454 1078 l 1,8,-1
 652 378 l 1,9,-1
 880 1197 l 1,10,-1
 1137 1230 l 1,11,-1
 1364 394 l 1,12,-1
 1571 1078 l 1,13,-1
 1397 1126 l 1,14,-1
 1413 1244 l 1,15,-1
 1927 1244 l 1,16,-1
 1909 1128 l 1,17,-1
 1782 1082 l 1,18,-1
 1432 21 l 1,19,-1
 1188 -24 l 1,20,-1
 954 836 l 1,21,-1
 722 21 l 1,22,-1
 468 -24 l 1,23,-1
 152 1074 l 1,24,-1
 -6 1128 l 1,4,-1
EndSplineSet
EndChar

StartChar: Wcircumflex
Encoding: 372 372 109
Width: 1913
VWidth: 0
Flags: HMW
LayerCount: 2
Fore
SplineSet
1270 1380 m 1,0,-1
 1101 1345 l 1,1,-1
 997 1430 l 1,2,-1
 987 1430 l 1,3,-1
 900 1339 l 1,4,-1
 739 1363 l 1,5,-1
 903 1579 l 1,6,-1
 1090 1600 l 1,7,-1
 1270 1380 l 1,0,-1
-6 1128 m 1,8,-1
 4 1244 l 1,9,-1
 639 1244 l 1,10,-1
 614 1124 l 1,11,-1
 454 1078 l 1,12,-1
 652 378 l 1,13,-1
 880 1197 l 1,14,-1
 1137 1230 l 1,15,-1
 1364 394 l 1,16,-1
 1571 1078 l 1,17,-1
 1397 1126 l 1,18,-1
 1413 1244 l 1,19,-1
 1927 1244 l 1,20,-1
 1909 1128 l 1,21,-1
 1782 1082 l 1,22,-1
 1432 21 l 1,23,-1
 1188 -24 l 1,24,-1
 954 836 l 1,25,-1
 722 21 l 1,26,-1
 468 -24 l 1,27,-1
 152 1074 l 1,28,-1
 -6 1128 l 1,8,-1
EndSplineSet
EndChar

StartChar: Wdieresis
Encoding: 7812 7812 110
Width: 1913
VWidth: 0
Flags: HMW
LayerCount: 2
Fore
SplineSet
1056 1487 m 128,-1,1
 1056 1526 1056 1526 1083.5 1553.5 c 128,-1,2
 1111 1581 1111 1581 1165 1581 c 128,-1,3
 1219 1581 1219 1581 1247.5 1554 c 128,-1,4
 1276 1527 1276 1527 1276 1487 c 128,-1,5
 1276 1447 1276 1447 1247.5 1419.5 c 128,-1,6
 1219 1392 1219 1392 1164 1392 c 128,-1,7
 1109 1392 1109 1392 1082.5 1420 c 128,-1,0
 1056 1448 1056 1448 1056 1487 c 128,-1,1
747 1487 m 128,-1,9
 747 1526 747 1526 774.5 1553.5 c 128,-1,10
 802 1581 802 1581 856 1581 c 128,-1,11
 910 1581 910 1581 938.5 1554 c 128,-1,12
 967 1527 967 1527 967 1487 c 128,-1,13
 967 1447 967 1447 938.5 1419.5 c 128,-1,14
 910 1392 910 1392 855 1392 c 128,-1,15
 800 1392 800 1392 773.5 1420 c 128,-1,8
 747 1448 747 1448 747 1487 c 128,-1,9
-6 1128 m 1,16,-1
 4 1244 l 1,17,-1
 639 1244 l 1,18,-1
 614 1124 l 1,19,-1
 454 1078 l 1,20,-1
 652 378 l 1,21,-1
 880 1197 l 1,22,-1
 1137 1230 l 1,23,-1
 1364 394 l 1,24,-1
 1571 1078 l 1,25,-1
 1397 1126 l 1,26,-1
 1413 1244 l 1,27,-1
 1927 1244 l 1,28,-1
 1909 1128 l 1,29,-1
 1782 1082 l 1,30,-1
 1432 21 l 1,31,-1
 1188 -24 l 1,32,-1
 954 836 l 1,33,-1
 722 21 l 1,34,-1
 468 -24 l 1,35,-1
 152 1074 l 1,36,-1
 -6 1128 l 1,16,-1
EndSplineSet
EndChar

StartChar: Wgrave
Encoding: 7808 7808 111
Width: 1913
VWidth: 0
Flags: HMW
LayerCount: 2
Fore
SplineSet
726 1728 m 1,0,-1
 943 1766 l 1,1,-1
 1083 1426 l 1,2,-1
 926 1393 l 1,3,-1
 726 1728 l 1,0,-1
-6 1128 m 1,4,-1
 4 1244 l 1,5,-1
 639 1244 l 1,6,-1
 614 1124 l 1,7,-1
 454 1078 l 1,8,-1
 652 378 l 1,9,-1
 880 1197 l 1,10,-1
 1137 1230 l 1,11,-1
 1364 394 l 1,12,-1
 1571 1078 l 1,13,-1
 1397 1126 l 1,14,-1
 1413 1244 l 1,15,-1
 1927 1244 l 1,16,-1
 1909 1128 l 1,17,-1
 1782 1082 l 1,18,-1
 1432 21 l 1,19,-1
 1188 -24 l 1,20,-1
 954 836 l 1,21,-1
 722 21 l 1,22,-1
 468 -24 l 1,23,-1
 152 1074 l 1,24,-1
 -6 1128 l 1,4,-1
EndSplineSet
EndChar

StartChar: X
Encoding: 88 88 112
Width: 1268
VWidth: 0
Flags: HMW
LayerCount: 2
Fore
SplineSet
-0 0 m 1,0,-1
 18 116 l 1,1,-1
 146 177 l 1,2,-1
 492 602 l 1,3,-1
 152 1068 l 1,4,-1
 20 1116 l 1,5,-1
 40 1244 l 1,6,-1
 620 1244 l 1,7,-1
 601 1121 l 1,8,-1
 477 1066 l 1,9,-1
 681 769 l 1,10,-1
 896 1070 l 1,11,-1
 754 1125 l 1,12,-1
 774 1244 l 1,13,-1
 1245 1244 l 1,14,-1
 1229 1128 l 1,15,-1
 1100 1072 l 1,16,-1
 779 650 l 1,17,-1
 1146 170 l 1,18,-1
 1264 130 l 1,19,-1
 1245 0 l 1,20,-1
 672 0 l 1,21,-1
 692 120 l 1,22,-1
 818 176 l 1,23,-1
 595 486 l 1,24,-1
 368 174 l 1,25,-1
 522 125 l 1,26,-1
 500 0 l 1,27,-1
 -0 0 l 1,0,-1
EndSplineSet
EndChar

StartChar: Y
Encoding: 89 89 113
Width: 1215
VWidth: 0
Flags: HMW
LayerCount: 2
Fore
SplineSet
-10 1128 m 1,0,-1
 12 1244 l 1,1,-1
 596 1244 l 1,2,-1
 576 1128 l 1,3,-1
 460 1079 l 1,4,-1
 673 690 l 1,5,-1
 880 1076 l 1,6,-1
 740 1128 l 1,7,-1
 756 1244 l 1,8,-1
 1216 1244 l 1,9,-1
 1198 1128 l 1,10,-1
 1079 1078 l 1,11,-1
 748 514 l 1,12,-1
 748 168 l 1,13,-1
 914 110 l 1,14,-1
 902 0 l 1,15,-1
 298 0 l 1,16,-1
 312 106 l 1,17,-1
 466 169 l 1,18,-1
 466 494 l 1,19,-1
 126 1076 l 1,20,-1
 -10 1128 l 1,0,-1
EndSplineSet
EndChar

StartChar: Yacute
Encoding: 221 221 114
Width: 1215
VWidth: 0
Flags: HMW
LayerCount: 2
Fore
SplineSet
502 1420 m 1,0,-1
 616 1734 l 1,1,-1
 838 1706 l 1,2,-1
 656 1393 l 1,3,-1
 502 1420 l 1,0,-1
-10 1128 m 1,4,-1
 12 1244 l 1,5,-1
 596 1244 l 1,6,-1
 576 1128 l 1,7,-1
 460 1079 l 1,8,-1
 673 690 l 1,9,-1
 880 1076 l 1,10,-1
 740 1128 l 1,11,-1
 756 1244 l 1,12,-1
 1216 1244 l 1,13,-1
 1198 1128 l 1,14,-1
 1079 1078 l 1,15,-1
 748 514 l 1,16,-1
 748 168 l 1,17,-1
 914 110 l 1,18,-1
 902 0 l 1,19,-1
 298 0 l 1,20,-1
 312 106 l 1,21,-1
 466 169 l 1,22,-1
 466 494 l 1,23,-1
 126 1076 l 1,24,-1
 -10 1128 l 1,4,-1
EndSplineSet
EndChar

StartChar: Ycircumflex
Encoding: 374 374 115
Width: 1215
VWidth: 0
Flags: HMW
LayerCount: 2
Fore
SplineSet
919 1380 m 1,0,-1
 750 1345 l 1,1,-1
 646 1430 l 1,2,-1
 636 1430 l 1,3,-1
 549 1339 l 1,4,-1
 388 1363 l 1,5,-1
 552 1579 l 1,6,-1
 739 1600 l 1,7,-1
 919 1380 l 1,0,-1
-10 1128 m 1,8,-1
 12 1244 l 1,9,-1
 596 1244 l 1,10,-1
 576 1128 l 1,11,-1
 460 1079 l 1,12,-1
 673 690 l 1,13,-1
 880 1076 l 1,14,-1
 740 1128 l 1,15,-1
 756 1244 l 1,16,-1
 1216 1244 l 1,17,-1
 1198 1128 l 1,18,-1
 1079 1078 l 1,19,-1
 748 514 l 1,20,-1
 748 168 l 1,21,-1
 914 110 l 1,22,-1
 902 0 l 1,23,-1
 298 0 l 1,24,-1
 312 106 l 1,25,-1
 466 169 l 1,26,-1
 466 494 l 1,27,-1
 126 1076 l 1,28,-1
 -10 1128 l 1,8,-1
EndSplineSet
EndChar

StartChar: Ydieresis
Encoding: 376 376 116
Width: 1215
VWidth: 0
Flags: HMW
LayerCount: 2
Fore
SplineSet
681 1487 m 128,-1,1
 681 1526 681 1526 708.5 1553.5 c 128,-1,2
 736 1581 736 1581 790 1581 c 128,-1,3
 844 1581 844 1581 872.5 1554 c 128,-1,4
 901 1527 901 1527 901 1487 c 128,-1,5
 901 1447 901 1447 872.5 1419.5 c 128,-1,6
 844 1392 844 1392 789 1392 c 128,-1,7
 734 1392 734 1392 707.5 1420 c 128,-1,0
 681 1448 681 1448 681 1487 c 128,-1,1
372 1487 m 128,-1,9
 372 1526 372 1526 399.5 1553.5 c 128,-1,10
 427 1581 427 1581 481 1581 c 128,-1,11
 535 1581 535 1581 563.5 1554 c 128,-1,12
 592 1527 592 1527 592 1487 c 128,-1,13
 592 1447 592 1447 563.5 1419.5 c 128,-1,14
 535 1392 535 1392 480 1392 c 128,-1,15
 425 1392 425 1392 398.5 1420 c 128,-1,8
 372 1448 372 1448 372 1487 c 128,-1,9
-10 1128 m 1,16,-1
 12 1244 l 1,17,-1
 596 1244 l 1,18,-1
 576 1128 l 1,19,-1
 460 1079 l 1,20,-1
 673 690 l 1,21,-1
 880 1076 l 1,22,-1
 740 1128 l 1,23,-1
 756 1244 l 1,24,-1
 1216 1244 l 1,25,-1
 1198 1128 l 1,26,-1
 1079 1078 l 1,27,-1
 748 514 l 1,28,-1
 748 168 l 1,29,-1
 914 110 l 1,30,-1
 902 0 l 1,31,-1
 298 0 l 1,32,-1
 312 106 l 1,33,-1
 466 169 l 1,34,-1
 466 494 l 1,35,-1
 126 1076 l 1,36,-1
 -10 1128 l 1,16,-1
EndSplineSet
EndChar

StartChar: Ygrave
Encoding: 7922 7922 117
Width: 1215
VWidth: 0
Flags: HMW
LayerCount: 2
Fore
SplineSet
424 1728 m 1,0,-1
 641 1766 l 1,1,-1
 781 1426 l 1,2,-1
 624 1393 l 1,3,-1
 424 1728 l 1,0,-1
-10 1128 m 1,4,-1
 12 1244 l 1,5,-1
 596 1244 l 1,6,-1
 576 1128 l 1,7,-1
 460 1079 l 1,8,-1
 673 690 l 1,9,-1
 880 1076 l 1,10,-1
 740 1128 l 1,11,-1
 756 1244 l 1,12,-1
 1216 1244 l 1,13,-1
 1198 1128 l 1,14,-1
 1079 1078 l 1,15,-1
 748 514 l 1,16,-1
 748 168 l 1,17,-1
 914 110 l 1,18,-1
 902 0 l 1,19,-1
 298 0 l 1,20,-1
 312 106 l 1,21,-1
 466 169 l 1,22,-1
 466 494 l 1,23,-1
 126 1076 l 1,24,-1
 -10 1128 l 1,4,-1
EndSplineSet
EndChar

StartChar: Z
Encoding: 90 90 118
Width: 1084
VWidth: 0
Flags: HMW
LayerCount: 2
Fore
SplineSet
24 170 m 1,0,-1
 712 1109 l 1,1,-1
 273 1109 l 1,2,-1
 203 858 l 1,3,-1
 58 882 l 1,4,-1
 68 1244 l 1,5,-1
 1048 1244 l 1,6,-1
 1044 1128 l 1,7,-1
 320 153 l 1,8,-1
 784 138 l 1,9,-1
 938 404 l 1,10,-1
 1060 384 l 1,11,-1
 1001 0 l 1,12,-1
 34 0 l 1,13,-1
 24 170 l 1,0,-1
EndSplineSet
EndChar

StartChar: Zacute
Encoding: 377 377 119
Width: 1084
VWidth: 0
Flags: HMW
LayerCount: 2
Fore
SplineSet
466 1420 m 1,0,-1
 580 1734 l 1,1,-1
 802 1706 l 1,2,-1
 620 1393 l 1,3,-1
 466 1420 l 1,0,-1
24 170 m 1,4,-1
 712 1109 l 1,5,-1
 273 1109 l 1,6,-1
 203 858 l 1,7,-1
 58 882 l 1,8,-1
 68 1244 l 1,9,-1
 1048 1244 l 1,10,-1
 1044 1128 l 1,11,-1
 320 153 l 1,12,-1
 784 138 l 1,13,-1
 938 404 l 1,14,-1
 1060 384 l 1,15,-1
 1001 0 l 1,16,-1
 34 0 l 1,17,-1
 24 170 l 1,4,-1
EndSplineSet
EndChar

StartChar: Zcaron
Encoding: 381 381 120
Width: 1084
VWidth: 0
Flags: HMW
LayerCount: 2
Fore
SplineSet
292 1543 m 1,0,-1
 497 1578 l 1,1,-1
 586 1493 l 1,2,-1
 596 1493 l 1,3,-1
 680 1574 l 1,4,-1
 823 1560 l 1,5,-1
 633 1344 l 1,6,-1
 486 1323 l 1,7,-1
 292 1543 l 1,0,-1
24 170 m 1,8,-1
 712 1109 l 1,9,-1
 273 1109 l 1,10,-1
 203 858 l 1,11,-1
 58 882 l 1,12,-1
 68 1244 l 1,13,-1
 1048 1244 l 1,14,-1
 1044 1128 l 1,15,-1
 320 153 l 1,16,-1
 784 138 l 1,17,-1
 938 404 l 1,18,-1
 1060 384 l 1,19,-1
 1001 0 l 1,20,-1
 34 0 l 1,21,-1
 24 170 l 1,8,-1
EndSplineSet
EndChar

StartChar: Zdotaccent
Encoding: 379 379 121
Width: 1084
VWidth: 0
Flags: HMW
LayerCount: 2
Fore
SplineSet
391 1528 m 128,-1,1
 391 1584 391 1584 434 1624.5 c 128,-1,2
 477 1665 477 1665 558 1665 c 128,-1,3
 639 1665 639 1665 682 1625.5 c 128,-1,4
 725 1586 725 1586 725 1528.5 c 128,-1,5
 725 1471 725 1471 682 1432 c 128,-1,6
 639 1393 639 1393 555 1393 c 128,-1,7
 471 1393 471 1393 431 1432.5 c 128,-1,0
 391 1472 391 1472 391 1528 c 128,-1,1
24 170 m 1,8,-1
 712 1109 l 1,9,-1
 273 1109 l 1,10,-1
 203 858 l 1,11,-1
 58 882 l 1,12,-1
 68 1244 l 1,13,-1
 1048 1244 l 1,14,-1
 1044 1128 l 1,15,-1
 320 153 l 1,16,-1
 784 138 l 1,17,-1
 938 404 l 1,18,-1
 1060 384 l 1,19,-1
 1001 0 l 1,20,-1
 34 0 l 1,21,-1
 24 170 l 1,8,-1
EndSplineSet
EndChar

StartChar: a
Encoding: 97 97 122
Width: 881
VWidth: 0
Flags: HMW
LayerCount: 2
Fore
SplineSet
260 247 m 0,0,1
 260 210 260 210 285.5 181 c 128,-1,2
 311 152 311 152 365.5 152 c 128,-1,3
 420 152 420 152 483 211 c 1,4,-1
 483 413 l 1,5,6
 260 376 260 376 260 247 c 0,0,1
24 178 m 0,7,8
 24 308 24 308 142.5 399.5 c 128,-1,9
 261 491 261 491 483 499 c 1,10,-1
 483 574 l 2,11,12
 483 665 483 665 444 726 c 128,-1,13
 405 787 405 787 342.5 787 c 128,-1,14
 280 787 280 787 263 743 c 128,-1,15
 246 699 246 699 236 572 c 1,16,17
 102 572 102 572 68 627 c 0,18,19
 52 652 52 652 52 697.5 c 128,-1,20
 52 743 52 743 117 798.5 c 128,-1,21
 182 854 182 854 277.5 889 c 128,-1,22
 373 924 373 924 458 924 c 0,23,24
 718 924 718 924 718 617 c 2,25,-1
 718 268 l 2,26,27
 718 227 718 227 721.5 218.5 c 128,-1,28
 725 210 725 210 729.5 198 c 128,-1,29
 734 186 734 186 740.5 182 c 128,-1,30
 747 178 747 178 760 169 c 0,31,32
 773 160 773 160 813 153 c 2,33,-1
 852 146 l 1,34,-1
 833 18 l 1,35,36
 770 -21 770 -21 683.5 -21 c 128,-1,37
 597 -21 597 -21 562 14 c 0,38,39
 527 49 527 49 511 125 c 1,40,-1
 499 128 l 1,41,42
 475 72 475 72 400.5 24 c 128,-1,43
 326 -24 326 -24 232.5 -24 c 128,-1,44
 139 -24 139 -24 81.5 28.5 c 128,-1,45
 24 81 24 81 24 178 c 0,7,8
EndSplineSet
EndChar

StartChar: aacute
Encoding: 225 225 123
Width: 881
VWidth: 0
Flags: HMW
LayerCount: 2
Fore
SplineSet
346 1076 m 1,0,-1
 460 1390 l 1,1,-1
 682 1362 l 1,2,-1
 500 1049 l 1,3,-1
 346 1076 l 1,0,-1
260 247 m 0,4,5
 260 210 260 210 285.5 181 c 128,-1,6
 311 152 311 152 365.5 152 c 128,-1,7
 420 152 420 152 483 211 c 1,8,-1
 483 413 l 1,9,10
 260 376 260 376 260 247 c 0,4,5
24 178 m 0,11,12
 24 308 24 308 142.5 399.5 c 128,-1,13
 261 491 261 491 483 499 c 1,14,-1
 483 574 l 2,15,16
 483 665 483 665 444 726 c 128,-1,17
 405 787 405 787 342.5 787 c 128,-1,18
 280 787 280 787 263 743 c 128,-1,19
 246 699 246 699 236 572 c 1,20,21
 102 572 102 572 68 627 c 0,22,23
 52 652 52 652 52 697.5 c 128,-1,24
 52 743 52 743 117 798.5 c 128,-1,25
 182 854 182 854 277.5 889 c 128,-1,26
 373 924 373 924 458 924 c 0,27,28
 718 924 718 924 718 617 c 2,29,-1
 718 268 l 2,30,31
 718 227 718 227 721.5 218.5 c 128,-1,32
 725 210 725 210 729.5 198 c 128,-1,33
 734 186 734 186 740.5 182 c 128,-1,34
 747 178 747 178 760 169 c 0,35,36
 773 160 773 160 813 153 c 2,37,-1
 852 146 l 1,38,-1
 833 18 l 1,39,40
 770 -21 770 -21 683.5 -21 c 128,-1,41
 597 -21 597 -21 562 14 c 0,42,43
 527 49 527 49 511 125 c 1,44,-1
 499 128 l 1,45,46
 475 72 475 72 400.5 24 c 128,-1,47
 326 -24 326 -24 232.5 -24 c 128,-1,48
 139 -24 139 -24 81.5 28.5 c 128,-1,49
 24 81 24 81 24 178 c 0,11,12
EndSplineSet
EndChar

StartChar: abreve
Encoding: 259 259 124
Width: 881
VWidth: 0
Flags: HMW
LayerCount: 2
Fore
SplineSet
458 1213 m 0,0,1
 556 1213 556 1213 601 1289 c 1,2,-1
 663 1242 l 1,3,4
 636 1163 636 1163 584 1106 c 0,5,6
 532 1049 532 1049 472 1049 c 0,7,8
 366 1049 366 1049 319 1109 c 128,-1,9
 272 1169 272 1169 254 1242 c 1,10,-1
 327 1289 l 1,11,12
 349 1252 349 1252 378 1232.5 c 128,-1,13
 407 1213 407 1213 458 1213 c 0,0,1
260 247 m 0,14,15
 260 210 260 210 285.5 181 c 128,-1,16
 311 152 311 152 365.5 152 c 128,-1,17
 420 152 420 152 483 211 c 1,18,-1
 483 413 l 1,19,20
 260 376 260 376 260 247 c 0,14,15
24 178 m 0,21,22
 24 308 24 308 142.5 399.5 c 128,-1,23
 261 491 261 491 483 499 c 1,24,-1
 483 574 l 2,25,26
 483 665 483 665 444 726 c 128,-1,27
 405 787 405 787 342.5 787 c 128,-1,28
 280 787 280 787 263 743 c 128,-1,29
 246 699 246 699 236 572 c 1,30,31
 102 572 102 572 68 627 c 0,32,33
 52 652 52 652 52 697.5 c 128,-1,34
 52 743 52 743 117 798.5 c 128,-1,35
 182 854 182 854 277.5 889 c 128,-1,36
 373 924 373 924 458 924 c 0,37,38
 718 924 718 924 718 617 c 2,39,-1
 718 268 l 2,40,41
 718 227 718 227 721.5 218.5 c 128,-1,42
 725 210 725 210 729.5 198 c 128,-1,43
 734 186 734 186 740.5 182 c 128,-1,44
 747 178 747 178 760 169 c 128,-1,45
 773 160 773 160 813 153 c 2,46,-1
 852 146 l 1,47,-1
 833 18 l 1,48,49
 770 -21 770 -21 683.5 -21 c 128,-1,50
 597 -21 597 -21 562 14.5 c 128,-1,51
 527 50 527 50 511 125 c 1,52,-1
 499 128 l 1,53,54
 475 72 475 72 400.5 24 c 128,-1,55
 326 -24 326 -24 232.5 -24 c 128,-1,56
 139 -24 139 -24 81.5 28.5 c 128,-1,57
 24 81 24 81 24 178 c 0,21,22
EndSplineSet
EndChar

StartChar: acaron
Encoding: 462 462 125
Width: 881
VWidth: 0
Flags: HMW
LayerCount: 2
Fore
SplineSet
192 1200 m 1,0,-1
 397 1235 l 1,1,-1
 486 1150 l 1,2,-1
 496 1150 l 1,3,-1
 580 1231 l 1,4,-1
 723 1217 l 1,5,-1
 533 1001 l 1,6,-1
 386 980 l 1,7,-1
 192 1200 l 1,0,-1
260 247 m 0,8,9
 260 210 260 210 285.5 181 c 128,-1,10
 311 152 311 152 365.5 152 c 128,-1,11
 420 152 420 152 483 211 c 1,12,-1
 483 413 l 1,13,14
 260 376 260 376 260 247 c 0,8,9
24 178 m 0,15,16
 24 308 24 308 142.5 399.5 c 128,-1,17
 261 491 261 491 483 499 c 1,18,-1
 483 574 l 2,19,20
 483 665 483 665 444 726 c 128,-1,21
 405 787 405 787 342.5 787 c 128,-1,22
 280 787 280 787 263 743 c 128,-1,23
 246 699 246 699 236 572 c 1,24,25
 102 572 102 572 68 627 c 0,26,27
 52 652 52 652 52 697.5 c 128,-1,28
 52 743 52 743 117 798.5 c 128,-1,29
 182 854 182 854 277.5 889 c 128,-1,30
 373 924 373 924 458 924 c 0,31,32
 718 924 718 924 718 617 c 2,33,-1
 718 268 l 2,34,35
 718 227 718 227 721.5 218.5 c 128,-1,36
 725 210 725 210 729.5 198 c 128,-1,37
 734 186 734 186 740.5 182 c 128,-1,38
 747 178 747 178 760 169 c 0,39,40
 773 160 773 160 813 153 c 2,41,-1
 852 146 l 1,42,-1
 833 18 l 1,43,44
 770 -21 770 -21 683.5 -21 c 128,-1,45
 597 -21 597 -21 562 14 c 0,46,47
 527 49 527 49 511 125 c 1,48,-1
 499 128 l 1,49,50
 475 72 475 72 400.5 24 c 128,-1,51
 326 -24 326 -24 232.5 -24 c 128,-1,52
 139 -24 139 -24 81.5 28.5 c 128,-1,53
 24 81 24 81 24 178 c 0,15,16
EndSplineSet
EndChar

StartChar: acircumflex
Encoding: 226 226 126
Width: 881
VWidth: 0
Flags: HMW
LayerCount: 2
Fore
SplineSet
683 1037 m 1,0,-1
 514 1002 l 1,1,-1
 410 1087 l 1,2,-1
 400 1087 l 1,3,-1
 313 996 l 1,4,-1
 152 1020 l 1,5,-1
 316 1236 l 1,6,-1
 503 1257 l 1,7,-1
 683 1037 l 1,0,-1
260 247 m 0,8,9
 260 210 260 210 285.5 181 c 128,-1,10
 311 152 311 152 365.5 152 c 128,-1,11
 420 152 420 152 483 211 c 1,12,-1
 483 413 l 1,13,14
 260 376 260 376 260 247 c 0,8,9
24 178 m 0,15,16
 24 308 24 308 142.5 399.5 c 128,-1,17
 261 491 261 491 483 499 c 1,18,-1
 483 574 l 2,19,20
 483 665 483 665 444 726 c 128,-1,21
 405 787 405 787 342.5 787 c 128,-1,22
 280 787 280 787 263 743 c 128,-1,23
 246 699 246 699 236 572 c 1,24,25
 102 572 102 572 68 627 c 0,26,27
 52 652 52 652 52 697.5 c 128,-1,28
 52 743 52 743 117 798.5 c 128,-1,29
 182 854 182 854 277.5 889 c 128,-1,30
 373 924 373 924 458 924 c 0,31,32
 718 924 718 924 718 617 c 2,33,-1
 718 268 l 2,34,35
 718 227 718 227 721.5 218.5 c 128,-1,36
 725 210 725 210 729.5 198 c 128,-1,37
 734 186 734 186 740.5 182 c 128,-1,38
 747 178 747 178 760 169 c 0,39,40
 773 160 773 160 813 153 c 2,41,-1
 852 146 l 1,42,-1
 833 18 l 1,43,44
 770 -21 770 -21 683.5 -21 c 128,-1,45
 597 -21 597 -21 562 14 c 0,46,47
 527 49 527 49 511 125 c 1,48,-1
 499 128 l 1,49,50
 475 72 475 72 400.5 24 c 128,-1,51
 326 -24 326 -24 232.5 -24 c 128,-1,52
 139 -24 139 -24 81.5 28.5 c 128,-1,53
 24 81 24 81 24 178 c 0,15,16
EndSplineSet
EndChar

StartChar: acute
Encoding: 180 180 127
Width: 480
VWidth: 0
Flags: HMW
LayerCount: 2
Fore
SplineSet
88 1390 m 1,0,-1
 202 1704 l 1,1,-1
 424 1676 l 1,2,-1
 242 1363 l 1,3,-1
 88 1390 l 1,0,-1
EndSplineSet
Colour: ffffff
EndChar

StartChar: adieresis
Encoding: 228 228 128
Width: 881
VWidth: 0
Flags: HMW
LayerCount: 2
Fore
SplineSet
453 1144 m 128,-1,1
 453 1183 453 1183 480.5 1210.5 c 128,-1,2
 508 1238 508 1238 562 1238 c 128,-1,3
 616 1238 616 1238 644.5 1211 c 128,-1,4
 673 1184 673 1184 673 1144 c 128,-1,5
 673 1104 673 1104 644.5 1076.5 c 128,-1,6
 616 1049 616 1049 561 1049 c 128,-1,7
 506 1049 506 1049 479.5 1077 c 128,-1,0
 453 1105 453 1105 453 1144 c 128,-1,1
144 1144 m 128,-1,9
 144 1183 144 1183 171.5 1210.5 c 128,-1,10
 199 1238 199 1238 253 1238 c 128,-1,11
 307 1238 307 1238 335.5 1211 c 128,-1,12
 364 1184 364 1184 364 1144 c 128,-1,13
 364 1104 364 1104 335.5 1076.5 c 128,-1,14
 307 1049 307 1049 252 1049 c 128,-1,15
 197 1049 197 1049 170.5 1077 c 128,-1,8
 144 1105 144 1105 144 1144 c 128,-1,9
260 247 m 0,16,17
 260 210 260 210 285.5 181 c 128,-1,18
 311 152 311 152 365.5 152 c 128,-1,19
 420 152 420 152 483 211 c 1,20,-1
 483 413 l 1,21,22
 260 376 260 376 260 247 c 0,16,17
24 178 m 0,23,24
 24 308 24 308 142.5 399.5 c 128,-1,25
 261 491 261 491 483 499 c 1,26,-1
 483 574 l 2,27,28
 483 665 483 665 444 726 c 128,-1,29
 405 787 405 787 342.5 787 c 128,-1,30
 280 787 280 787 263 743 c 128,-1,31
 246 699 246 699 236 572 c 1,32,33
 102 572 102 572 68 627 c 0,34,35
 52 652 52 652 52 697.5 c 128,-1,36
 52 743 52 743 117 798.5 c 128,-1,37
 182 854 182 854 277.5 889 c 128,-1,38
 373 924 373 924 458 924 c 0,39,40
 718 924 718 924 718 617 c 2,41,-1
 718 268 l 2,42,43
 718 227 718 227 721.5 218.5 c 128,-1,44
 725 210 725 210 729.5 198 c 128,-1,45
 734 186 734 186 740.5 182 c 128,-1,46
 747 178 747 178 760 169 c 128,-1,47
 773 160 773 160 813 153 c 2,48,-1
 852 146 l 1,49,-1
 833 18 l 1,50,51
 770 -21 770 -21 683.5 -21 c 128,-1,52
 597 -21 597 -21 562 14.5 c 128,-1,53
 527 50 527 50 511 125 c 1,54,-1
 499 128 l 1,55,56
 475 72 475 72 400.5 24 c 128,-1,57
 326 -24 326 -24 232.5 -24 c 128,-1,58
 139 -24 139 -24 81.5 28.5 c 128,-1,59
 24 81 24 81 24 178 c 0,23,24
EndSplineSet
EndChar

StartChar: ae
Encoding: 230 230 129
Width: 1265
VWidth: 0
Flags: HMW
LayerCount: 2
Fore
SplineSet
970 626 m 128,-1,1
 970 683 970 683 942.5 727.5 c 128,-1,2
 915 772 915 772 858 772 c 128,-1,3
 801 772 801 772 762.5 701.5 c 128,-1,4
 724 631 724 631 721 512 c 1,5,-1
 962 537 l 1,6,0
 970 569 970 569 970 626 c 128,-1,1
258 233 m 128,-1,8
 258 196 258 196 283.5 170 c 128,-1,9
 309 144 309 144 352 144 c 128,-1,10
 395 144 395 144 433.5 174 c 128,-1,11
 472 204 472 204 482 248 c 1,12,-1
 482 404 l 1,13,14
 300 377 300 377 267 293 c 0,15,7
 258 270 258 270 258 233 c 128,-1,8
22 172 m 0,16,17
 22 301 22 301 134 388 c 128,-1,18
 246 475 246 475 482 498 c 1,19,-1
 482 574 l 2,20,21
 482 662 482 662 445 718 c 128,-1,22
 408 774 408 774 348.5 774 c 128,-1,23
 289 774 289 774 268 733.5 c 128,-1,24
 247 693 247 693 231 588 c 1,25,26
 166 582 166 582 113 610.5 c 128,-1,27
 60 639 60 639 60 704 c 128,-1,28
 60 769 60 769 129.5 819.5 c 128,-1,29
 199 870 199 870 289 897 c 128,-1,30
 379 924 379 924 452 924 c 0,31,32
 609 924 609 924 662 830 c 1,33,34
 777 924 777 924 916.5 924 c 128,-1,35
 1056 924 1056 924 1139 831 c 128,-1,36
 1222 738 1222 738 1222 580 c 0,37,38
 1222 510 1222 510 1202 423 c 1,39,-1
 722 412 l 1,40,41
 728 297 728 297 797.5 219.5 c 128,-1,42
 867 142 867 142 987.5 142 c 128,-1,43
 1108 142 1108 142 1224 205 c 1,44,-1
 1243 113 l 1,45,46
 1182 41 1182 41 1080 5.5 c 128,-1,47
 978 -30 978 -30 866.5 -30 c 128,-1,48
 755 -30 755 -30 669 16 c 128,-1,49
 583 62 583 62 548 147 c 1,50,51
 473 -24 473 -24 222 -24 c 0,52,53
 138 -24 138 -24 80 26.5 c 128,-1,54
 22 77 22 77 22 172 c 0,16,17
EndSplineSet
EndChar

StartChar: agrave
Encoding: 224 224 130
Width: 881
VWidth: 0
Flags: HMW
LayerCount: 2
Fore
SplineSet
228 1384 m 1,0,-1
 445 1422 l 1,1,-1
 585 1082 l 1,2,-1
 428 1049 l 1,3,-1
 228 1384 l 1,0,-1
260 247 m 0,4,5
 260 210 260 210 285.5 181 c 128,-1,6
 311 152 311 152 365.5 152 c 128,-1,7
 420 152 420 152 483 211 c 1,8,-1
 483 413 l 1,9,10
 260 376 260 376 260 247 c 0,4,5
24 178 m 0,11,12
 24 308 24 308 142.5 399.5 c 128,-1,13
 261 491 261 491 483 499 c 1,14,-1
 483 574 l 2,15,16
 483 665 483 665 444 726 c 128,-1,17
 405 787 405 787 342.5 787 c 128,-1,18
 280 787 280 787 263 743 c 128,-1,19
 246 699 246 699 236 572 c 1,20,21
 102 572 102 572 68 627 c 0,22,23
 52 652 52 652 52 697.5 c 128,-1,24
 52 743 52 743 117 798.5 c 128,-1,25
 182 854 182 854 277.5 889 c 128,-1,26
 373 924 373 924 458 924 c 0,27,28
 718 924 718 924 718 617 c 2,29,-1
 718 268 l 2,30,31
 718 227 718 227 721.5 218.5 c 128,-1,32
 725 210 725 210 729.5 198 c 128,-1,33
 734 186 734 186 740.5 182 c 128,-1,34
 747 178 747 178 760 169 c 0,35,36
 773 160 773 160 813 153 c 2,37,-1
 852 146 l 1,38,-1
 833 18 l 1,39,40
 770 -21 770 -21 683.5 -21 c 128,-1,41
 597 -21 597 -21 562 14 c 0,42,43
 527 49 527 49 511 125 c 1,44,-1
 499 128 l 1,45,46
 475 72 475 72 400.5 24 c 128,-1,47
 326 -24 326 -24 232.5 -24 c 128,-1,48
 139 -24 139 -24 81.5 28.5 c 128,-1,49
 24 81 24 81 24 178 c 0,11,12
EndSplineSet
EndChar

StartChar: amacron
Encoding: 257 257 131
Width: 881
VWidth: 0
Flags: HMW
LayerCount: 2
Fore
SplineSet
226 1049 m 1,0,-1
 243 1196 l 1,1,-1
 690 1196 l 1,2,-1
 673 1049 l 1,3,-1
 226 1049 l 1,0,-1
260 247 m 0,4,5
 260 210 260 210 285.5 181 c 128,-1,6
 311 152 311 152 365.5 152 c 128,-1,7
 420 152 420 152 483 211 c 1,8,-1
 483 413 l 1,9,10
 260 376 260 376 260 247 c 0,4,5
24 178 m 0,11,12
 24 308 24 308 142.5 399.5 c 128,-1,13
 261 491 261 491 483 499 c 1,14,-1
 483 574 l 2,15,16
 483 665 483 665 444 726 c 128,-1,17
 405 787 405 787 342.5 787 c 128,-1,18
 280 787 280 787 263 743 c 128,-1,19
 246 699 246 699 236 572 c 1,20,21
 102 572 102 572 68 627 c 0,22,23
 52 652 52 652 52 697.5 c 128,-1,24
 52 743 52 743 117 798.5 c 128,-1,25
 182 854 182 854 277.5 889 c 128,-1,26
 373 924 373 924 458 924 c 0,27,28
 718 924 718 924 718 617 c 2,29,-1
 718 268 l 2,30,31
 718 227 718 227 721.5 218.5 c 128,-1,32
 725 210 725 210 729.5 198 c 128,-1,33
 734 186 734 186 740.5 182 c 128,-1,34
 747 178 747 178 760 169 c 0,35,36
 773 160 773 160 813 153 c 2,37,-1
 852 146 l 1,38,-1
 833 18 l 1,39,40
 770 -21 770 -21 683.5 -21 c 128,-1,41
 597 -21 597 -21 562 14 c 0,42,43
 527 49 527 49 511 125 c 1,44,-1
 499 128 l 1,45,46
 475 72 475 72 400.5 24 c 128,-1,47
 326 -24 326 -24 232.5 -24 c 128,-1,48
 139 -24 139 -24 81.5 28.5 c 128,-1,49
 24 81 24 81 24 178 c 0,11,12
EndSplineSet
EndChar

StartChar: ampersand
Encoding: 38 38 132
Width: 1333
VWidth: 0
Flags: HMW
LayerCount: 2
Fore
SplineSet
399 1024.5 m 128,-1,1
 399 974 399 974 439.5 915 c 128,-1,2
 480 856 480 856 531 810 c 1,3,4
 573 847 573 847 593.5 884.5 c 128,-1,5
 614 922 614 922 614 989 c 128,-1,6
 614 1056 614 1056 584 1100.5 c 128,-1,7
 554 1145 554 1145 505 1145 c 128,-1,8
 456 1145 456 1145 427.5 1110 c 128,-1,0
 399 1075 399 1075 399 1024.5 c 128,-1,1
276 401 m 128,-1,10
 276 293 276 293 328.5 223.5 c 128,-1,11
 381 154 381 154 454 154 c 0,12,13
 580 154 580 154 668 288 c 1,14,-1
 397 588 l 1,15,-1
 384 591 l 1,16,9
 276 509 276 509 276 401 c 128,-1,10
822 1018 m 0,17,18
 822 848 822 848 629 724 c 1,19,-1
 629 710 l 1,20,-1
 818 506 l 1,21,-1
 971 730 l 1,22,-1
 855 770 l 1,23,-1
 872 888 l 1,24,-1
 1320 888 l 1,25,-1
 1304 770 l 1,26,-1
 1132 722 l 1,27,-1
 918 405 l 1,28,29
 1150 159 1150 159 1246 120 c 1,30,-1
 1285 106 l 1,31,-1
 1262 3 l 1,32,33
 1195 -18 1195 -18 1112 -18 c 0,34,35
 962 -18 962 -18 828 124 c 1,36,-1
 767 187 l 1,37,38
 608 -24 608 -24 380 -24 c 0,39,40
 221 -24 221 -24 118.5 52.5 c 128,-1,41
 16 129 16 129 16 296 c 0,42,43
 16 427 16 427 91.5 517 c 128,-1,44
 167 607 167 607 309 683 c 1,45,46
 254 732 254 732 219 807 c 128,-1,47
 184 882 184 882 184 954 c 0,48,49
 184 1088 184 1088 292.5 1180 c 128,-1,50
 401 1272 401 1272 533 1272 c 128,-1,51
 665 1272 665 1272 743.5 1208 c 128,-1,52
 822 1144 822 1144 822 1018 c 0,17,18
EndSplineSet
EndChar

StartChar: ampersand.osf
Encoding: 65537 -1 133
Width: 1169
VWidth: 0
Flags: HMW
LayerCount: 2
Fore
SplineSet
296 257 m 0,0,1
 296 211 296 211 327.5 172 c 128,-1,2
 359 133 359 133 426 133 c 128,-1,3
 493 133 493 133 565 185 c 1,4,-1
 365 413 l 1,5,6
 296 346 296 346 296 257 c 0,0,1
54 210 m 0,7,8
 54 357 54 357 217 462 c 0,9,10
 245 480 245 480 286 504 c 1,11,-1
 255 540 l 1,12,13
 165 641 165 641 165 745 c 128,-1,14
 165 849 165 849 252 928.5 c 128,-1,15
 339 1008 339 1008 453 1008 c 0,16,17
 568 1008 568 1008 640 950 c 0,18,19
 747 864 747 864 697 713 c 0,20,21
 667 621 667 621 542 537 c 1,22,-1
 708 348 l 1,23,24
 743 403 743 403 777 474 c 1,25,-1
 678 529 l 1,26,-1
 696 632 l 1,27,-1
 1092 632 l 1,28,-1
 1076 529 l 1,29,-1
 922 478 l 1,30,31
 847 351 847 351 782 264 c 1,32,33
 845 193 845 193 900 164 c 128,-1,34
 955 135 955 135 1027 116 c 1,35,-1
 1055 108 l 1,36,-1
 1033 6 l 1,37,38
 963 -16 963 -16 891 -16 c 0,39,40
 759 -16 759 -16 638 103 c 1,41,42
 498 -18 498 -18 327 -18 c 0,43,44
 202 -18 202 -18 128 40.5 c 128,-1,45
 54 99 54 99 54 210 c 0,7,8
528 758 m 128,-1,47
 528 832 528 832 496.5 868.5 c 128,-1,48
 465 905 465 905 433.5 905 c 128,-1,49
 402 905 402 905 382 876 c 0,50,51
 362 848 362 848 362 808 c 0,52,53
 362 741 362 741 466 623 c 1,54,46
 528 684 528 684 528 758 c 128,-1,47
EndSplineSet
EndChar

StartChar: aogonek
Encoding: 261 261 134
Width: 881
VWidth: 0
Flags: HMW
LayerCount: 2
Fore
SplineSet
260 247 m 0,0,1
 260 210 260 210 285.5 181 c 128,-1,2
 311 152 311 152 365.5 152 c 128,-1,3
 420 152 420 152 483 211 c 1,4,-1
 483 413 l 1,5,6
 260 376 260 376 260 247 c 0,0,1
24 178 m 0,7,8
 24 308 24 308 142.5 399.5 c 128,-1,9
 261 491 261 491 483 499 c 1,10,-1
 483 574 l 2,11,12
 483 665 483 665 444 726 c 128,-1,13
 405 787 405 787 342.5 787 c 128,-1,14
 280 787 280 787 263 743 c 128,-1,15
 246 699 246 699 236 572 c 1,16,17
 102 572 102 572 68 627 c 0,18,19
 52 652 52 652 52 697.5 c 128,-1,20
 52 743 52 743 117 798.5 c 128,-1,21
 182 854 182 854 277.5 889 c 128,-1,22
 373 924 373 924 458 924 c 0,23,24
 718 924 718 924 718 617 c 2,25,-1
 718 268 l 2,26,27
 718 227 718 227 721.5 218.5 c 128,-1,28
 725 210 725 210 729.5 198 c 128,-1,29
 734 186 734 186 740.5 182 c 128,-1,30
 747 178 747 178 760 169 c 0,31,32
 773 160 773 160 813 153 c 2,33,-1
 852 146 l 1,34,-1
 833 18 l 1,35,36
 815 7 815 7 799 -0 c 1,37,38
 757 -96 757 -96 772.5 -168 c 128,-1,39
 788 -240 788 -240 872 -301 c 1,40,-1
 843 -373 l 1,41,42
 725 -364 725 -364 645 -314 c 128,-1,43
 565 -264 565 -264 565 -190 c 0,44,45
 565 -144 565 -144 586.5 -106 c 128,-1,46
 608 -68 608 -68 662 -21 c 1,47,48
 592 -18 592 -18 559 17 c 0,49,50
 526 52 526 52 511 125 c 1,51,-1
 499 128 l 1,52,53
 475 72 475 72 400.5 24 c 128,-1,54
 326 -24 326 -24 232.5 -24 c 128,-1,55
 139 -24 139 -24 81.5 28.5 c 128,-1,56
 24 81 24 81 24 178 c 0,7,8
EndSplineSet
EndChar

StartChar: approxequal
Encoding: 8776 8776 135
Width: 942
VWidth: 0
Flags: HMW
LayerCount: 2
Back
SplineSet
36.6953 504 m 1,0,1
 32.3735 548.145 32.3735 548.145 39.1833 591.508 c 0
 45.9931 634.871 45.9931 634.871 64.7593 674.624 c 0
 83.5254 714.377 83.5254 714.377 115.391 741.636 c 0
 147.257 768.895 147.257 768.895 193.047 780.832 c 0
 238.837 792.769 238.837 792.769 299.695 780.5 c 1,2,-1
 695.195 717 l 2,3,4
 730.013 710.431 730.013 710.431 756.511 738.152 c 0
 783.01 765.874 783.01 765.874 789.695 791.5 c 1,5,-1
 908.695 782 l 1,6,7
 908.695 631.225 908.695 631.225 834.687 559.908 c 0
 760.679 488.591 760.679 488.591 622.695 517 c 1,8,-1
 240.195 580.5 l 2,9,10
 226.696 583.261 226.696 583.261 214.875 580.465 c 0
 203.054 577.668 203.054 577.668 194.613 570.302 c 0
 186.172 562.936 186.172 562.936 179.481 554.351 c 0
 172.791 545.765 172.791 545.765 168.123 534.812 c 0
 163.454 523.859 163.454 523.859 160.706 516.167 c 0
 157.958 508.475 157.958 508.475 155.872 500.617 c 0
 153.786 492.759 153.786 492.759 153.695 492.5 c 2,11,-1
 36.6953 504 l 1,0,1
36.6953 431 m 1,12,13
 32.3814 478.453 32.3814 478.453 39.0823 522.677 c 0
 45.7833 566.901 45.7833 566.901 64.4564 606.192 c 0
 83.1295 645.483 83.1295 645.483 114.937 671.468 c 0
 146.744 697.454 146.744 697.454 192.643 708.43 c 0
 238.542 719.406 238.542 719.406 299.695 707 c 1,14,-1
 695.195 643.5 l 2,15,16
 716.157 639.721 716.157 639.721 734.375 647.849 c 0
 752.593 655.978 752.593 655.978 763.717 670.691 c 0
 774.841 685.404 774.841 685.404 781.135 697.545 c 0
 787.428 709.685 787.428 709.685 789.695 718.5 c 1,17,-1
 908.695 708.5 l 1,18,19
 909.847 555.604 909.847 555.604 838.022 485.489 c 0
 766.196 415.373 766.196 415.373 622.695 444 c 1,20,-1
 240.195 507 l 2,21,22
 219.175 510.999 219.175 510.999 202.534 503.457 c 0
 185.892 495.916 185.892 495.916 177.155 482.297 c 0
 168.418 468.677 168.418 468.677 162.684 454.486 c 0
 156.95 440.296 156.95 440.296 155.323 429.898 c 2
 153.695 419.5 l 1,23,-1
 36.6953 431 l 1,12,13
EndSplineSet
Fore
SplineSet
59 221 m 1,0,1
 49 336 49 336 108 420 c 0,2,3
 167 504 167 504 309 477 c 1,4,-1
 684 419 l 2,5,6
 721 413 721 413 745 438.5 c 128,-1,7
 769 464 769 464 774 487 c 1,8,-1
 887 478 l 1,9,10
 889 336 889 336 821 271.5 c 128,-1,11
 753 207 753 207 616 233 c 1,12,-1
 252 291 l 1,13,14
 202 301 202 301 178 242 c 0,15,16
 172 229 172 229 170 210 c 1,17,-1
 59 221 l 1,0,1
59 509 m 1,18,19
 51 595 51 595 77.5 650 c 128,-1,20
 104 705 104 705 134 730 c 0,21,22
 202 786 202 786 309 766 c 1,23,-1
 684 707 l 2,24,25
 717 701 717 701 742 727 c 128,-1,26
 767 753 767 753 774 777 c 1,27,-1
 887 767 l 1,28,29
 887 627 887 627 817 561 c 128,-1,30
 747 495 747 495 616 521 c 1,31,-1
 252 580 l 1,32,33
 196 591 196 591 172 507 c 2,34,-1
 170 498 l 1,35,-1
 59 509 l 1,18,19
EndSplineSet
Colour: ffffff
EndChar

StartChar: aring
Encoding: 229 229 136
Width: 881
VWidth: 0
Flags: HMW
LayerCount: 2
Fore
SplineSet
384.5 1157 m 128,-1,1
 401 1150 401 1150 418 1150 c 1,2,3
 466 1153 466 1153 468 1202 c 1,4,5
 468 1251 468 1251 412 1251 c 0,6,7
 391 1251 391 1251 379.5 1236 c 128,-1,8
 368 1221 368 1221 368 1192.5 c 128,-1,0
 368 1164 368 1164 384.5 1157 c 128,-1,1
423 1359 m 0,9,10
 638 1359 638 1359 638 1204 c 0,11,12
 638 1133 638 1133 580 1087.5 c 128,-1,13
 522 1042 522 1042 410 1042 c 0,14,15
 202 1042 202 1042 202 1195 c 0,16,17
 202 1267 202 1267 260 1313 c 128,-1,18
 318 1359 318 1359 423 1359 c 0,9,10
260 247 m 0,19,20
 260 210 260 210 285.5 181 c 128,-1,21
 311 152 311 152 365.5 152 c 128,-1,22
 420 152 420 152 483 211 c 1,23,-1
 483 413 l 1,24,25
 260 376 260 376 260 247 c 0,19,20
24 178 m 0,26,27
 24 308 24 308 142.5 399.5 c 128,-1,28
 261 491 261 491 483 499 c 1,29,-1
 483 574 l 2,30,31
 483 665 483 665 444 726 c 128,-1,32
 405 787 405 787 342.5 787 c 128,-1,33
 280 787 280 787 263 743 c 128,-1,34
 246 699 246 699 236 572 c 1,35,36
 102 572 102 572 68 627 c 0,37,38
 52 652 52 652 52 697.5 c 128,-1,39
 52 743 52 743 117 798.5 c 128,-1,40
 182 854 182 854 277.5 889 c 128,-1,41
 373 924 373 924 458 924 c 0,42,43
 718 924 718 924 718 617 c 2,44,-1
 718 268 l 2,45,46
 718 227 718 227 721.5 218.5 c 128,-1,47
 725 210 725 210 729.5 198 c 128,-1,48
 734 186 734 186 740.5 182 c 128,-1,49
 747 178 747 178 760 169 c 128,-1,50
 773 160 773 160 813 153 c 2,51,-1
 852 146 l 1,52,-1
 833 18 l 1,53,54
 770 -21 770 -21 683.5 -21 c 128,-1,55
 597 -21 597 -21 562 14.5 c 128,-1,56
 527 50 527 50 511 125 c 1,57,-1
 499 128 l 1,58,59
 475 72 475 72 400.5 24 c 128,-1,60
 326 -24 326 -24 232.5 -24 c 128,-1,61
 139 -24 139 -24 81.5 28.5 c 128,-1,62
 24 81 24 81 24 178 c 0,26,27
EndSplineSet
EndChar

StartChar: asciicircum
Encoding: 94 94 137
Width: 680
VWidth: 0
Flags: HMW
LayerCount: 2
Fore
SplineSet
21 826 m 1,0,-1
 286 1237 l 1,1,-1
 386 1250 l 1,2,-1
 660 824 l 1,3,-1
 571 788 l 1,4,-1
 328 1018 l 1,5,-1
 317 1018 l 1,6,-1
 103 794 l 1,7,-1
 21 826 l 1,0,-1
EndSplineSet
EndChar

StartChar: asciitilde
Encoding: 126 126 138
Width: 885
VWidth: 0
Flags: HMW
LayerCount: 2
Fore
SplineSet
43 347 m 1,0,1
 40 438 40 438 68 502 c 0,2,3
 96 566 96 566 125 598 c 0,4,5
 191 672 191 672 307 654 c 2,6,-1
 703 590 l 2,7,8
 739 584 739 584 762.5 603 c 128,-1,9
 786 622 786 622 792 644 c 2,10,-1
 797 665 l 1,11,-1
 916 655 l 1,12,13
 914 502 914 502 841.5 416 c 128,-1,14
 769 330 769 330 630 355 c 2,15,-1
 247 424 l 2,16,17
 212 430 212 430 190 408 c 0,18,19
 168 386 168 386 164 361 c 2,20,-1
 160 336 l 1,21,-1
 43 347 l 1,0,1
EndSplineSet
EndChar

StartChar: asterisk
Encoding: 42 42 139
Width: 774
VWidth: 0
Flags: HMW
LayerCount: 2
Fore
SplineSet
164 1102 m 1,0,-1
 273 1184 l 1,1,-1
 376 990 l 1,2,-1
 494 1210 l 1,3,-1
 602 1132 l 1,4,-1
 447 963 l 1,5,-1
 696 934 l 1,6,-1
 656 806 l 1,7,-1
 452 888 l 1,8,-1
 496 654 l 1,9,-1
 359 654 l 1,10,-1
 383 864 l 1,11,-1
 164 756 l 1,12,-1
 122 888 l 1,13,-1
 341 926 l 1,14,-1
 164 1102 l 1,0,-1
EndSplineSet
EndChar

StartChar: at
Encoding: 64 64 140
Width: 1396
VWidth: 0
Flags: HMW
LayerCount: 2
Fore
SplineSet
567 378 m 0,0,1
 567 234 567 234 636 234 c 0,2,3
 682 234 682 234 732 276 c 1,4,-1
 782 675 l 1,5,-1
 722 686 l 1,6,7
 684 686 684 686 653 652.5 c 128,-1,8
 622 619 622 619 594.5 542.5 c 128,-1,9
 567 466 567 466 567 378 c 0,0,1
27 330.5 m 128,-1,11
 27 468 27 468 85.5 598.5 c 128,-1,12
 144 729 144 729 247.5 827.5 c 128,-1,13
 351 926 351 926 504 985 c 128,-1,14
 657 1044 657 1044 798.5 1044 c 128,-1,15
 940 1044 940 1044 1036.5 1015.5 c 128,-1,16
 1133 987 1133 987 1209.5 934 c 128,-1,17
 1286 881 1286 881 1331.5 796 c 128,-1,18
 1377 711 1377 711 1377 606.5 c 128,-1,19
 1377 502 1377 502 1336.5 404.5 c 128,-1,20
 1296 307 1296 307 1228 235 c 128,-1,21
 1160 163 1160 163 1067 119.5 c 128,-1,22
 974 76 974 76 892 76 c 0,23,24
 728 76 728 76 731 192 c 1,25,-1
 720 192 l 1,26,27
 684 139 684 139 634 105.5 c 128,-1,28
 584 72 584 72 534 72 c 0,29,30
 454 72 454 72 402 141.5 c 128,-1,31
 350 211 350 211 350 334 c 0,32,33
 350 521 350 521 482.5 656.5 c 128,-1,34
 615 792 615 792 810 792 c 0,35,36
 901 792 901 792 974 776 c 1,37,-1
 992 756 l 1,38,-1
 952 390 l 1,39,40
 923 206 923 206 974 206 c 0,41,42
 1038 206 1038 206 1090 264 c 0,43,44
 1190 377 1190 377 1190 559 c 128,-1,45
 1190 741 1190 741 1077 841.5 c 128,-1,46
 964 942 964 942 781 942 c 0,47,48
 655 942 655 942 549 895 c 0,49,50
 444 848 444 848 374 768 c 0,51,52
 228 602 228 602 228 373 c 128,-1,53
 228 144 228 144 363 15 c 128,-1,54
 498 -114 498 -114 755 -114 c 0,55,56
 856 -114 856 -114 955 -79 c 128,-1,57
 1054 -44 1054 -44 1112 4 c 1,58,-1
 1152 -84 l 1,59,60
 948 -224 948 -224 680 -224 c 0,61,62
 410 -224 410 -224 222 -86 c 0,63,64
 130 -19 130 -19 78.5 87 c 128,-1,10
 27 193 27 193 27 330.5 c 128,-1,11
EndSplineSet
EndChar

StartChar: atilde
Encoding: 227 227 141
Width: 881
VWidth: 0
Flags: HMW
LayerCount: 2
Fore
SplineSet
150 1053 m 1,0,1
 143 1097 143 1097 166.5 1146 c 128,-1,2
 190 1195 190 1195 213 1221 c 0,3,4
 266 1281 266 1281 353 1261 c 2,5,-1
 559 1212 l 2,6,7
 590 1204 590 1204 614 1244 c 2,8,-1
 622 1258 l 1,9,-1
 704 1252 l 1,10,11
 704 1182 704 1182 648 1106 c 0,12,13
 622 1070 622 1070 576.5 1053.5 c 128,-1,14
 531 1037 531 1037 478 1050 c 2,15,-1
 291 1096 l 1,16,17
 254 1104 254 1104 232 1040 c 1,18,-1
 150 1053 l 1,0,1
260 247 m 0,19,20
 260 210 260 210 285.5 181 c 128,-1,21
 311 152 311 152 365.5 152 c 128,-1,22
 420 152 420 152 483 211 c 1,23,-1
 483 413 l 1,24,25
 260 376 260 376 260 247 c 0,19,20
24 178 m 0,26,27
 24 308 24 308 142.5 399.5 c 128,-1,28
 261 491 261 491 483 499 c 1,29,-1
 483 574 l 2,30,31
 483 665 483 665 444 726 c 128,-1,32
 405 787 405 787 342.5 787 c 128,-1,33
 280 787 280 787 263 743 c 128,-1,34
 246 699 246 699 236 572 c 1,35,36
 102 572 102 572 68 627 c 0,37,38
 52 652 52 652 52 697.5 c 128,-1,39
 52 743 52 743 117 798.5 c 128,-1,40
 182 854 182 854 277.5 889 c 128,-1,41
 373 924 373 924 458 924 c 0,42,43
 718 924 718 924 718 617 c 2,44,-1
 718 268 l 2,45,46
 718 227 718 227 721.5 218.5 c 128,-1,47
 725 210 725 210 729.5 198 c 128,-1,48
 734 186 734 186 740.5 182 c 128,-1,49
 747 178 747 178 760 169 c 128,-1,50
 773 160 773 160 813 153 c 2,51,-1
 852 146 l 1,52,-1
 833 18 l 1,53,54
 770 -21 770 -21 683.5 -21 c 128,-1,55
 597 -21 597 -21 562 14.5 c 128,-1,56
 527 50 527 50 511 125 c 1,57,-1
 499 128 l 1,58,59
 475 72 475 72 400.5 24 c 128,-1,60
 326 -24 326 -24 232.5 -24 c 128,-1,61
 139 -24 139 -24 81.5 28.5 c 128,-1,62
 24 81 24 81 24 178 c 0,26,27
EndSplineSet
EndChar

StartChar: b
Encoding: 98 98 142
Width: 1016
VWidth: 0
Flags: HMW
LayerCount: 2
Fore
SplineSet
535.5 144 m 128,-1,1
 625 144 625 144 676 219.5 c 128,-1,2
 727 295 727 295 727 412.5 c 128,-1,3
 727 530 727 530 700.5 592.5 c 128,-1,4
 674 655 674 655 640.5 680.5 c 128,-1,5
 607 706 607 706 561 706 c 0,6,7
 466 706 466 706 380 625 c 1,8,-1
 380 207 l 1,9,0
 446 144 446 144 535.5 144 c 128,-1,1
653 914 m 0,10,11
 806 914 806 914 898.5 795 c 128,-1,12
 991 676 991 676 991 484 c 0,13,14
 991 368 991 368 947.5 271 c 128,-1,15
 904 174 904 174 831 110 c 0,16,17
 678 -23 678 -23 466 -23 c 0,18,19
 389 -23 389 -23 295 -4.5 c 128,-1,20
 201 14 201 14 140 50 c 1,21,-1
 140 1047 l 1,22,-1
 -8 1124 l 1,23,-1
 13 1244 l 1,24,-1
 340 1268 l 1,25,-1
 380 1229 l 1,26,-1
 380 864 l 1,27,-1
 366 760 l 1,28,-1
 378 758 l 1,29,30
 445 834 445 834 510 874 c 128,-1,31
 575 914 575 914 653 914 c 0,10,11
EndSplineSet
EndChar

StartChar: backslash
Encoding: 92 92 143
Width: 686
VWidth: 0
Flags: HMW
LayerCount: 2
Fore
SplineSet
18 1304 m 1,0,-1
 203 1291 l 1,1,-1
 664 -393 l 1,2,-1
 486 -382 l 1,3,-1
 18 1304 l 1,0,-1
EndSplineSet
EndChar

StartChar: bar
Encoding: 124 124 144
Width: 263
VWidth: 0
Flags: HMW
LayerCount: 2
Fore
SplineSet
54 -364 m 1,0,-1
 54 1260 l 1,1,-1
 210 1248 l 1,2,-1
 210 -380 l 1,3,-1
 54 -364 l 1,0,-1
EndSplineSet
EndChar

StartChar: braceleft
Encoding: 123 123 145
Width: 615
VWidth: 0
Flags: HMW
LayerCount: 2
Fore
SplineSet
438 -378 m 2,0,1
 354 -378 354 -378 302 -340 c 128,-1,2
 250 -302 250 -302 231 -241 c 128,-1,3
 212 -180 212 -180 205.5 -105.5 c 128,-1,4
 199 -31 199 -31 198 46 c 0,5,6
 197 122 197 122 190 188 c 0,7,8
 174 338 174 338 68 357 c 1,9,-1
 11 368 l 1,10,-1
 11 516 l 1,11,-1
 64 527 l 1,12,13
 173 548 173 548 191 695 c 0,14,15
 199 760 199 760 200.5 836 c 128,-1,16
 202 912 202 912 208 985.5 c 128,-1,17
 214 1059 214 1059 232.5 1119.5 c 128,-1,18
 251 1180 251 1180 302 1217.5 c 128,-1,19
 353 1255 353 1255 436 1255 c 2,20,-1
 606 1255 l 1,21,-1
 600 1104 l 1,22,-1
 492 1099 l 2,23,24
 424 1096 424 1096 428 883 c 0,25,26
 430 794 430 794 426.5 702.5 c 128,-1,27
 423 611 423 611 387.5 539.5 c 128,-1,28
 352 468 352 468 278 452 c 1,29,-1
 278 442 l 1,30,31
 384 396 384 396 410 260 c 0,32,33
 429 160 429 160 428.5 52 c 128,-1,34
 428 -56 428 -56 432 -106 c 0,35,36
 441 -216 441 -216 504 -220 c 2,37,-1
 602 -225 l 1,38,-1
 613 -378 l 1,39,-1
 438 -378 l 2,0,1
EndSplineSet
EndChar

StartChar: braceright
Encoding: 125 125 146
Width: 615
VWidth: 0
Flags: HMW
LayerCount: 2
Fore
SplineSet
188 1255 m 2,0,1
 271 1255 271 1255 322 1217.5 c 128,-1,2
 373 1180 373 1180 391.5 1119.5 c 128,-1,3
 410 1059 410 1059 416 985.5 c 128,-1,4
 422 912 422 912 423.5 836 c 128,-1,5
 425 760 425 760 433 695 c 0,6,7
 451 548 451 548 560 527 c 1,8,-1
 613 516 l 1,9,-1
 613 368 l 1,10,-1
 556 357 l 1,11,12
 450 338 450 338 434 188 c 0,13,14
 427 122 427 122 426 45.5 c 128,-1,15
 425 -31 425 -31 418.5 -105.5 c 128,-1,16
 412 -180 412 -180 393 -241 c 128,-1,17
 374 -302 374 -302 322 -340 c 128,-1,18
 270 -378 270 -378 186 -378 c 2,19,-1
 11 -378 l 1,20,-1
 22 -225 l 1,21,-1
 120 -220 l 2,22,23
 183 -216 183 -216 192 -106 c 0,24,25
 196 -56 196 -56 196 6 c 0,26,27
 196 160 196 160 214 260 c 0,28,29
 240 395 240 395 346 442 c 1,30,-1
 346 452 l 1,31,32
 272 468 272 468 236.5 539.5 c 128,-1,33
 201 611 201 611 197.5 702.5 c 128,-1,34
 194 794 194 794 196 883 c 0,35,36
 200 1096 200 1096 132 1099 c 2,37,-1
 24 1104 l 1,38,-1
 18 1255 l 1,39,-1
 188 1255 l 2,0,1
EndSplineSet
EndChar

StartChar: bracketleft
Encoding: 91 91 147
Width: 475
VWidth: 0
Flags: HMW
LayerCount: 2
Fore
SplineSet
422 -246 m 1,0,-1
 403 -376 l 1,1,-1
 0 -377 l 1,2,-1
 2 1255 l 1,3,-1
 397 1255 l 1,4,-1
 418 1130 l 1,5,-1
 190 1110 l 1,6,-1
 190 -226 l 1,7,-1
 422 -246 l 1,0,-1
EndSplineSet
EndChar

StartChar: bracketright
Encoding: 93 93 148
Width: 475
VWidth: 0
Flags: HMW
LayerCount: 2
Fore
SplineSet
0 -246 m 1,0,-1
 232 -226 l 1,1,-1
 232 1110 l 1,2,-1
 4 1130 l 1,3,-1
 25 1255 l 1,4,-1
 420 1255 l 1,5,-1
 422 -377 l 1,6,-1
 19 -376 l 1,7,-1
 0 -246 l 1,0,-1
EndSplineSet
EndChar

StartChar: breve
Encoding: 728 728 149
Width: 485
VWidth: 0
Flags: HMW
LayerCount: 2
Fore
SplineSet
249 1536 m 0,0,1
 347 1536 347 1536 392 1612 c 1,2,-1
 454 1565 l 1,3,4
 427 1486 427 1486 375.5 1429 c 128,-1,5
 324 1372 324 1372 264 1372 c 0,6,7
 158 1372 158 1372 110.5 1432 c 128,-1,8
 63 1492 63 1492 45 1565 c 1,9,-1
 118 1612 l 1,10,11
 140 1575 140 1575 169 1555.5 c 128,-1,12
 198 1536 198 1536 249 1536 c 0,0,1
EndSplineSet
EndChar

StartChar: brokenbar
Encoding: 166 166 150
Width: 277
VWidth: 0
Flags: HMW
LayerCount: 2
Fore
SplineSet
54 534 m 1,0,-1
 54 1267 l 1,1,-1
 222 1248 l 1,2,-1
 222 517 l 1,3,-1
 54 534 l 1,0,-1
54 -358 m 1,4,-1
 54 419 l 1,5,-1
 224 399 l 1,6,-1
 224 -380 l 1,7,-1
 54 -358 l 1,4,-1
EndSplineSet
Colour: ffffff
EndChar

StartChar: bullet
Encoding: 8226 8226 151
Width: 405
VWidth: 0
Flags: HMW
LayerCount: 2
Fore
SplineSet
-14 701 m 0,0,1
 -14 770 -14 770 40.5 821.5 c 128,-1,2
 95 873 95 873 199 873 c 0,3,4
 359 873 359 873 407 763 c 0,5,6
 420 733 420 733 420 701 c 0,7,8
 420 622 420 622 364 572 c 128,-1,9
 308 522 308 522 199 522 c 0,10,11
 40 522 40 522 -2 634 c 0,12,13
 -14 665 -14 665 -14 701 c 0,0,1
EndSplineSet
EndChar

StartChar: c
Encoding: 99 99 152
Width: 817
VWidth: 0
Flags: HMW
LayerCount: 2
Fore
SplineSet
25 420 m 0,0,1
 25 536 25 536 68 636 c 0,2,3
 110 736 110 736 180 800 c 0,4,5
 327 934 327 934 506 934 c 0,6,7
 629 934 629 934 699.5 877.5 c 128,-1,8
 770 821 770 821 770 747 c 0,9,10
 770 611 770 611 605 596 c 1,11,12
 570 696 570 696 533 743.5 c 128,-1,13
 496 791 496 791 444 791 c 0,14,15
 366 791 366 791 324 720 c 128,-1,16
 282 649 282 649 282 515 c 0,17,18
 282 382 282 382 348 268 c 0,19,20
 380 214 380 214 432 180 c 0,21,22
 486 146 486 146 554 145 c 0,23,24
 666 145 666 145 774 211 c 1,25,-1
 806 130 l 1,26,27
 766 63 766 63 669.5 16.5 c 128,-1,28
 573 -30 573 -30 464 -30 c 0,29,30
 250 -30 250 -30 137.5 94.5 c 128,-1,31
 25 219 25 219 25 420 c 0,0,1
EndSplineSet
EndChar

StartChar: cacute
Encoding: 263 263 153
Width: 817
VWidth: 0
Flags: HMW
LayerCount: 2
Fore
SplineSet
414 1082 m 1,0,-1
 528 1396 l 1,1,-1
 750 1368 l 1,2,-1
 568 1055 l 1,3,-1
 414 1082 l 1,0,-1
25 420 m 0,4,5
 25 536 25 536 68 636 c 0,6,7
 110 736 110 736 180 800 c 0,8,9
 327 934 327 934 506 934 c 0,10,11
 629 934 629 934 699.5 877.5 c 128,-1,12
 770 821 770 821 770 747 c 0,13,14
 770 611 770 611 605 596 c 1,15,16
 570 696 570 696 533 743.5 c 128,-1,17
 496 791 496 791 444 791 c 0,18,19
 366 791 366 791 324 720 c 128,-1,20
 282 649 282 649 282 515 c 0,21,22
 282 382 282 382 348 268 c 0,23,24
 380 214 380 214 432 180 c 0,25,26
 486 146 486 146 554 145 c 0,27,28
 666 145 666 145 774 211 c 1,29,-1
 806 130 l 1,30,31
 766 63 766 63 669.5 16.5 c 128,-1,32
 573 -30 573 -30 464 -30 c 0,33,34
 250 -30 250 -30 137.5 94.5 c 128,-1,35
 25 219 25 219 25 420 c 0,4,5
EndSplineSet
EndChar

StartChar: caron
Encoding: 711 711 154
Width: 518
VWidth: 0
Flags: HMW
LayerCount: 2
Fore
SplineSet
6 1508 m 1,0,-1
 211 1543 l 1,1,-1
 300 1458 l 1,2,-1
 310 1458 l 1,3,-1
 394 1539 l 1,4,-1
 537 1525 l 1,5,-1
 347 1309 l 1,6,-1
 200 1288 l 1,7,-1
 6 1508 l 1,0,-1
EndSplineSet
EndChar

StartChar: ccaron
Encoding: 269 269 155
Width: 817
VWidth: 0
Flags: HMW
LayerCount: 2
Fore
SplineSet
240 1206 m 1,0,-1
 445 1241 l 1,1,-1
 534 1156 l 1,2,-1
 544 1156 l 1,3,-1
 628 1237 l 1,4,-1
 771 1223 l 1,5,-1
 581 1007 l 1,6,-1
 434 986 l 1,7,-1
 240 1206 l 1,0,-1
25 420 m 0,8,9
 25 536 25 536 68 636 c 0,10,11
 110 736 110 736 180 800 c 0,12,13
 327 934 327 934 506 934 c 0,14,15
 629 934 629 934 699.5 877.5 c 128,-1,16
 770 821 770 821 770 747 c 0,17,18
 770 611 770 611 605 596 c 1,19,20
 570 696 570 696 533 743.5 c 128,-1,21
 496 791 496 791 444 791 c 0,22,23
 366 791 366 791 324 720 c 128,-1,24
 282 649 282 649 282 515 c 0,25,26
 282 382 282 382 348 268 c 0,27,28
 380 214 380 214 432 180 c 0,29,30
 486 146 486 146 554 145 c 0,31,32
 666 145 666 145 774 211 c 1,33,-1
 806 130 l 1,34,35
 766 63 766 63 669.5 16.5 c 128,-1,36
 573 -30 573 -30 464 -30 c 0,37,38
 250 -30 250 -30 137.5 94.5 c 128,-1,39
 25 219 25 219 25 420 c 0,8,9
EndSplineSet
EndChar

StartChar: ccedilla
Encoding: 231 231 156
Width: 817
VWidth: 0
Flags: HMW
LayerCount: 2
Fore
SplineSet
418 -262 m 0,0,1
 418 -225 418 -225 293 -161 c 1,2,-1
 459 -30 l 1,3,4
 242 -29 242 -29 134 98 c 0,5,6
 25 224 25 224 25 420 c 0,7,8
 25 536 25 536 68 636 c 0,9,10
 110 736 110 736 180 800 c 0,11,12
 327 934 327 934 506 934 c 0,13,14
 629 934 629 934 699.5 877.5 c 128,-1,15
 770 821 770 821 770 747 c 0,16,17
 770 611 770 611 605 596 c 1,18,19
 570 696 570 696 533 743.5 c 128,-1,20
 496 791 496 791 444 791 c 0,21,22
 366 791 366 791 324 720 c 128,-1,23
 282 649 282 649 282 515 c 0,24,25
 282 382 282 382 348 268 c 0,26,27
 380 214 380 214 432 180 c 0,28,29
 486 146 486 146 554 145 c 0,30,31
 666 145 666 145 774 211 c 1,32,-1
 806 130 l 1,33,34
 776 81 776 81 714 41 c 128,-1,35
 652 1 652 1 574 -17 c 1,36,-1
 590 -17 l 1,37,-1
 504 -100 l 1,38,39
 587 -147 587 -147 606 -188 c 0,40,41
 616 -210 616 -210 616 -236 c 0,42,43
 616 -311 616 -311 538 -350.5 c 128,-1,44
 460 -390 460 -390 324 -408 c 1,45,-1
 296 -324 l 1,46,47
 344 -317 344 -317 381 -300 c 128,-1,48
 418 -283 418 -283 418 -262 c 0,0,1
EndSplineSet
EndChar

StartChar: cdotaccent
Encoding: 267 267 157
Width: 817
VWidth: 0
Flags: HMW
LayerCount: 2
Fore
SplineSet
338 1191 m 128,-1,1
 338 1247 338 1247 381 1287.5 c 128,-1,2
 424 1328 424 1328 505 1328 c 128,-1,3
 586 1328 586 1328 629 1288.5 c 128,-1,4
 672 1249 672 1249 672 1191.5 c 128,-1,5
 672 1134 672 1134 629 1095 c 128,-1,6
 586 1056 586 1056 502 1056 c 128,-1,7
 418 1056 418 1056 378 1095.5 c 128,-1,0
 338 1135 338 1135 338 1191 c 128,-1,1
25 420 m 0,8,9
 25 536 25 536 68 636 c 0,10,11
 110 736 110 736 180 800 c 0,12,13
 327 934 327 934 506 934 c 0,14,15
 629 934 629 934 699.5 877.5 c 128,-1,16
 770 821 770 821 770 747 c 0,17,18
 770 611 770 611 605 596 c 1,19,20
 570 696 570 696 533 743.5 c 128,-1,21
 496 791 496 791 444 791 c 0,22,23
 366 791 366 791 324 720 c 128,-1,24
 282 649 282 649 282 515 c 0,25,26
 282 382 282 382 348 268 c 0,27,28
 380 214 380 214 432 180 c 0,29,30
 486 146 486 146 554 145 c 0,31,32
 666 145 666 145 774 211 c 1,33,-1
 806 130 l 1,34,35
 766 63 766 63 669.5 16.5 c 128,-1,36
 573 -30 573 -30 464 -30 c 0,37,38
 250 -30 250 -30 137.5 94.5 c 128,-1,39
 25 219 25 219 25 420 c 0,8,9
EndSplineSet
EndChar

StartChar: cedilla
Encoding: 184 184 158
Width: 390
VWidth: 0
Flags: HMW
LayerCount: 2
Fore
SplineSet
192 -242 m 0,0,1
 192 -205 192 -205 67 -141 c 1,2,-1
 250 3 l 1,3,-1
 364 3 l 1,4,-1
 278 -80 l 1,5,6
 361 -127 361 -127 380 -168 c 0,7,8
 390 -190 390 -190 390 -216 c 0,9,10
 390 -291 390 -291 312 -330.5 c 128,-1,11
 234 -370 234 -370 98 -388 c 1,12,-1
 70 -304 l 1,13,14
 118 -297 118 -297 155 -280 c 128,-1,15
 192 -263 192 -263 192 -242 c 0,0,1
EndSplineSet
Colour: ffffff
EndChar

StartChar: cent
Encoding: 162 162 159
Width: 837
VWidth: 0
Flags: HMW
LayerCount: 2
Fore
SplineSet
424 828 m 128,-1,1
 359 828 359 828 318.5 742 c 128,-1,2
 278 656 278 656 278 544.5 c 128,-1,3
 278 433 278 433 306 353.5 c 128,-1,4
 334 274 334 274 397 217 c 128,-1,5
 460 160 460 160 538 160 c 128,-1,6
 616 160 616 160 666.5 178 c 128,-1,7
 717 196 717 196 774 231 c 1,8,-1
 806 135 l 1,9,10
 771 77 771 77 690.5 31.5 c 128,-1,11
 610 -14 610 -14 515 -26 c 1,12,-1
 545 -250 l 1,13,-1
 356 -266 l 1,14,-1
 380 -25 l 1,15,16
 262 -8 262 -8 179 58 c 0,17,18
 20 185 20 185 20 434 c 0,19,20
 20 628 20 628 125.5 767.5 c 128,-1,21
 231 907 231 907 376 955 c 1,22,-1
 346 1193 l 1,23,-1
 533 1210 l 1,24,-1
 511 976 l 1,25,26
 698 972 698 972 754 837 c 0,27,28
 770 799 770 799 770 746 c 128,-1,29
 770 693 770 693 727.5 655 c 128,-1,30
 685 617 685 617 611 610 c 1,31,32
 571 722 571 722 530 775 c 128,-1,0
 489 828 489 828 424 828 c 128,-1,1
EndSplineSet
EndChar

StartChar: circumflex
Encoding: 710 710 160
Width: 588
VWidth: 0
Flags: HMW
LayerCount: 2
Back
SplineSet
543 1344 m 5,0,-1
 338 1309 l 1,1,-1
 249 1394 l 1,2,-1
 239 1394 l 1,3,-1
 155 1313 l 1,4,-1
 12 1327 l 1,5,-1
 202 1543 l 1,6,-1
 349 1564 l 1,7,-1
 543 1344 l 5,0,-1
EndSplineSet
Fore
SplineSet
555 1344 m 1,0,-1
 386 1309 l 1,1,-1
 282 1394 l 1,2,-1
 272 1394 l 1,3,-1
 185 1303 l 1,4,-1
 24 1327 l 1,5,-1
 188 1543 l 1,6,-1
 375 1564 l 1,7,-1
 555 1344 l 1,0,-1
EndSplineSet
EndChar

StartChar: colon
Encoding: 58 58 161
Width: 405
VWidth: 0
Flags: HMW
LayerCount: 2
Fore
SplineSet
52 108.5 m 128,-1,1
 52 159 52 159 90 194.5 c 128,-1,2
 128 230 128 230 201.5 230 c 128,-1,3
 275 230 275 230 314 194.5 c 128,-1,4
 353 159 353 159 353 107.5 c 128,-1,5
 353 56 353 56 314 21.5 c 128,-1,6
 275 -13 275 -13 200 -13 c 128,-1,7
 125 -13 125 -13 88.5 22.5 c 128,-1,0
 52 58 52 58 52 108.5 c 128,-1,1
200 615 m 128,-1,9
 125 615 125 615 88.5 650.5 c 128,-1,10
 52 686 52 686 52 736.5 c 128,-1,11
 52 787 52 787 90 822.5 c 128,-1,12
 128 858 128 858 201.5 858 c 128,-1,13
 275 858 275 858 314 822.5 c 128,-1,14
 353 787 353 787 353 735.5 c 128,-1,15
 353 684 353 684 314 649.5 c 128,-1,8
 275 615 275 615 200 615 c 128,-1,9
EndSplineSet
EndChar

StartChar: comma
Encoding: 44 44 162
Width: 439
VWidth: 0
Flags: HMW
LayerCount: 2
Fore
SplineSet
204 -80.5 m 128,-1,1
 204 -33 204 -33 175.5 -5 c 128,-1,2
 147 23 147 23 114 23 c 128,-1,3
 81 23 81 23 61 16 c 1,4,5
 38 62 38 62 38 96 c 0,6,7
 38 167 38 167 85.5 207.5 c 128,-1,8
 133 248 133 248 214 248 c 128,-1,9
 295 248 295 248 352 185.5 c 128,-1,10
 409 123 409 123 409 13.5 c 128,-1,11
 409 -96 409 -96 332.5 -201.5 c 128,-1,12
 256 -307 256 -307 64 -345 c 1,13,-1
 31 -252 l 1,14,15
 118 -227 118 -227 161 -177.5 c 128,-1,0
 204 -128 204 -128 204 -80.5 c 128,-1,1
EndSplineSet
EndChar

StartChar: commaaccent
Encoding: 806 806 163
Width: 275
VWidth: 0
Flags: HMW
LayerCount: 2
Fore
SplineSet
145 -71 m 0,0,1
 222 -71 222 -71 266.5 -109 c 128,-1,2
 311 -147 311 -147 313 -216 c 0,3,4
 316 -321 316 -321 231.5 -371 c 128,-1,5
 147 -421 147 -421 20 -412 c 1,6,-1
 1 -333 l 1,7,8
 50 -338 50 -338 82 -320.5 c 128,-1,9
 114 -303 114 -303 114 -274.5 c 128,-1,10
 114 -246 114 -246 80 -229 c 128,-1,11
 46 -212 46 -212 1 -212 c 1,12,13
 3 -71 3 -71 145 -71 c 0,0,1
EndSplineSet
EndChar

StartChar: copyright
Encoding: 169 169 164
Width: 1383
VWidth: 0
Flags: HMW
LayerCount: 2
Fore
SplineSet
191 682 m 0,0,1
 191 427 191 427 332.5 279 c 128,-1,2
 474 131 474 131 698 131 c 0,3,4
 840 131 840 131 956 195 c 128,-1,5
 1072 259 1072 259 1142 381.5 c 128,-1,6
 1212 504 1212 504 1212 664 c 0,7,8
 1212 959 1212 959 1027 1119 c 0,9,10
 899 1230 899 1230 694 1230 c 0,11,12
 545 1230 545 1230 429.5 1157.5 c 128,-1,13
 314 1085 314 1085 252.5 961 c 128,-1,14
 191 837 191 837 191 682 c 0,0,1
26 668.5 m 128,-1,16
 26 867 26 867 117.5 1026.5 c 128,-1,17
 209 1186 209 1186 362 1272 c 128,-1,18
 515 1358 515 1358 708.5 1358 c 128,-1,19
 902 1358 902 1358 1054.5 1270.5 c 128,-1,20
 1207 1183 1207 1183 1287.5 1028.5 c 128,-1,21
 1368 874 1368 874 1368 674 c 0,22,23
 1368 542 1368 542 1315.5 418.5 c 128,-1,24
 1263 295 1263 295 1174 202.5 c 128,-1,25
 1085 110 1085 110 958.5 54 c 128,-1,26
 832 -2 832 -2 692 -2 c 0,27,28
 492 -2 492 -2 340 82.5 c 128,-1,29
 188 167 188 167 107 318.5 c 128,-1,15
 26 470 26 470 26 668.5 c 128,-1,16
704 281 m 0,30,31
 519 281 519 281 426 387.5 c 128,-1,32
 333 494 333 494 333 660 c 0,33,34
 333 891 333 891 513 1020 c 0,35,36
 617 1094 617 1094 729.5 1094 c 128,-1,37
 842 1094 842 1094 901.5 1046 c 128,-1,38
 961 998 961 998 961 936 c 0,39,40
 961 822 961 822 822 809 c 1,41,42
 793 893 793 893 761.5 933 c 128,-1,43
 730 973 730 973 686 973 c 0,44,45
 549 973 549 973 550 737 c 0,46,47
 550 627 550 627 607.5 527.5 c 128,-1,48
 665 428 665 428 797 428 c 0,49,50
 874 428 874 428 965 484 c 1,51,-1
 992 416 l 1,52,53
 958 360 958 360 877 320.5 c 128,-1,54
 796 281 796 281 704 281 c 0,30,31
EndSplineSet
Colour: ffffff
EndChar

StartChar: currency
Encoding: 164 164 165
Width: 806
VWidth: 0
Flags: HMW
LayerCount: 2
Fore
SplineSet
273 491 m 128,-1,1
 273 424 273 424 310.5 381 c 128,-1,2
 348 338 348 338 405 338 c 128,-1,3
 462 338 462 338 500 379 c 128,-1,4
 538 420 538 420 538 488 c 128,-1,5
 538 556 538 556 500.5 598 c 128,-1,6
 463 640 463 640 405.5 640 c 128,-1,7
 348 640 348 640 310.5 599 c 128,-1,0
 273 558 273 558 273 491 c 128,-1,1
410 776 m 128,-1,9
 491 776 491 776 545 735 c 1,10,-1
 654 844 l 1,11,-1
 774 720 l 1,12,-1
 658 616 l 1,13,14
 688 561 688 561 688 485.5 c 128,-1,15
 688 410 688 410 652 357 c 1,16,-1
 778 238 l 1,17,-1
 648 122 l 1,18,-1
 535 245 l 1,19,20
 469 204 469 204 403 204 c 128,-1,21
 337 204 337 204 281 238 c 1,22,-1
 170 111 l 1,23,-1
 44 233 l 1,24,-1
 164 347 l 1,25,26
 124 405 124 405 124 478.5 c 128,-1,27
 124 552 124 552 158 608 c 1,28,-1
 34 723 l 1,29,-1
 160 841 l 1,30,-1
 268 725 l 1,31,8
 329 776 329 776 410 776 c 128,-1,9
EndSplineSet
EndChar

StartChar: d
Encoding: 100 100 166
Width: 1025
VWidth: 0
Flags: HMW
LayerCount: 2
Fore
SplineSet
624 638 m 1,0,1
 546 751 546 751 443 751 c 0,2,3
 395 751 395 751 356 709 c 0,4,5
 284 631 284 631 284 482.5 c 128,-1,6
 284 334 284 334 332.5 256.5 c 128,-1,7
 381 179 381 179 464 179 c 128,-1,8
 547 179 547 179 624 244 c 1,9,-1
 624 638 l 1,0,1
27 361 m 128,-1,11
 27 520 27 520 85 639.5 c 128,-1,12
 143 759 143 759 250 832.5 c 128,-1,13
 357 906 357 906 489 906 c 0,14,15
 525 906 525 906 567.5 895.5 c 128,-1,16
 610 885 610 885 632 870 c 1,17,-1
 638 870 l 1,18,-1
 627 970 l 1,19,-1
 627 1049 l 1,20,-1
 464 1127 l 1,21,-1
 484 1246 l 1,22,-1
 818 1272 l 1,23,-1
 858 1232 l 1,24,-1
 858 295 l 2,25,26
 858 222 858 222 883 197.5 c 128,-1,27
 908 173 908 173 982 152 c 2,28,-1
 1018 142 l 1,29,-1
 1000 16 l 1,30,31
 782 -64 782 -64 690 14 c 0,32,33
 646 51 646 51 634 116 c 1,34,-1
 631 126 l 1,35,-1
 620 128 l 1,36,37
 571 60 571 60 508.5 20 c 128,-1,38
 446 -20 446 -20 352 -20 c 0,39,40
 205 -20 205 -20 116 91 c 128,-1,10
 27 202 27 202 27 361 c 128,-1,11
EndSplineSet
EndChar

StartChar: dagger
Encoding: 8224 8224 167
Width: 803
VWidth: 0
Flags: HMW
LayerCount: 2
Fore
SplineSet
18 689 m 1,0,-1
 26 844 l 1,1,-1
 322 836 l 1,2,-1
 316 1255 l 1,3,-1
 488 1244 l 1,4,-1
 480 836 l 1,5,-1
 786 844 l 1,6,-1
 778 681 l 1,7,-1
 480 692 l 1,8,-1
 494 -362 l 1,9,-1
 310 -351 l 1,10,-1
 322 694 l 1,11,-1
 18 689 l 1,0,-1
EndSplineSet
EndChar

StartChar: daggerdbl
Encoding: 8225 8225 168
Width: 814
VWidth: 0
Flags: HMW
LayerCount: 2
Fore
SplineSet
26 689 m 1,0,-1
 32 844 l 1,1,-1
 326 838 l 1,2,-1
 318 1255 l 1,3,-1
 492 1244 l 1,4,-1
 480 838 l 1,5,-1
 784 844 l 1,6,-1
 778 682 l 1,7,-1
 480 692 l 1,8,-1
 470 430 l 1,9,-1
 473 193 l 1,10,-1
 788 199 l 1,11,-1
 782 42 l 1,12,-1
 473 50 l 1,13,-1
 484 -362 l 1,14,-1
 310 -352 l 1,15,-1
 320 50 l 1,16,-1
 32 42 l 1,17,-1
 41 206 l 1,18,-1
 320 192 l 1,19,-1
 329 498 l 1,20,-1
 326 696 l 1,21,-1
 26 689 l 1,0,-1
EndSplineSet
EndChar

StartChar: dcaron
Encoding: 271 271 169
Width: 1025
VWidth: 0
Flags: HMW
LayerCount: 2
Fore
SplineSet
1087 937.5 m 128,-1,1
 1087 985 1087 985 1058.5 1013 c 128,-1,2
 1030 1041 1030 1041 997 1041 c 128,-1,3
 964 1041 964 1041 944 1034 c 1,4,5
 921 1080 921 1080 921 1114 c 0,6,7
 921 1185 921 1185 968.5 1225.5 c 128,-1,8
 1016 1266 1016 1266 1097 1266 c 128,-1,9
 1178 1266 1178 1266 1235 1203.5 c 128,-1,10
 1292 1141 1292 1141 1292 1031.5 c 128,-1,11
 1292 922 1292 922 1215.5 816.5 c 128,-1,12
 1139 711 1139 711 947 673 c 1,13,-1
 914 766 l 1,14,15
 1001 791 1001 791 1044 840.5 c 128,-1,0
 1087 890 1087 890 1087 937.5 c 128,-1,1
624 638 m 1,16,17
 546 751 546 751 443 751 c 0,18,19
 395 751 395 751 356 709 c 0,20,21
 284 631 284 631 284 482.5 c 128,-1,22
 284 334 284 334 332.5 256.5 c 128,-1,23
 381 179 381 179 464 179 c 128,-1,24
 547 179 547 179 624 244 c 1,25,-1
 624 638 l 1,16,17
27 361 m 128,-1,27
 27 520 27 520 85 639.5 c 128,-1,28
 143 759 143 759 250 832.5 c 128,-1,29
 357 906 357 906 489 906 c 0,30,31
 525 906 525 906 567.5 895.5 c 128,-1,32
 610 885 610 885 632 870 c 1,33,-1
 638 870 l 1,34,-1
 627 970 l 1,35,-1
 627 1049 l 1,36,-1
 464 1127 l 1,37,-1
 484 1246 l 1,38,-1
 818 1272 l 1,39,-1
 858 1232 l 1,40,-1
 858 295 l 2,41,42
 858 222 858 222 883 197.5 c 128,-1,43
 908 173 908 173 982 152 c 2,44,-1
 1018 142 l 1,45,-1
 1000 16 l 1,46,47
 782 -64 782 -64 690 14 c 0,48,49
 646 51 646 51 634 116 c 1,50,-1
 631 126 l 1,51,-1
 620 128 l 1,52,53
 571 60 571 60 508.5 20 c 128,-1,54
 446 -20 446 -20 352 -20 c 0,55,56
 205 -20 205 -20 116 91 c 128,-1,26
 27 202 27 202 27 361 c 128,-1,27
EndSplineSet
EndChar

StartChar: dcroat
Encoding: 273 273 170
Width: 1025
VWidth: 0
Flags: HMW
LayerCount: 2
Fore
SplineSet
627 1026 m 1,0,-1
 627 1042 l 1,1,-1
 464 1120 l 1,2,-1
 484 1239 l 1,3,-1
 818 1264 l 1,4,-1
 858 1225 l 1,5,-1
 858 1026 l 1,6,-1
 1006 1026 l 1,7,-1
 990 935 l 1,8,-1
 858 935 l 1,9,-1
 858 295 l 2,10,11
 858 222 858 222 883 197.5 c 128,-1,12
 908 173 908 173 982 152 c 2,13,-1
 1018 142 l 1,14,-1
 1000 16 l 1,15,16
 782 -64 782 -64 690 14 c 0,17,18
 646 51 646 51 634 116 c 1,19,-1
 631 126 l 1,20,-1
 620 128 l 1,21,22
 571 60 571 60 508.5 20 c 128,-1,23
 446 -20 446 -20 352 -20 c 0,24,25
 205 -20 205 -20 116 91 c 128,-1,26
 27 202 27 202 27 361 c 128,-1,27
 27 520 27 520 85 639.5 c 128,-1,28
 143 759 143 759 250 832.5 c 128,-1,29
 357 906 357 906 489 906 c 0,30,31
 525 906 525 906 567.5 895.5 c 128,-1,32
 610 885 610 885 632 870 c 1,33,-1
 638 870 l 1,34,-1
 631 935 l 1,35,-1
 499 935 l 1,36,-1
 516 1026 l 1,37,-1
 627 1026 l 1,0,-1
624 638 m 1,38,39
 546 751 546 751 443 751 c 0,40,41
 395 751 395 751 356 709 c 0,42,43
 284 631 284 631 284 482.5 c 128,-1,44
 284 334 284 334 332.5 256.5 c 128,-1,45
 381 179 381 179 464 179 c 128,-1,46
 547 179 547 179 624 244 c 1,47,-1
 624 638 l 1,38,39
EndSplineSet
EndChar

StartChar: degree
Encoding: 176 176 171
Width: 424
VWidth: 0
Flags: HMW
LayerCount: 2
Fore
SplineSet
219 1009 m 0,0,1
 289 1009 289 1009 289 1105 c 0,2,3
 289 1153 289 1153 267.5 1188 c 128,-1,4
 246 1223 246 1223 210.5 1223 c 128,-1,5
 175 1223 175 1223 156.5 1196 c 128,-1,6
 138 1169 138 1169 138 1124.5 c 128,-1,7
 138 1080 138 1080 158.5 1044.5 c 128,-1,8
 179 1009 179 1009 219 1009 c 0,0,1
27 1103 m 128,-1,10
 27 1185 27 1185 86 1244.5 c 128,-1,11
 145 1304 145 1304 228 1304 c 128,-1,12
 311 1304 311 1304 358.5 1257 c 128,-1,13
 406 1210 406 1210 406 1127 c 128,-1,14
 406 1044 406 1044 344.5 986 c 128,-1,15
 283 928 283 928 202.5 928 c 128,-1,16
 122 928 122 928 74.5 974.5 c 128,-1,9
 27 1021 27 1021 27 1103 c 128,-1,10
EndSplineSet
Colour: ffffff
EndChar

StartChar: dieresis
Encoding: 168 168 172
Width: 594
VWidth: 0
Flags: HMW
LayerCount: 2
Fore
SplineSet
333 1451 m 128,-1,1
 333 1490 333 1490 360.5 1517.5 c 128,-1,2
 388 1545 388 1545 442 1545 c 128,-1,3
 496 1545 496 1545 524.5 1518 c 128,-1,4
 553 1491 553 1491 553 1451 c 128,-1,5
 553 1411 553 1411 524.5 1383.5 c 128,-1,6
 496 1356 496 1356 441 1356 c 128,-1,7
 386 1356 386 1356 359.5 1384 c 128,-1,0
 333 1412 333 1412 333 1451 c 128,-1,1
24 1451 m 128,-1,9
 24 1490 24 1490 51.5 1517.5 c 128,-1,10
 79 1545 79 1545 133 1545 c 128,-1,11
 187 1545 187 1545 215.5 1518 c 128,-1,12
 244 1491 244 1491 244 1451 c 128,-1,13
 244 1411 244 1411 215.5 1383.5 c 128,-1,14
 187 1356 187 1356 132 1356 c 128,-1,15
 77 1356 77 1356 50.5 1384 c 128,-1,8
 24 1412 24 1412 24 1451 c 128,-1,9
EndSplineSet
Colour: ffffff
EndChar

StartChar: dieresiscomb
Encoding: 776 776 173
Width: 594
VWidth: 0
Flags: HMW
LayerCount: 2
Fore
SplineSet
333 1451 m 128,-1,1
 333 1490 333 1490 360.5 1517.5 c 128,-1,2
 388 1545 388 1545 442 1545 c 128,-1,3
 496 1545 496 1545 524.5 1518 c 128,-1,4
 553 1491 553 1491 553 1451 c 128,-1,5
 553 1411 553 1411 524.5 1383.5 c 128,-1,6
 496 1356 496 1356 441 1356 c 128,-1,7
 386 1356 386 1356 359.5 1384 c 128,-1,0
 333 1412 333 1412 333 1451 c 128,-1,1
24 1451 m 128,-1,9
 24 1490 24 1490 51.5 1517.5 c 128,-1,10
 79 1545 79 1545 133 1545 c 128,-1,11
 187 1545 187 1545 215.5 1518 c 128,-1,12
 244 1491 244 1491 244 1451 c 128,-1,13
 244 1411 244 1411 215.5 1383.5 c 128,-1,14
 187 1356 187 1356 132 1356 c 128,-1,15
 77 1356 77 1356 50.5 1384 c 128,-1,8
 24 1412 24 1412 24 1451 c 128,-1,9
EndSplineSet
EndChar

StartChar: divide
Encoding: 247 247 174
Width: 877
VWidth: 0
Flags: HMW
LayerCount: 2
Fore
SplineSet
266 783 m 128,-1,1
 266 839 266 839 308 878.5 c 128,-1,2
 350 918 350 918 432 918 c 128,-1,3
 514 918 514 918 557 879 c 128,-1,4
 600 840 600 840 600 782.5 c 128,-1,5
 600 725 600 725 557 686 c 128,-1,6
 514 647 514 647 430 647 c 128,-1,7
 346 647 346 647 306 687 c 128,-1,0
 266 727 266 727 266 783 c 128,-1,1
266 220 m 128,-1,9
 266 276 266 276 308 316 c 128,-1,10
 350 356 350 356 432 356 c 128,-1,11
 514 356 514 356 557 317 c 128,-1,12
 600 278 600 278 600 220.5 c 128,-1,13
 600 163 600 163 557 123.5 c 128,-1,14
 514 84 514 84 430 84 c 128,-1,15
 346 84 346 84 306 124 c 128,-1,8
 266 164 266 164 266 220 c 128,-1,9
28 432 m 1,16,-1
 40 578 l 1,17,-1
 851 578 l 1,18,-1
 841 432 l 1,19,-1
 28 432 l 1,16,-1
EndSplineSet
EndChar

StartChar: dollar
Encoding: 36 36 175
Width: 899
VWidth: 0
Flags: HMW
LayerCount: 2
Fore
SplineSet
58 911.5 m 128,-1,1
 58 968 58 968 85 1033.5 c 128,-1,2
 112 1099 112 1099 159 1144 c 0,3,4
 254 1235 254 1235 401 1260 c 1,5,-1
 390 1392 l 1,6,-1
 616 1417 l 1,7,-1
 590 1261 l 1,8,9
 703 1243 703 1243 806 1178 c 1,10,-1
 782 861 l 1,11,-1
 646 882 l 1,12,-1
 614 1079 l 1,13,14
 591 1109 591 1109 521 1132 c 1,15,-1
 508 779 l 1,16,17
 525 770 525 770 559.5 752 c 128,-1,18
 594 734 594 734 613.5 723.5 c 128,-1,19
 633 713 633 713 665.5 694.5 c 128,-1,20
 698 676 698 676 717.5 662.5 c 128,-1,21
 737 649 737 649 764 628 c 128,-1,22
 791 607 791 607 807 588 c 0,23,24
 854 534 854 534 873.5 485 c 128,-1,25
 893 436 893 436 893 366.5 c 128,-1,26
 893 297 893 297 862.5 230 c 128,-1,27
 832 163 832 163 781 116 c 0,28,29
 678 23 678 23 536 -9 c 1,30,-1
 542 -161 l 1,31,-1
 313 -181 l 1,32,-1
 334 -18 l 1,33,34
 242 -4 242 -4 157.5 37.5 c 128,-1,35
 73 79 73 79 33 129 c 1,36,-1
 56 428 l 1,37,-1
 196 407 l 1,38,-1
 246 200 l 1,39,40
 299 125 299 125 398 110 c 1,41,-1
 412 496 l 1,42,43
 410 497 410 497 390 507.5 c 128,-1,44
 370 518 370 518 351.5 528 c 128,-1,45
 333 538 333 538 298 558 c 128,-1,46
 263 578 263 578 243.5 592 c 128,-1,47
 224 606 224 606 195 628 c 128,-1,48
 166 650 166 650 149.5 669 c 128,-1,49
 133 688 133 688 113 714.5 c 128,-1,50
 93 741 93 741 82.5 766.5 c 128,-1,51
 72 792 72 792 65 823.5 c 128,-1,0
 58 855 58 855 58 911.5 c 128,-1,1
306 1009.5 m 128,-1,53
 306 946 306 946 339.5 903.5 c 128,-1,54
 373 861 373 861 435 821 c 1,55,-1
 448 1145 l 1,56,57
 386 1145 386 1145 346 1109 c 128,-1,52
 306 1073 306 1073 306 1009.5 c 128,-1,53
489 454 m 1,58,-1
 476 111 l 1,59,60
 544 123 544 123 590 168 c 128,-1,61
 636 213 636 213 636 274.5 c 128,-1,62
 636 336 636 336 598 374.5 c 128,-1,63
 560 413 560 413 489 454 c 1,58,-1
EndSplineSet
EndChar

StartChar: dollar.osf
Encoding: 65538 -1 176
Width: 819
VWidth: 0
Flags: HMW
LayerCount: 2
Fore
SplineSet
690 759 m 128,-1,1
 690 691 690 691 643 648.5 c 128,-1,2
 596 606 596 606 525 600 c 1,3,-1
 505 664 l 1,4,5
 468 808 468 808 354 808 c 0,6,7
 309 808 309 808 282.5 781 c 128,-1,8
 256 754 256 754 256 716 c 128,-1,9
 256 678 256 678 290 645.5 c 128,-1,10
 324 613 324 613 375 588 c 128,-1,11
 426 563 426 563 485 529.5 c 128,-1,12
 544 496 544 496 595 460.5 c 128,-1,13
 646 425 646 425 680 369 c 128,-1,14
 714 313 714 313 714 246 c 0,15,16
 714 143 714 143 640.5 71.5 c 128,-1,17
 567 0 567 0 450 -24 c 1,18,-1
 468 -178 l 1,19,-1
 304 -196 l 1,20,-1
 324 -35 l 1,21,22
 200 -30 200 -30 112.5 23.5 c 128,-1,23
 25 77 25 77 25 147 c 0,24,25
 25 286 25 286 187 300 c 1,26,27
 216 199 216 199 265 146.5 c 128,-1,28
 314 94 314 94 373 94 c 0,29,30
 494 94 494 94 494 176 c 0,31,32
 494 236 494 236 378.5 291 c 128,-1,33
 263 346 263 346 168 416 c 0,34,35
 119 452 119 452 86.5 507 c 128,-1,36
 54 562 54 562 54 611.5 c 128,-1,37
 54 661 54 661 63 695 c 0,38,39
 83 771 83 771 149 836 c 128,-1,40
 215 901 215 901 329 919 c 1,41,-1
 309 1054 l 1,42,-1
 470 1072 l 1,43,-1
 451 922 l 1,44,45
 560 914 560 914 625 870.5 c 128,-1,0
 690 827 690 827 690 759 c 128,-1,1
EndSplineSet
EndChar

StartChar: dotaccent
Encoding: 729 729 177
Width: 426
VWidth: 0
Flags: HMW
LayerCount: 2
Fore
SplineSet
46 1473 m 128,-1,1
 46 1529 46 1529 89 1569.5 c 128,-1,2
 132 1610 132 1610 213 1610 c 128,-1,3
 294 1610 294 1610 337 1570.5 c 128,-1,4
 380 1531 380 1531 380 1473.5 c 128,-1,5
 380 1416 380 1416 337 1377 c 128,-1,6
 294 1338 294 1338 210 1338 c 128,-1,7
 126 1338 126 1338 86 1377.5 c 128,-1,0
 46 1417 46 1417 46 1473 c 128,-1,1
EndSplineSet
EndChar

StartChar: dotaccentcomb
Encoding: 775 775 178
Width: 240
VWidth: 0
Flags: HMW
LayerCount: 2
Fore
SplineSet
45 1459.5 m 128,-1,1
 45 1513 45 1513 85.5 1552 c 128,-1,2
 126 1591 126 1591 205 1591 c 128,-1,3
 284 1591 284 1591 325 1552.5 c 128,-1,4
 366 1514 366 1514 366 1459 c 128,-1,5
 366 1404 366 1404 325 1367.5 c 128,-1,6
 284 1331 284 1331 202.5 1331 c 128,-1,7
 121 1331 121 1331 83 1368.5 c 128,-1,0
 45 1406 45 1406 45 1459.5 c 128,-1,1
EndSplineSet
EndChar

StartChar: dotbelowcomb
Encoding: 803 803 179
Width: 221
VWidth: 0
Flags: HMW
LayerCount: 2
Fore
SplineSet
0 -265.5 m 128,-1,1
 0 -218 0 -218 37.5 -184 c 128,-1,2
 75 -150 75 -150 148.5 -150 c 128,-1,3
 222 -150 222 -150 261 -183 c 128,-1,4
 300 -216 300 -216 300 -264.5 c 128,-1,5
 300 -313 300 -313 261 -346 c 128,-1,6
 222 -379 222 -379 146.5 -379 c 128,-1,7
 71 -379 71 -379 35.5 -346 c 128,-1,0
 0 -313 0 -313 0 -265.5 c 128,-1,1
EndSplineSet
EndChar

StartChar: dotlessi
Encoding: 305 305 180
Width: 588
VWidth: 0
Flags: HMW
LayerCount: 2
Fore
SplineSet
18 0 m 1,0,-1
 28 128 l 1,1,-1
 181 173 l 1,2,-1
 181 651 l 1,3,-1
 32 731 l 1,4,-1
 54 858 l 1,5,-1
 382 882 l 1,6,-1
 422 840 l 1,7,-1
 422 173 l 1,8,-1
 583 127 l 1,9,-1
 572 0 l 1,10,-1
 18 0 l 1,0,-1
EndSplineSet
EndChar

StartChar: e
Encoding: 101 101 181
Width: 823
VWidth: 0
Flags: HMW
LayerCount: 2
Fore
SplineSet
527 610 m 0,0,1
 527 772 527 772 416 772 c 0,2,3
 358 772 358 772 318.5 702.5 c 128,-1,4
 279 633 279 633 276 514 c 1,5,-1
 521 538 l 1,6,7
 527 562 527 562 527 610 c 0,0,1
26 429 m 0,8,9
 26 538 26 538 66 633 c 0,10,11
 106 728 106 728 170 790 c 0,12,13
 308 924 308 924 478 924 c 0,14,15
 615 924 615 924 697 831 c 128,-1,16
 779 738 779 738 779 580 c 0,17,18
 779 505 779 505 760 426 c 1,19,-1
 280 416 l 1,20,21
 286 302 286 302 355.5 226 c 128,-1,22
 425 150 425 150 552.5 150 c 128,-1,23
 680 150 680 150 782 206 c 1,24,-1
 802 113 l 1,25,26
 741 41 741 41 638.5 5.5 c 128,-1,27
 536 -30 536 -30 428 -30 c 0,28,29
 254 -30 254 -30 140 90 c 128,-1,30
 26 210 26 210 26 429 c 0,8,9
EndSplineSet
EndChar

StartChar: eacute
Encoding: 233 233 182
Width: 823
VWidth: 0
Flags: HMW
LayerCount: 2
Fore
SplineSet
386 1076 m 1,0,-1
 500 1390 l 1,1,-1
 722 1362 l 1,2,-1
 540 1049 l 1,3,-1
 386 1076 l 1,0,-1
527 610 m 0,4,5
 527 772 527 772 416 772 c 0,6,7
 358 772 358 772 318.5 702.5 c 128,-1,8
 279 633 279 633 276 514 c 1,9,-1
 521 538 l 1,10,11
 527 562 527 562 527 610 c 0,4,5
26 429 m 0,12,13
 26 538 26 538 66 633 c 0,14,15
 106 728 106 728 170 790 c 0,16,17
 308 924 308 924 478 924 c 0,18,19
 615 924 615 924 697 831 c 128,-1,20
 779 738 779 738 779 580 c 0,21,22
 779 505 779 505 760 426 c 1,23,-1
 280 416 l 1,24,25
 286 302 286 302 355.5 226 c 128,-1,26
 425 150 425 150 552.5 150 c 128,-1,27
 680 150 680 150 782 206 c 1,28,-1
 802 113 l 1,29,30
 741 41 741 41 638.5 5.5 c 128,-1,31
 536 -30 536 -30 428 -30 c 0,32,33
 254 -30 254 -30 140 90 c 128,-1,34
 26 210 26 210 26 429 c 0,12,13
EndSplineSet
EndChar

StartChar: ecaron
Encoding: 283 283 183
Width: 823
VWidth: 0
Flags: HMW
LayerCount: 2
Fore
SplineSet
212 1200 m 1,0,-1
 417 1235 l 1,1,-1
 506 1150 l 1,2,-1
 516 1150 l 1,3,-1
 600 1231 l 1,4,-1
 743 1217 l 1,5,-1
 553 1001 l 1,6,-1
 406 980 l 1,7,-1
 212 1200 l 1,0,-1
527 610 m 0,8,9
 527 772 527 772 416 772 c 0,10,11
 358 772 358 772 318.5 702.5 c 128,-1,12
 279 633 279 633 276 514 c 1,13,-1
 521 538 l 1,14,15
 527 562 527 562 527 610 c 0,8,9
26 429 m 0,16,17
 26 538 26 538 66 633 c 0,18,19
 106 728 106 728 170 790 c 0,20,21
 308 924 308 924 478 924 c 0,22,23
 615 924 615 924 697 831 c 128,-1,24
 779 738 779 738 779 580 c 0,25,26
 779 505 779 505 760 426 c 1,27,-1
 280 416 l 1,28,29
 286 302 286 302 355.5 226 c 128,-1,30
 425 150 425 150 552.5 150 c 128,-1,31
 680 150 680 150 782 206 c 1,32,-1
 802 113 l 1,33,34
 741 41 741 41 638.5 5.5 c 128,-1,35
 536 -30 536 -30 428 -30 c 0,36,37
 254 -30 254 -30 140 90 c 128,-1,38
 26 210 26 210 26 429 c 0,16,17
EndSplineSet
EndChar

StartChar: ecircumflex
Encoding: 234 234 184
Width: 823
VWidth: 0
Flags: HMW
LayerCount: 2
Fore
SplineSet
722 1037 m 1,0,-1
 553 1002 l 1,1,-1
 449 1087 l 1,2,-1
 439 1087 l 1,3,-1
 352 996 l 1,4,-1
 191 1020 l 1,5,-1
 355 1236 l 1,6,-1
 542 1257 l 1,7,-1
 722 1037 l 1,0,-1
527 610 m 0,8,9
 527 772 527 772 416 772 c 0,10,11
 358 772 358 772 318.5 702.5 c 128,-1,12
 279 633 279 633 276 514 c 1,13,-1
 521 538 l 1,14,15
 527 562 527 562 527 610 c 0,8,9
26 429 m 0,16,17
 26 538 26 538 66 633 c 0,18,19
 106 728 106 728 170 790 c 0,20,21
 308 924 308 924 478 924 c 0,22,23
 615 924 615 924 697 831 c 128,-1,24
 779 738 779 738 779 580 c 0,25,26
 779 505 779 505 760 426 c 1,27,-1
 280 416 l 1,28,29
 286 302 286 302 355.5 226 c 128,-1,30
 425 150 425 150 552.5 150 c 128,-1,31
 680 150 680 150 782 206 c 1,32,-1
 802 113 l 1,33,34
 741 41 741 41 638.5 5.5 c 128,-1,35
 536 -30 536 -30 428 -30 c 0,36,37
 254 -30 254 -30 140 90 c 128,-1,38
 26 210 26 210 26 429 c 0,16,17
EndSplineSet
EndChar

StartChar: edieresis
Encoding: 235 235 185
Width: 823
VWidth: 0
Flags: HMW
LayerCount: 2
Fore
SplineSet
479 1143 m 128,-1,1
 479 1182 479 1182 506.5 1209.5 c 128,-1,2
 534 1237 534 1237 588 1237 c 128,-1,3
 642 1237 642 1237 670.5 1210 c 128,-1,4
 699 1183 699 1183 699 1143 c 128,-1,5
 699 1103 699 1103 670.5 1075.5 c 128,-1,6
 642 1048 642 1048 587 1048 c 128,-1,7
 532 1048 532 1048 505.5 1076 c 128,-1,0
 479 1104 479 1104 479 1143 c 128,-1,1
170 1143 m 128,-1,9
 170 1182 170 1182 197.5 1209.5 c 128,-1,10
 225 1237 225 1237 279 1237 c 128,-1,11
 333 1237 333 1237 361.5 1210 c 128,-1,12
 390 1183 390 1183 390 1143 c 128,-1,13
 390 1103 390 1103 361.5 1075.5 c 128,-1,14
 333 1048 333 1048 278 1048 c 128,-1,15
 223 1048 223 1048 196.5 1076 c 128,-1,8
 170 1104 170 1104 170 1143 c 128,-1,9
527 610 m 0,16,17
 527 772 527 772 416 772 c 0,18,19
 358 772 358 772 318.5 702.5 c 128,-1,20
 279 633 279 633 276 514 c 1,21,-1
 521 538 l 1,22,23
 527 562 527 562 527 610 c 0,16,17
26 429 m 0,24,25
 26 538 26 538 66 633 c 0,26,27
 106 728 106 728 170 790 c 0,28,29
 308 924 308 924 478 924 c 0,30,31
 615 924 615 924 697 831 c 128,-1,32
 779 738 779 738 779 580 c 0,33,34
 779 505 779 505 760 426 c 1,35,-1
 280 416 l 1,36,37
 286 302 286 302 355.5 226 c 128,-1,38
 425 150 425 150 552.5 150 c 128,-1,39
 680 150 680 150 782 206 c 1,40,-1
 802 113 l 1,41,42
 741 41 741 41 638.5 5.5 c 128,-1,43
 536 -30 536 -30 428 -30 c 0,44,45
 254 -30 254 -30 140 90 c 128,-1,46
 26 210 26 210 26 429 c 0,24,25
EndSplineSet
EndChar

StartChar: edotaccent
Encoding: 279 279 186
Width: 823
VWidth: 0
Flags: HMW
LayerCount: 2
Fore
SplineSet
310 1185 m 128,-1,1
 310 1241 310 1241 353 1281.5 c 128,-1,2
 396 1322 396 1322 477 1322 c 128,-1,3
 558 1322 558 1322 601 1282.5 c 128,-1,4
 644 1243 644 1243 644 1185.5 c 128,-1,5
 644 1128 644 1128 601 1089 c 128,-1,6
 558 1050 558 1050 474 1050 c 128,-1,7
 390 1050 390 1050 350 1089.5 c 128,-1,0
 310 1129 310 1129 310 1185 c 128,-1,1
527 610 m 0,8,9
 527 772 527 772 416 772 c 0,10,11
 358 772 358 772 318.5 702.5 c 128,-1,12
 279 633 279 633 276 514 c 1,13,-1
 521 538 l 1,14,15
 527 562 527 562 527 610 c 0,8,9
26 429 m 0,16,17
 26 538 26 538 66 633 c 0,18,19
 106 728 106 728 170 790 c 0,20,21
 308 924 308 924 478 924 c 0,22,23
 615 924 615 924 697 831 c 128,-1,24
 779 738 779 738 779 580 c 0,25,26
 779 505 779 505 760 426 c 1,27,-1
 280 416 l 1,28,29
 286 302 286 302 355.5 226 c 128,-1,30
 425 150 425 150 552.5 150 c 128,-1,31
 680 150 680 150 782 206 c 1,32,-1
 802 113 l 1,33,34
 741 41 741 41 638.5 5.5 c 128,-1,35
 536 -30 536 -30 428 -30 c 0,36,37
 254 -30 254 -30 140 90 c 128,-1,38
 26 210 26 210 26 429 c 0,16,17
EndSplineSet
EndChar

StartChar: egrave
Encoding: 232 232 187
Width: 823
VWidth: 0
Flags: HMW
LayerCount: 2
Fore
SplineSet
237 1384 m 1,0,-1
 454 1422 l 1,1,-1
 594 1082 l 1,2,-1
 437 1049 l 1,3,-1
 237 1384 l 1,0,-1
527 610 m 0,4,5
 527 772 527 772 416 772 c 0,6,7
 358 772 358 772 318.5 702.5 c 128,-1,8
 279 633 279 633 276 514 c 1,9,-1
 521 538 l 1,10,11
 527 562 527 562 527 610 c 0,4,5
26 429 m 0,12,13
 26 538 26 538 66 633 c 0,14,15
 106 728 106 728 170 790 c 0,16,17
 308 924 308 924 478 924 c 0,18,19
 615 924 615 924 697 831 c 128,-1,20
 779 738 779 738 779 580 c 0,21,22
 779 505 779 505 760 426 c 1,23,-1
 280 416 l 1,24,25
 286 302 286 302 355.5 226 c 128,-1,26
 425 150 425 150 552.5 150 c 128,-1,27
 680 150 680 150 782 206 c 1,28,-1
 802 113 l 1,29,30
 741 41 741 41 638.5 5.5 c 128,-1,31
 536 -30 536 -30 428 -30 c 0,32,33
 254 -30 254 -30 140 90 c 128,-1,34
 26 210 26 210 26 429 c 0,12,13
EndSplineSet
EndChar

StartChar: eight
Encoding: 56 56 188
Width: 908
VWidth: 0
Flags: HMW
LayerCount: 2
Fore
SplineSet
333 967.5 m 128,-1,1
 333 912 333 912 384.5 844 c 128,-1,2
 436 776 436 776 524 724 c 1,3,4
 564 748 564 748 579.5 783.5 c 128,-1,5
 595 819 595 819 595 898.5 c 128,-1,6
 595 978 595 978 551 1036 c 128,-1,7
 507 1094 507 1094 449 1094 c 128,-1,8
 391 1094 391 1094 362 1058.5 c 128,-1,0
 333 1023 333 1023 333 967.5 c 128,-1,1
292 305 m 128,-1,10
 292 220 292 220 347.5 154 c 128,-1,11
 403 88 403 88 475.5 88 c 128,-1,12
 548 88 548 88 585 122 c 128,-1,13
 622 156 622 156 622 206.5 c 128,-1,14
 622 257 622 257 598.5 286.5 c 128,-1,15
 575 316 575 316 561 331.5 c 128,-1,16
 547 347 547 347 516.5 372 c 128,-1,17
 486 397 486 397 468.5 410 c 128,-1,18
 451 423 451 423 411.5 452 c 128,-1,19
 372 481 372 481 355 494 c 1,20,21
 319 455 319 455 305.5 422.5 c 128,-1,9
 292 390 292 390 292 305 c 128,-1,10
27 275 m 0,22,23
 27 456 27 456 250 566 c 1,24,-1
 250 578 l 1,25,26
 72 709 72 709 72 871 c 0,27,28
 72 1004 72 1004 183 1102 c 128,-1,29
 294 1200 294 1200 464 1200 c 128,-1,30
 634 1200 634 1200 731.5 1119.5 c 128,-1,31
 829 1039 829 1039 829 926 c 0,32,33
 829 847 829 847 773 771.5 c 128,-1,34
 717 696 717 696 631 660 c 1,35,-1
 630 647 l 1,36,37
 761 556 761 556 817.5 483.5 c 128,-1,38
 874 411 874 411 874 316 c 0,39,40
 874 170 874 170 749 71.5 c 128,-1,41
 624 -27 624 -27 430.5 -27 c 128,-1,42
 237 -27 237 -27 132 58.5 c 128,-1,43
 27 144 27 144 27 275 c 0,22,23
EndSplineSet
Substitution2: "'sups' Superscript lookup 0 subtable" eight.superior
EndChar

StartChar: eight.osf
Encoding: 65539 -1 189
Width: 881
VWidth: 0
Flags: HMW
LayerCount: 2
Fore
SplineSet
330 973.5 m 128,-1,1
 330 916 330 916 378.5 844.5 c 128,-1,2
 427 773 427 773 513 722 c 1,3,4
 576 780 576 780 576 878.5 c 128,-1,5
 576 977 576 977 534 1035.5 c 128,-1,6
 492 1094 492 1094 440.5 1094 c 128,-1,7
 389 1094 389 1094 359.5 1062.5 c 128,-1,0
 330 1031 330 1031 330 973.5 c 128,-1,1
286 336 m 128,-1,9
 286 230 286 230 335.5 160 c 128,-1,10
 385 90 385 90 458 90 c 128,-1,11
 531 90 531 90 570.5 128.5 c 128,-1,12
 610 167 610 167 610 215.5 c 128,-1,13
 610 264 610 264 597 284.5 c 128,-1,14
 584 305 584 305 575.5 318 c 128,-1,15
 567 331 567 331 549.5 347.5 c 128,-1,16
 532 364 532 364 519 375 c 128,-1,17
 506 386 506 386 481.5 405 c 128,-1,18
 457 424 457 424 441.5 435.5 c 128,-1,19
 426 447 426 447 395.5 469 c 128,-1,20
 365 491 365 491 348 504 c 1,21,8
 286 442 286 442 286 336 c 128,-1,9
856 320 m 0,22,23
 856 176 856 176 728.5 74.5 c 128,-1,24
 601 -27 601 -27 414 -27 c 128,-1,25
 227 -27 227 -27 127.5 58 c 128,-1,26
 28 143 28 143 28 275 c 0,27,28
 28 462 28 462 248 574 c 1,29,-1
 248 586 l 1,30,31
 173 639 173 639 125.5 714 c 128,-1,32
 78 789 78 789 78 875 c 0,33,34
 78 1008 78 1008 183.5 1104 c 128,-1,35
 289 1200 289 1200 452.5 1200 c 128,-1,36
 616 1200 616 1200 707.5 1123 c 128,-1,37
 799 1046 799 1046 799 934 c 0,38,39
 799 772 799 772 620 663 c 1,40,-1
 620 650 l 1,41,42
 856 497 856 497 856 320 c 0,22,23
EndSplineSet
EndChar

StartChar: ellipsis
Encoding: 8230 8230 190
Width: 405
VWidth: 0
Flags: HMW
LayerCount: 2
Fore
SplineSet
-60 107 m 128,-1,1
 -60 163 -60 163 -18 202.5 c 128,-1,2
 24 242 24 242 106 242 c 128,-1,3
 188 242 188 242 231 203 c 128,-1,4
 274 164 274 164 274 106.5 c 128,-1,5
 274 49 274 49 231 10.5 c 128,-1,6
 188 -28 188 -28 104 -28 c 128,-1,7
 20 -28 20 -28 -20 11.5 c 128,-1,0
 -60 51 -60 51 -60 107 c 128,-1,1
354 107 m 128,-1,9
 354 163 354 163 396 202.5 c 128,-1,10
 438 242 438 242 520 242 c 128,-1,11
 602 242 602 242 645 203 c 128,-1,12
 688 164 688 164 688 106.5 c 128,-1,13
 688 49 688 49 645 10.5 c 128,-1,14
 602 -28 602 -28 518 -28 c 128,-1,15
 434 -28 434 -28 394 11.5 c 128,-1,8
 354 51 354 51 354 107 c 128,-1,9
756 107 m 128,-1,17
 756 163 756 163 798 202.5 c 128,-1,18
 840 242 840 242 922 242 c 128,-1,19
 1004 242 1004 242 1047 203 c 128,-1,20
 1090 164 1090 164 1090 106.5 c 128,-1,21
 1090 49 1090 49 1047 10.5 c 128,-1,22
 1004 -28 1004 -28 920 -28 c 128,-1,23
 836 -28 836 -28 796 11.5 c 128,-1,16
 756 51 756 51 756 107 c 128,-1,17
EndSplineSet
EndChar

StartChar: emacron
Encoding: 275 275 191
Width: 823
VWidth: 0
Flags: HMW
LayerCount: 2
Fore
SplineSet
245 1049 m 1,0,-1
 262 1196 l 1,1,-1
 709 1196 l 1,2,-1
 692 1049 l 1,3,-1
 245 1049 l 1,0,-1
527 610 m 0,4,5
 527 772 527 772 416 772 c 0,6,7
 358 772 358 772 318.5 702.5 c 128,-1,8
 279 633 279 633 276 514 c 1,9,-1
 521 538 l 1,10,11
 527 562 527 562 527 610 c 0,4,5
26 429 m 0,12,13
 26 538 26 538 66 633 c 0,14,15
 106 728 106 728 170 790 c 0,16,17
 308 924 308 924 478 924 c 0,18,19
 615 924 615 924 697 831 c 128,-1,20
 779 738 779 738 779 580 c 0,21,22
 779 505 779 505 760 426 c 1,23,-1
 280 416 l 1,24,25
 286 302 286 302 355.5 226 c 128,-1,26
 425 150 425 150 552.5 150 c 128,-1,27
 680 150 680 150 782 206 c 1,28,-1
 802 113 l 1,29,30
 741 41 741 41 638.5 5.5 c 128,-1,31
 536 -30 536 -30 428 -30 c 0,32,33
 254 -30 254 -30 140 90 c 128,-1,34
 26 210 26 210 26 429 c 0,12,13
EndSplineSet
EndChar

StartChar: emdash
Encoding: 8212 8212 192
Width: 1348
VWidth: 0
Flags: HMW
LayerCount: 2
Fore
SplineSet
44 388 m 1,0,-1
 62 534 l 1,1,-1
 1307 541 l 1,2,-1
 1286 394 l 1,3,-1
 44 388 l 1,0,-1
EndSplineSet
EndChar

StartChar: emptyset
Encoding: 8709 8709 193
Width: 1040
VWidth: 0
Flags: HMW
LayerCount: 2
Fore
SplineSet
67 421.5 m 128,-1,1
 67 537 67 537 106 626 c 128,-1,2
 145 715 145 715 208 781 c 128,-1,3
 271 847 271 847 354.5 887.5 c 128,-1,4
 438 928 438 928 524 928 c 0,5,6
 698 928 698 928 819 822 c 1,7,-1
 908 924 l 1,8,-1
 1028 757 l 1,9,-1
 925 683 l 1,10,11
 978 574 978 574 978 443.5 c 128,-1,12
 978 313 978 313 923.5 204.5 c 128,-1,13
 869 96 869 96 764.5 29.5 c 128,-1,14
 660 -37 660 -37 508.5 -37 c 128,-1,15
 357 -37 357 -37 233 65 c 1,16,-1
 139 -44 l 1,17,-1
 19 124 l 1,18,-1
 126 196 l 1,19,0
 67 306 67 306 67 421.5 c 128,-1,1
780 444 m 0,20,21
 780 524 780 524 760 586 c 1,22,-1
 337 208 l 1,23,24
 409 126 409 126 525.5 126 c 128,-1,25
 642 126 642 126 711 202 c 128,-1,26
 780 278 780 278 780 444 c 0,20,21
528 760 m 128,-1,28
 408 760 408 760 336 678 c 128,-1,29
 264 596 264 596 264 442 c 0,30,31
 264 352 264 352 291 285 c 1,32,-1
 718 667 l 1,33,27
 648 760 648 760 528 760 c 128,-1,28
EndSplineSet
EndChar

StartChar: endash
Encoding: 8211 8211 194
Width: 776
VWidth: 0
Flags: HMW
LayerCount: 2
Fore
SplineSet
44 388 m 1,0,-1
 62 534 l 1,1,-1
 736 541 l 1,2,-1
 713 394 l 1,3,-1
 44 388 l 1,0,-1
EndSplineSet
EndChar

StartChar: eng
Encoding: 331 331 195
Width: 1049
VWidth: 0
Flags: HMW
LayerCount: 2
Fore
SplineSet
714 914 m 0,0,1
 830 914 830 914 894 842 c 128,-1,2
 958 770 958 770 958 628 c 2,3,-1
 958 153 l 1,4,5
 957 -208 957 -208 590 -365 c 1,6,-1
 546 -382 l 1,7,-1
 480 -254 l 1,8,9
 531 -216 531 -216 565 -184 c 0,10,11
 598 -152 598 -152 638 -96 c 0,12,13
 718 17 718 17 719 213 c 2,14,-1
 719 503 l 2,15,16
 719 682 719 682 584 682 c 0,17,18
 490 682 490 682 422 614 c 1,19,-1
 422 172 l 1,20,-1
 558 122 l 1,21,-1
 536 0 l 1,22,-1
 18 0 l 1,23,-1
 32 115 l 1,24,-1
 178 172 l 1,25,-1
 178 680 l 1,26,-1
 30 747 l 1,27,-1
 49 869 l 1,28,-1
 400 903 l 1,29,-1
 427 874 l 1,30,-1
 407 759 l 1,31,-1
 420 756 l 1,32,33
 564 914 564 914 714 914 c 0,0,1
EndSplineSet
EndChar

StartChar: eogonek
Encoding: 281 281 196
Width: 823
VWidth: 0
Flags: HMW
LayerCount: 2
Fore
SplineSet
527 610 m 0,0,1
 527 772 527 772 416 772 c 0,2,3
 358 772 358 772 318.5 702.5 c 128,-1,4
 279 633 279 633 276 514 c 1,5,-1
 521 538 l 1,6,7
 527 562 527 562 527 610 c 0,0,1
26 429 m 0,8,9
 26 538 26 538 66 633 c 0,10,11
 106 728 106 728 170 790 c 0,12,13
 308 924 308 924 478 924 c 0,14,15
 615 924 615 924 697 831 c 128,-1,16
 779 738 779 738 779 580 c 0,17,18
 779 505 779 505 760 426 c 1,19,-1
 280 416 l 1,20,21
 286 302 286 302 355.5 226 c 128,-1,22
 425 150 425 150 552.5 150 c 128,-1,23
 680 150 680 150 782 206 c 1,24,-1
 802 113 l 1,25,26
 737 35 737 35 615 -2 c 1,27,28
 569 -103 569 -103 583.5 -177 c 128,-1,29
 598 -251 598 -251 684 -314 c 1,30,-1
 655 -386 l 1,31,32
 537 -377 537 -377 457 -327 c 128,-1,33
 377 -277 377 -277 377 -203 c 0,34,35
 377 -156 377 -156 400 -116.5 c 128,-1,36
 423 -77 423 -77 481 -28 c 1,37,38
 454 -30 454 -30 428 -30 c 0,39,40
 254 -30 254 -30 140 90 c 128,-1,41
 26 210 26 210 26 429 c 0,8,9
EndSplineSet
EndChar

StartChar: equal
Encoding: 61 61 197
Width: 771
VWidth: 0
Flags: HMW
LayerCount: 2
Fore
SplineSet
24 519 m 1,0,-1
 46 684 l 1,1,-1
 754 684 l 1,2,-1
 734 519 l 1,3,-1
 24 519 l 1,0,-1
20 280 m 1,4,-1
 42 445 l 1,5,-1
 752 445 l 1,6,-1
 732 280 l 1,7,-1
 20 280 l 1,4,-1
EndSplineSet
EndChar

StartChar: eth
Encoding: 240 240 198
Width: 927
VWidth: 0
Flags: HMW
LayerCount: 2
Fore
SplineSet
493 112 m 128,-1,1
 581 112 581 112 611.5 189 c 128,-1,2
 642 266 642 266 642 427 c 128,-1,3
 642 588 642 588 577.5 701.5 c 128,-1,4
 513 815 513 815 437 817 c 1,5,6
 282 817 282 817 282 498 c 1,7,8
 286 327 286 327 345.5 219.5 c 128,-1,0
 405 112 405 112 493 112 c 128,-1,1
892 498 m 0,9,10
 892 266 892 266 775.5 119.5 c 128,-1,11
 659 -27 659 -27 460 -27 c 0,12,13
 347 -27 347 -27 261 13 c 0,14,15
 175 54 175 54 125 122 c 0,16,17
 26 258 26 258 26 451 c 0,18,19
 26 547 26 547 61.5 639.5 c 128,-1,20
 97 732 97 732 154 798.5 c 128,-1,21
 211 865 211 865 284.5 906 c 128,-1,22
 358 947 358 947 445 947 c 128,-1,23
 532 947 532 947 573 872 c 1,24,-1
 578 876 l 1,25,26
 560 934 560 934 494 1058 c 1,27,-1
 286 1018 l 1,28,-1
 295 1119 l 1,29,-1
 448 1151 l 1,30,31
 387 1249 387 1249 328 1302 c 1,32,-1
 515 1302 l 1,33,34
 577 1259 577 1259 636 1195 c 1,35,-1
 793 1228 l 1,36,-1
 782 1119 l 1,37,-1
 707 1104 l 1,38,39
 892 838 892 838 892 498 c 0,9,10
EndSplineSet
EndChar

StartChar: exclam
Encoding: 33 33 199
Width: 419
VWidth: 0
Flags: HMW
LayerCount: 2
Back
SplineSet
46.5 593 m 0,0,1
 46.5 622.731 46.5 622.731 70.9554 674.866 c 0
 95.4107 727 95.4107 727 118 727 c 0,2,3
 179 727 179 727 361.5 707.5 c 0
 544 688 544 688 544 667 c 0,4,5
 544 635 544 635 520.5 579.5 c 0
 497 524 497 524 473.5 524 c 0,6,7
 456 524 456 524 428.75 507.25 c 0
 401.5 490.5 401.5 490.5 384 490.5 c 0,8,9
 372.333 490.5 372.333 490.5 374.156 428.469 c 0
 375.979 366.438 375.979 366.438 384 292 c 0
 392.021 217.562 392.021 217.562 393.844 155.531 c 0
 395.667 93.5 395.667 93.5 384 93.5 c 0,10,11
 372.119 93.5 372.119 93.5 388.863 88.3798 c 0
 398.444 85.45 398.444 85.45 429 77.75 c 0
 479 65.15 479 65.15 479.04 62.882 c 0
 479.056 62 479.056 62 474 62 c 0,12,13
 462 62 462 62 463 49.5 c 0
 464 37 464 37 471 22 c 0
 478 7 478 7 478.5 -5.5 c 0
 479 -18 479 -18 467.5 -18 c 2,14,15
 109 -18 l 2,16,17
 91.8097 -18 91.8097 -18 108.569 12.267 c 0
 126.989 45.5341 126.989 45.5341 121.763 50.6993 c 0
 119.435 53 119.435 53 114 53 c 0,18,19
 101.472 53 101.472 53 120.6 60.2115 c 0
 130.046 63.7727 130.046 63.7727 158 72.75 c 0
 206.92 88.4602 206.92 88.4602 207.095 91.345 c 0
 207.165 92.5 207.165 92.5 202 92.5 c 0,20,21
 190.333 92.5 190.333 92.5 192.156 154.922 c 0
 193.979 217.344 193.979 217.344 202 292.25 c 0
 210.021 367.156 210.021 367.156 211.844 429.578 c 0
 213.667 492 213.667 492 202 492 c 0,22,23
 172.894 492 172.894 492 109.697 530.239 c 0
 46.5 568.478 46.5 568.478 46.5 593 c 0,0,1
EndSplineSet
Fore
SplineSet
64 1219.5 m 128,-1,1
 64 1258 64 1258 110 1278.5 c 128,-1,2
 156 1299 156 1299 221 1299 c 128,-1,3
 286 1299 286 1299 314 1285 c 128,-1,4
 342 1271 342 1271 342 1234 c 0,5,6
 342 986 342 986 274 360 c 1,7,-1
 148 384 l 1,8,9
 143 431 143 431 128.5 555 c 128,-1,10
 114 679 114 679 105 758 c 128,-1,11
 96 837 96 837 85.5 938.5 c 128,-1,12
 75 1040 75 1040 69.5 1110.5 c 128,-1,0
 64 1181 64 1181 64 1219.5 c 128,-1,1
42 107.5 m 128,-1,14
 42 165 42 165 85 205 c 128,-1,15
 128 245 128 245 210 245 c 128,-1,16
 292 245 292 245 335.5 205 c 128,-1,17
 379 165 379 165 379 106.5 c 128,-1,18
 379 48 379 48 335.5 8.5 c 128,-1,19
 292 -31 292 -31 207 -31 c 128,-1,20
 122 -31 122 -31 82 9.5 c 128,-1,13
 42 50 42 50 42 107.5 c 128,-1,14
EndSplineSet
EndChar

StartChar: exclamdown
Encoding: 161 161 200
Width: 419
VWidth: 0
Flags: HMW
LayerCount: 2
Fore
SplineSet
356 -371.5 m 128,-1,1
 356 -410 356 -410 310 -430.5 c 128,-1,2
 264 -451 264 -451 199 -451 c 128,-1,3
 134 -451 134 -451 106 -437 c 128,-1,4
 78 -423 78 -423 78 -386 c 0,5,6
 78 -138 78 -138 146 488 c 1,7,-1
 272 464 l 1,8,9
 277 417 277 417 291.5 293 c 128,-1,10
 306 169 306 169 315 90 c 128,-1,11
 324 11 324 11 334.5 -90.5 c 128,-1,12
 345 -192 345 -192 350.5 -262.5 c 128,-1,0
 356 -333 356 -333 356 -371.5 c 128,-1,1
378 740.5 m 128,-1,14
 378 683 378 683 335 643 c 128,-1,15
 292 603 292 603 210 603 c 128,-1,16
 128 603 128 603 84.5 643 c 128,-1,17
 41 683 41 683 41 741.5 c 128,-1,18
 41 800 41 800 84.5 839.5 c 128,-1,19
 128 879 128 879 213 879 c 128,-1,20
 298 879 298 879 338 838.5 c 128,-1,13
 378 798 378 798 378 740.5 c 128,-1,14
EndSplineSet
EndChar

StartChar: f
Encoding: 102 102 201
Width: 794
VWidth: 0
Flags: HMW
LayerCount: 2
Fore
SplineSet
183 742 m 1,0,-1
 34 742 l 1,1,-1
 44 853 l 1,2,-1
 182 876 l 1,3,4
 199 1071 199 1071 319 1183 c 128,-1,5
 439 1295 439 1295 594 1295 c 0,6,7
 828 1295 828 1295 828 1162 c 0,8,9
 828 1113 828 1113 783 1071 c 128,-1,10
 738 1029 738 1029 690 1021 c 1,11,12
 663 1064 663 1064 645 1089.5 c 128,-1,13
 627 1115 627 1115 595 1140.5 c 128,-1,14
 563 1166 563 1166 520 1166 c 128,-1,15
 477 1166 477 1166 447 1123.5 c 128,-1,16
 417 1081 417 1081 416 968 c 1,17,-1
 414 870 l 1,18,-1
 674 870 l 1,19,-1
 662 742 l 1,20,-1
 414 742 l 1,21,-1
 414 180 l 1,22,-1
 660 128 l 1,23,-1
 652 0 l 1,24,-1
 18 0 l 1,25,-1
 30 116 l 1,26,-1
 183 173 l 1,27,-1
 183 742 l 1,0,-1
EndSplineSet
EndChar

StartChar: f.alt2
Encoding: 65540 -1 202
Width: 725
VWidth: 0
Flags: HMW
LayerCount: 2
Fore
SplineSet
183 742 m 1,0,-1
 34 742 l 1,1,-1
 44 853 l 1,2,-1
 182 876 l 1,3,4
 199 1073 199 1073 299.5 1183.5 c 128,-1,5
 400 1294 400 1294 534 1294 c 0,6,7
 722 1294 722 1294 722 1174 c 0,8,9
 722 1128 722 1128 682 1090 c 128,-1,10
 642 1052 642 1052 596 1042 c 1,11,12
 547 1160 547 1160 484 1160 c 0,13,14
 443 1160 443 1160 430 1124.5 c 128,-1,15
 417 1089 417 1089 416 968 c 1,16,-1
 414 870 l 1,17,-1
 674 870 l 1,18,-1
 662 742 l 1,19,-1
 414 742 l 1,20,-1
 414 180 l 1,21,-1
 660 128 l 1,22,-1
 652 0 l 1,23,-1
 18 0 l 1,24,-1
 30 116 l 1,25,-1
 183 173 l 1,26,-1
 183 742 l 1,0,-1
EndSplineSet
EndChar

StartChar: five
Encoding: 53 53 203
Width: 862
VWidth: 0
Flags: HMW
LayerCount: 2
Fore
SplineSet
316 84 m 128,-1,1
 399 84 399 84 453.5 134 c 128,-1,2
 508 184 508 184 508 269 c 0,3,4
 508 395 508 395 397 474 c 128,-1,5
 286 553 286 553 75 560 c 1,6,-1
 196 1168 l 1,7,-1
 705 1198 l 1,8,-1
 670 952 l 1,9,-1
 278 938 l 1,10,-1
 254 766 l 1,11,12
 635 755 635 755 732 515 c 0,13,14
 759 448 759 448 759 351 c 128,-1,15
 759 254 759 254 684.5 159 c 128,-1,16
 610 64 610 64 493.5 13 c 128,-1,17
 377 -38 377 -38 229 -38 c 128,-1,18
 81 -38 81 -38 -10 40 c 1,19,-1
 42 408 l 1,20,-1
 160 380 l 1,21,-1
 191 136 l 1,22,0
 233 84 233 84 316 84 c 128,-1,1
EndSplineSet
Substitution2: "'sups' Superscript lookup 0 subtable" five.superior
EndChar

StartChar: five.osf
Encoding: 65541 -1 204
Width: 769
VWidth: 0
Flags: HMW
LayerCount: 2
Fore
SplineSet
-48 -120 m 128,-1,1
 -48 -50 -48 -50 -1 -7 c 128,-1,2
 46 36 46 36 124 50 c 1,3,4
 193 -188 193 -188 322 -188 c 0,5,6
 412 -188 412 -188 465 -119.5 c 128,-1,7
 518 -51 518 -51 518 74 c 128,-1,8
 518 199 518 199 412 289.5 c 128,-1,9
 306 380 306 380 111 402 c 1,10,-1
 241 957 l 1,11,-1
 719 996 l 1,12,-1
 686 786 l 1,13,-1
 303 772 l 1,14,-1
 281 612 l 1,15,16
 508 578 508 578 629.5 455 c 128,-1,17
 751 332 751 332 751 157 c 128,-1,18
 751 -18 751 -18 620 -156 c 0,19,20
 482 -302 482 -302 244 -302 c 0,21,22
 120 -302 120 -302 36 -246 c 128,-1,0
 -48 -190 -48 -190 -48 -120 c 128,-1,1
EndSplineSet
EndChar

StartChar: four
Encoding: 52 52 205
Width: 1029
VWidth: 0
Flags: HMW
LayerCount: 2
Fore
SplineSet
512 496 m 1,0,-1
 512 864 l 1,1,-1
 240 496 l 1,2,-1
 512 496 l 1,0,-1
768 682 m 2,3,-1
 768 496 l 1,4,-1
 1023 496 l 1,5,-1
 1007 331 l 1,6,-1
 768 331 l 1,7,-1
 768 147 l 1,8,-1
 984 102 l 1,9,-1
 974 -1 l 1,10,-1
 267 -1 l 1,11,-1
 272 90 l 1,12,-1
 514 150 l 1,13,-1
 514 334 l 1,14,-1
 14 334 l 1,15,-1
 -10 448 l 1,16,-1
 684 1218 l 1,17,-1
 779 1193 l 1,18,19
 768 973 768 973 768 682 c 2,3,-1
EndSplineSet
Substitution2: "'sups' Superscript lookup 0 subtable" four.superior
EndChar

StartChar: four.osf
Encoding: 65542 -1 206
Width: 1018
VWidth: 0
Flags: HMW
LayerCount: 2
Fore
SplineSet
505 223 m 1,0,-1
 505 602 l 1,1,-1
 236 223 l 1,2,-1
 505 223 l 1,0,-1
759 389 m 2,3,-1
 759 223 l 1,4,-1
 1012 223 l 1,5,-1
 994 47 l 1,6,-1
 762 47 l 1,7,-1
 762 -264 l 1,8,-1
 504 -310 l 1,9,-1
 504 51 l 1,10,-1
 26 51 l 1,11,-1
 -4 172 l 1,12,-1
 658 1004 l 1,13,-1
 768 978 l 1,14,15
 759 798 759 798 759 389 c 2,3,-1
EndSplineSet
EndChar

StartChar: fraction
Encoding: 8260 8260 207
Width: 1569
VWidth: 0
Flags: HMW
LayerCount: 2
Fore
SplineSet
62 22 m 1,0,-1
 544 598 l 1,1,-1
 1010 1218 l 1,2,-1
 1244 1216 l 1,3,-1
 1244 1164 l 1,4,-1
 772 601 l 1,5,-1
 340 -16 l 1,6,-1
 62 22 l 1,0,-1
EndSplineSet
EndChar

StartChar: g
Encoding: 103 103 208
Width: 953
VWidth: 0
Flags: HMW
LayerCount: 2
Fore
SplineSet
312 626 m 0,0,1
 312 486 312 486 411 432 c 0,2,3
 430 422 430 422 440 422 c 0,4,5
 509 422 509 422 537.5 463.5 c 128,-1,6
 566 505 566 505 566 586 c 128,-1,7
 566 667 566 667 543 719 c 0,8,9
 499 818 499 818 426 818 c 0,10,11
 312 818 312 818 312 626 c 0,0,1
239 -94 m 0,12,13
 239 -243 239 -243 450.5 -243 c 128,-1,14
 662 -243 662 -243 662 -102 c 0,15,16
 662 -43 662 -43 616.5 -20 c 128,-1,17
 571 3 571 3 459 3 c 2,18,-1
 274 3 l 1,19,20
 273 0 273 0 256 -25 c 128,-1,21
 239 -50 239 -50 239 -94 c 0,12,13
12 -163 m 128,-1,23
 12 -105 12 -105 60.5 -57 c 128,-1,24
 109 -9 109 -9 171 12 c 1,25,-1
 171 24 l 1,26,27
 76 70 76 70 76 169 c 0,28,29
 76 219 76 219 134 271 c 128,-1,30
 192 323 192 323 257 342 c 1,31,-1
 256 354 l 1,32,33
 204 372 204 372 148 446 c 128,-1,34
 92 520 92 520 92 606 c 0,35,36
 92 730 92 730 196.5 825 c 128,-1,37
 301 920 301 920 449 920 c 128,-1,38
 597 920 597 920 694 857 c 1,39,-1
 919 881 l 1,40,-1
 944 852 l 1,41,-1
 902 700 l 1,42,-1
 877 698 l 1,43,-1
 770 732 l 1,44,-1
 768 722 l 1,45,46
 786 672 786 672 786 627 c 0,47,48
 786 532 786 532 734 460 c 0,49,50
 630 316 630 316 434 317 c 0,51,52
 404 317 404 317 356 326 c 1,53,54
 318 286 318 286 318 257 c 0,55,56
 318 196 318 196 458 196 c 2,57,-1
 594 196 l 2,58,59
 745 196 745 196 823.5 146 c 128,-1,60
 902 96 902 96 902 -34.5 c 128,-1,61
 902 -165 902 -165 752 -275.5 c 128,-1,62
 602 -386 602 -386 386 -386 c 0,63,64
 248 -386 248 -386 140 -340 c 0,65,66
 82 -316 82 -316 47 -268.5 c 128,-1,22
 12 -221 12 -221 12 -163 c 128,-1,23
EndSplineSet
EndChar

StartChar: gbreve
Encoding: 287 287 209
Width: 953
VWidth: 0
Flags: HMW
LayerCount: 2
Fore
SplineSet
449 1213 m 0,0,1
 547 1213 547 1213 592 1289 c 1,2,-1
 654 1242 l 1,3,4
 627 1163 627 1163 575.5 1106 c 128,-1,5
 524 1049 524 1049 464 1049 c 0,6,7
 358 1049 358 1049 310.5 1109 c 128,-1,8
 263 1169 263 1169 245 1242 c 1,9,-1
 318 1289 l 1,10,11
 340 1252 340 1252 369 1232.5 c 128,-1,12
 398 1213 398 1213 449 1213 c 0,0,1
312 626 m 0,13,14
 312 486 312 486 411 432 c 0,15,16
 430 422 430 422 440 422 c 0,17,18
 509 422 509 422 537.5 463.5 c 128,-1,19
 566 505 566 505 566 586 c 128,-1,20
 566 667 566 667 543 719 c 0,21,22
 499 818 499 818 426 818 c 0,23,24
 312 818 312 818 312 626 c 0,13,14
239 -94 m 0,25,26
 239 -243 239 -243 450.5 -243 c 128,-1,27
 662 -243 662 -243 662 -102 c 0,28,29
 662 -43 662 -43 616.5 -20 c 128,-1,30
 571 3 571 3 459 3 c 2,31,-1
 274 3 l 1,32,33
 273 0 273 0 256 -25 c 128,-1,34
 239 -50 239 -50 239 -94 c 0,25,26
12 -163 m 128,-1,36
 12 -105 12 -105 60.5 -57 c 128,-1,37
 109 -9 109 -9 171 12 c 1,38,-1
 171 24 l 1,39,40
 76 70 76 70 76 169 c 0,41,42
 76 219 76 219 134 271 c 128,-1,43
 192 323 192 323 257 342 c 1,44,-1
 256 354 l 1,45,46
 204 372 204 372 148 446 c 128,-1,47
 92 520 92 520 92 606 c 0,48,49
 92 730 92 730 196.5 825 c 128,-1,50
 301 920 301 920 449 920 c 128,-1,51
 597 920 597 920 694 857 c 1,52,-1
 919 881 l 1,53,-1
 944 852 l 1,54,-1
 902 700 l 1,55,-1
 877 698 l 1,56,-1
 770 732 l 1,57,-1
 768 722 l 1,58,59
 786 672 786 672 786 627 c 0,60,61
 786 532 786 532 734 460 c 0,62,63
 630 316 630 316 434 317 c 0,64,65
 404 317 404 317 356 326 c 1,66,67
 318 286 318 286 318 257 c 0,68,69
 318 196 318 196 458 196 c 2,70,-1
 594 196 l 2,71,72
 745 196 745 196 823.5 146 c 128,-1,73
 902 96 902 96 902 -34.5 c 128,-1,74
 902 -165 902 -165 752 -275.5 c 128,-1,75
 602 -386 602 -386 386 -386 c 0,76,77
 248 -386 248 -386 140 -340 c 0,78,79
 82 -316 82 -316 47 -268.5 c 128,-1,35
 12 -221 12 -221 12 -163 c 128,-1,36
EndSplineSet
EndChar

StartChar: gcommaaccent
Encoding: 291 291 210
Width: 953
VWidth: 0
Flags: HMW
LayerCount: 2
Fore
SplineSet
458 995 m 0,0,1
 381 995 381 995 336.5 1033 c 128,-1,2
 292 1071 292 1071 290 1140 c 0,3,4
 287 1245 287 1245 371.5 1295 c 128,-1,5
 456 1345 456 1345 583 1336 c 1,6,-1
 602 1257 l 1,7,8
 553 1262 553 1262 521 1244.5 c 128,-1,9
 489 1227 489 1227 489 1198.5 c 128,-1,10
 489 1170 489 1170 523 1153 c 128,-1,11
 557 1136 557 1136 602 1136 c 1,12,13
 600 995 600 995 458 995 c 0,0,1
312 626 m 0,14,15
 312 486 312 486 411 432 c 0,16,17
 430 422 430 422 440 422 c 0,18,19
 509 422 509 422 537.5 463.5 c 128,-1,20
 566 505 566 505 566 586 c 128,-1,21
 566 667 566 667 543 719 c 0,22,23
 499 818 499 818 426 818 c 0,24,25
 312 818 312 818 312 626 c 0,14,15
239 -94 m 0,26,27
 239 -243 239 -243 450.5 -243 c 128,-1,28
 662 -243 662 -243 662 -102 c 0,29,30
 662 -43 662 -43 616.5 -20 c 128,-1,31
 571 3 571 3 459 3 c 2,32,-1
 274 3 l 1,33,34
 273 0 273 0 256 -25 c 128,-1,35
 239 -50 239 -50 239 -94 c 0,26,27
12 -163 m 128,-1,37
 12 -105 12 -105 60.5 -57 c 128,-1,38
 109 -9 109 -9 171 12 c 1,39,-1
 171 24 l 1,40,41
 76 70 76 70 76 169 c 0,42,43
 76 219 76 219 134 271 c 128,-1,44
 192 323 192 323 257 342 c 1,45,-1
 256 354 l 1,46,47
 204 372 204 372 148 446 c 128,-1,48
 92 520 92 520 92 606 c 0,49,50
 92 730 92 730 196.5 825 c 128,-1,51
 301 920 301 920 449 920 c 128,-1,52
 597 920 597 920 694 857 c 1,53,-1
 919 881 l 1,54,-1
 944 852 l 1,55,-1
 902 700 l 1,56,-1
 877 698 l 1,57,-1
 770 732 l 1,58,-1
 768 722 l 1,59,60
 786 672 786 672 786 627 c 0,61,62
 786 532 786 532 734 460 c 0,63,64
 630 316 630 316 434 317 c 0,65,66
 404 317 404 317 356 326 c 1,67,68
 318 286 318 286 318 257 c 0,69,70
 318 196 318 196 458 196 c 2,71,-1
 594 196 l 2,72,73
 745 196 745 196 823.5 146 c 128,-1,74
 902 96 902 96 902 -34.5 c 128,-1,75
 902 -165 902 -165 752 -275.5 c 128,-1,76
 602 -386 602 -386 386 -386 c 0,77,78
 248 -386 248 -386 140 -340 c 0,79,80
 82 -316 82 -316 47 -268.5 c 128,-1,36
 12 -221 12 -221 12 -163 c 128,-1,37
EndSplineSet
EndChar

StartChar: gdotaccent
Encoding: 289 289 211
Width: 953
VWidth: 0
Flags: HMW
LayerCount: 2
Fore
SplineSet
282 1185 m 128,-1,1
 282 1241 282 1241 325 1281.5 c 128,-1,2
 368 1322 368 1322 449 1322 c 128,-1,3
 530 1322 530 1322 573 1282.5 c 128,-1,4
 616 1243 616 1243 616 1185.5 c 128,-1,5
 616 1128 616 1128 573 1089 c 128,-1,6
 530 1050 530 1050 446 1050 c 128,-1,7
 362 1050 362 1050 322 1089.5 c 128,-1,0
 282 1129 282 1129 282 1185 c 128,-1,1
312 626 m 0,8,9
 312 486 312 486 411 432 c 0,10,11
 430 422 430 422 440 422 c 0,12,13
 509 422 509 422 537.5 463.5 c 128,-1,14
 566 505 566 505 566 586 c 128,-1,15
 566 667 566 667 543 719 c 0,16,17
 499 818 499 818 426 818 c 0,18,19
 312 818 312 818 312 626 c 0,8,9
239 -94 m 0,20,21
 239 -243 239 -243 450.5 -243 c 128,-1,22
 662 -243 662 -243 662 -102 c 0,23,24
 662 -43 662 -43 616.5 -20 c 128,-1,25
 571 3 571 3 459 3 c 2,26,-1
 274 3 l 1,27,28
 273 0 273 0 256 -25 c 128,-1,29
 239 -50 239 -50 239 -94 c 0,20,21
12 -163 m 128,-1,31
 12 -105 12 -105 60.5 -57 c 128,-1,32
 109 -9 109 -9 171 12 c 1,33,-1
 171 24 l 1,34,35
 76 70 76 70 76 169 c 0,36,37
 76 219 76 219 134 271 c 128,-1,38
 192 323 192 323 257 342 c 1,39,-1
 256 354 l 1,40,41
 204 372 204 372 148 446 c 128,-1,42
 92 520 92 520 92 606 c 0,43,44
 92 730 92 730 196.5 825 c 128,-1,45
 301 920 301 920 449 920 c 128,-1,46
 597 920 597 920 694 857 c 1,47,-1
 919 881 l 1,48,-1
 944 852 l 1,49,-1
 902 700 l 1,50,-1
 877 698 l 1,51,-1
 770 732 l 1,52,-1
 768 722 l 1,53,54
 786 672 786 672 786 627 c 0,55,56
 786 532 786 532 734 460 c 0,57,58
 630 316 630 316 434 317 c 0,59,60
 404 317 404 317 356 326 c 1,61,62
 318 286 318 286 318 257 c 0,63,64
 318 196 318 196 458 196 c 2,65,-1
 594 196 l 2,66,67
 745 196 745 196 823.5 146 c 128,-1,68
 902 96 902 96 902 -34.5 c 128,-1,69
 902 -165 902 -165 752 -275.5 c 128,-1,70
 602 -386 602 -386 386 -386 c 0,71,72
 248 -386 248 -386 140 -340 c 0,73,74
 82 -316 82 -316 47 -268.5 c 128,-1,30
 12 -221 12 -221 12 -163 c 128,-1,31
EndSplineSet
EndChar

